<svg viewBox="0 0 400 300" fill="none" xmlns="http://www.w3.org/2000/svg"><path d="M228 107.75s46.32-15.34 29.2-25.93c-10.16-5.68-28.37 12.36-8.89 19.67 17.65 3.18 31.85-14 31.4-20.06" stroke="#61D3BA" stroke-width="3" stroke-miterlimit="10"/><path d="M170.786 240.8v.854h5.138v-.854h-5.138Zm2.52.364V245h.98v-3.836h-.98Zm-8.26 4.13v5.25h1.008v-4.41h7.112v4.368h1.05v-5.208h-9.17Zm.7 1.988v.756h7.728v-.756h-7.728Zm0 1.932v.826h7.77v-.826h-7.77Zm9.212-11.354c-1.05.35-2.898.602-4.438.728.098.224.21.56.252.77 1.582-.098 3.5-.336 4.76-.714l-.574-.784Zm-4.438.728v2.1c0 1.148-.112 2.674-1.022 3.808.224.084.644.364.812.518.952-1.19 1.148-2.996 1.148-4.312v-2.114h-.938Zm-7.168 0v.826h6.496v-.826h-6.496Zm3.318 1.414v5.012h.98v-5.012h-.98Zm-2.828 1.96c0-.196.546-.504.546-.504v-.028c.868-.854 1.82-2.198 2.548-3.514l-1.05-.294c-.504 1.19-1.4 2.464-1.652 2.786-.266.322-.49.56-.714.602.112.266.266.742.322.952Zm0 0c.126-.112.56-.196 1.148-.196h4.872v-.84h-5.46l-.56.28v.756Zm-.476 1.26.098.896c1.652-.196 4.032-.448 6.328-.7v-.798c-2.408.238-4.858.476-6.426.602Zm26.488.504v-.98h-6.062c.098-.98.126-2.03.14-3.136h5.124v-.966h-10.794v.966h4.62c-.014 1.106-.042 2.156-.14 3.136h-5.348v.98h5.222c-.448 2.716-1.694 4.788-5.39 5.908.238.21.546.616.658.868 3.99-1.288 5.32-3.682 5.782-6.776h6.188Zm-4.144 5.586c-.728 0-.868-.098-.868-.56V244.3h-1.064v4.438c0 1.246.392 1.582 1.848 1.582h2.632c1.344 0 1.666-.574 1.82-2.786-.294-.084-.756-.252-1.008-.448-.084 1.904-.196 2.226-.882 2.226h-2.478Zm10.136-9.212v1.036h8.106V240.1h-8.106Zm2.604 3.094v.994h3.78v-.994h-3.78Zm3.444 0v.196c-.14 4.046-.336 5.558-.658 5.908-.126.154-.252.182-.518.168-.266 0-.938 0-1.666-.07.168.28.28.7.308 1.008.714.042 1.414.056 1.806.014.42-.042.7-.14.966-.462.434-.504.616-2.016.798-6.272.014-.14.014-.49.014-.49h-1.05Zm-4.004-2.534c-.084 3.696-.21 7.28-2.548 9.17.266.168.602.49.77.742 2.492-2.114 2.744-5.908 2.828-9.912h-1.05Zm1.008-2.73c.252.686.546 1.61.672 2.156l1.036-.322c-.14-.532-.448-1.414-.714-2.086l-.994.252Zm-6.538.588c.658.658 1.54 1.582 1.974 2.142l.77-.742c-.448-.532-1.344-1.4-2.002-2.03l-.742.63Zm.91 11.382c.196-.294.56-.616 3.08-2.52a5.293 5.293 0 0 1-.308-.84l-2.688 1.904-.28.448.196 1.008Zm-2.016-7.868v1.008h2.856v-1.008h-2.856Zm2.016 7.868c0-.406 1.19-1.288 1.19-1.288v-6.58h-1.05v5.67c0 .644-.504 1.134-.798 1.33.196.196.546.63.658.868Zm12.628-9.086v9.73h1.036v-9.73h-1.036Zm.154-2.478c.714.742 1.624 1.75 2.086 2.352l.798-.574c-.462-.588-1.414-1.582-2.114-2.268l-.77.49Zm3.528.112v.98h7.392v-.98h-7.392Zm6.678 0v10.612c0 .238-.084.322-.336.336-.224 0-1.078.014-1.918-.028.14.294.308.77.35 1.064 1.148.014 1.904-.014 2.352-.182.434-.182.602-.504.602-1.176v-10.626h-1.05Zm-6.622 3.458v.952h3.374v3.248h-3.374v.952h4.396v-5.152h-4.396Zm-.532 0v6.062h.966v-6.062h-.966Zm15.806 3.164c-.322-.308-1.708-1.582-2.212-1.988v-1.47h1.918v-.952h-1.918v-2.968h-1.008v2.968h-2.324v.952h2.198c-.49 1.96-1.456 4.2-2.464 5.432.196.238.476.63.588.924.742-.938 1.456-2.436 2.002-3.99v6.482h1.008v-6.3c.574.616 1.316 1.428 1.638 1.862l.574-.952Zm6.104-6.132-.182.042h-6.286v1.008h5.992c-.462 2.422-1.302 4.424-2.408 6.006-1.022-1.54-1.652-3.416-2.114-5.81l-.924.196c.504 2.688 1.218 4.76 2.38 6.468a9.688 9.688 0 0 1-3.71 2.758c.21.196.504.616.658.882a11.166 11.166 0 0 0 3.696-2.772c.868 1.036 1.946 1.946 3.318 2.8.14-.308.462-.686.728-.882-1.414-.812-2.506-1.708-3.374-2.758 1.4-1.904 2.422-4.452 2.898-7.728l-.672-.21Zm6.384-.686-.168.042h-3.43v12.18h.98v-11.228h2.058c-.336.952-.798 2.24-1.246 3.248 1.092 1.078 1.4 2.002 1.4 2.772 0 .42-.084.798-.322.952a1.26 1.26 0 0 1-.49.126 5.224 5.224 0 0 1-.91-.028c.168.28.252.686.266.952.336.014.742.028 1.036-.014.308-.042.574-.126.784-.266.42-.28.588-.84.574-1.61 0-.868-.252-1.862-1.386-3.01.532-1.092 1.106-2.52 1.54-3.696l-.686-.42Zm2.45 3.57h4.228v1.736h-4.228v-1.736Zm4.228-2.59v1.708h-4.228v-1.708h4.228Zm.812 5.586c-.462.518-1.204 1.162-1.862 1.68a10.194 10.194 0 0 1-.77-2.016h2.856v-6.174h-6.272v10.668c-.588.112-1.12.21-1.568.294l.336 1.008c1.358-.308 3.22-.714 4.97-1.12l-.07-.896c-.896.182-1.806.364-2.66.532v-4.312h1.512c.672 2.73 1.946 4.9 4.004 5.95.14-.266.448-.658.686-.854-1.078-.49-1.946-1.302-2.604-2.352a19.58 19.58 0 0 0 2.254-1.834l-.812-.574Z" fill="#9BA2AD"/><path d="M140.31 84.85v22.47a3.626 3.626 0 0 0 1.069 2.618A3.642 3.642 0 0 0 144 111h36.2c.965 0 1.891-.384 2.574-1.066a3.644 3.644 0 0 0 1.066-2.574V84.85a3.643 3.643 0 0 0-3.64-3.64H144a3.648 3.648 0 0 0-2.606 1.048 3.63 3.63 0 0 0-1.084 2.592ZM175.86 108h-27.57a3.642 3.642 0 0 1-3.64-3.64V87.82a3.638 3.638 0 0 1 3.64-3.64h27.57a3.642 3.642 0 0 1 3.64 3.64v16.53a3.65 3.65 0 0 1-2.245 3.372 3.647 3.647 0 0 1-1.395.278Z" fill="#26417F"/><path d="M140.31 109.47v3.83s-29.59 5.7-27 12.47c-3-3.45-.56-5-.09-5.45.47-.45 11.26-10.59 27.09-10.85Z" fill="#13286A"/><path d="M191.48 104.7h-57.74a4.203 4.203 0 0 0-4.2 4.2v52.35a4.203 4.203 0 0 0 4.2 4.2h57.74a4.197 4.197 0 0 0 4.19-4.2V108.9a4.197 4.197 0 0 0-4.19-4.2Zm-26.79 26.35s2.05 2.77 2.62 3.4c.57.63-.4 2.08-.4 2.08l-3.66 4.09v1.85c1.61 1.5-.41 2.45-.41 2.45v.83c0 .35 1.13.78 1 3.55-.13 2.77-2.94 3.81-2.94 3.81l-.42-22.93a6.723 6.723 0 0 1-4.481-7.616 6.72 6.72 0 1 1 8.081 7.796l.61.69Z" fill="#FBC623"/><path d="M110.67 135.85v6.8a17.436 17.436 0 0 1 5.28 2.22c1.43 1.32 6.59 2.08 9 1 2.24-1.87 7.53-3 10.38-1.53 2.55 2.55 7.66 1.7 8.17 1.53v-5.64s-5.13-.15-6.66-.15c-1.53 0-1.58-3-4.44-2.47-2.86.53-4.86 3.07-10.37 3.77-4.85.62-11.36-5.53-11.36-5.53Z" fill="#61D3BA"/><path d="M112.44 121s-3.65 5.54-1.87 8.86c1.78 3.32 11.22 2.74 15.66 1.08 1.71-.62 7.34-.95 8.79.13a7.13 7.13 0 0 1 2.17 3.13s5.81-2.82 5.81-3.2c0-.38-6.15-5.84-16.73-5.2-3.7.52-7.74 1.84-10.51 1.5-2.77-.34-3.22-5.51-3.32-6.3Z" fill="#4F87FD"/><path d="M195.64 138.48v5.87s3.32 5.11 1.53 6.39c-1.79 1.28-7.41 2.68-8.68 2.68-1.27 0 11.23 2.58 13.51-4.09 1-3.14.33-5.5-.21-6.31a10.432 10.432 0 0 0-6.15-4.54Z" fill="#13286A"/><path d="m156.67 161.53 1.2 7.12s4.25-6.75 15.14-7.12c10.89-.37 24.42-1.44 28.91-11.94-3 3.24-3.82 5.11-14.44 3.63-10.55-1.76-29.78 3.4-30.81 8.31Z" fill="#4F87FD"/><path d="m266.26 178.86 1.36 21.46-2.34.16h-.14c-1.72 0-2.34-4-2.4-4.48l-4.1-5.57-2 .14-.05-.25 2-.14-.68-10.64h.23v-.25l8.14-.56-.02.13Zm1.1 21.23L266 179l-7.88.54.68 10.72L263 196s.59 4.29 2.16 4.29h.11l2.09-.2Z" fill="#26417F"/><path d="m266 179 1.34 21.09-2.11.14h-.11c-1.57 0-2.15-4.25-2.16-4.29l-4.16-5.69-.68-10.72L266 179Z" fill="#FBC623"/><path d="M263.84 169c1.06 3.72-1 7-5.64 8.67-.667.31-1.359.561-2.07.75-.49.14-1.06.31-1.7.55v-.1h-.12v-.12c.68-.26 1.27-.42 1.79-.58a13.078 13.078 0 0 0 2-.74c4.47-1.66 6.52-4.79 5.5-8.37-1.17-4.1-6.28-7.75-12.51-6.51l.12-.27c6.3-1.12 11.44 2.59 12.63 6.72Z" fill="#26417F"/><path d="M263.6 169.11c1 3.58-1 6.71-5.5 8.37-.646.301-1.314.549-2 .74-.52.16-1.11.32-1.79.58l-30.51-7.17h18.56v-4.81c4.5 0 7.63-1.55 8.77-4.22 6.19-1.24 11.3 2.4 12.47 6.51Z" fill="#E0E2E3"/><path d="m257.89 179.55.68 10.64-2.02.14-1.99-10.61 3.33-.17Z" fill="#FFDFD4"/><path d="m258.11 179.29.01.25-.23.01-.02-.24.11-.01.13-.01Z" fill="#26417F"/><path d="m257.98 179.3-.11.01.02.24-3.33.17-.04-.25 3.46-.17ZM256.6 190.58l.69 3.71h-.17c-.27 0-16.38-2.78-31.63-6l-.07-.24-.46.13c-9.34-2-18.28-4.17-23-6V182h-.25l-.57-.24c-6.84-3-5.71-8.71-4.91-11 1.31-3.78 4.25-6.71 5.81-6.59 0 .06 0 .12.05.18v.08c-1.42-.27-4.38 2.74-5.65 6.41-1 2.8-1.64 7.92 4.77 10.73 10.92 4.7 52.69 11.89 55.79 12.43l-.64-3.39.24-.03Z" fill="#26417F"/><path d="m256.34 190.6.66 3.4c-3.08-.53-44.85-7.72-55.71-12.47-6.41-2.81-5.74-7.93-4.77-10.73 1.27-3.67 4.23-6.68 5.65-6.41 1 3.14 4.2 3.87 6.95 3.87a19.006 19.006 0 0 0 4.25-.51v3.89h9.56l31.23 7.36 2.18 11.59v.01Z" fill="#E0E2E3"/><path d="m256.6 190.58-.26.02v-.03l-.01-.22.22-.02.05.25Z" fill="#26417F"/><path d="m254.56 179.72 2 10.61h-.22v.22L254.16 179h.11v-.07.12h.1l.09.46h-.11v.25l.21-.04Z" fill="#26417F"/><path d="m254.52 179.47.04.25-.14.01-.01-.25.11-.01ZM254.41 178.91v.1h-.1v-.12l.1.02Z" fill="#26417F"/><path d="M254.31 178.81v.12-.12h.07-.07ZM254.24 178.81v.12h-.12l-31.25-7.35h.85l30.51 7.17.01.06ZM254.28 178.93l-.01.07-.11-.02v-.03l.12-.02ZM251.64 147.05v.1l-1.84.74a.834.834 0 0 1 0-.1l-.24.05a1.09 1.09 0 0 0 0 .14l-7.27 2.93v-.21h-.06l9.14-3.67a21.074 21.074 0 0 0-6.26-9.48 25.004 25.004 0 0 0-17.22-6.32h-.13c-14.9.07-23.23 14.17-24.06 15.64l9.73 3.82h-.05v.21l-7.47-2.9.05-.1-.22-.11-.06.12-2.34-.92.07-.12c.08-.16 8.56-15.83 24.35-15.9h.13a25.262 25.262 0 0 1 17.39 6.38 21.24 21.24 0 0 1 6.36 9.7Z" fill="#26417F"/><path d="M249.82 147.89c.28 1.2 2.63 11.5 1.56 13.88 0 .19-.11.38-.17.56h-.23l.05.24h.06c-1.14 2.67-4.27 4.2-8.77 4.22v-.25c4.83 0 8-1.8 8.82-4.89 1-2.27-1.24-12.39-1.55-13.7l.23-.06Z" fill="#26417F"/><path d="m251.37 147-9.14 3.67-3.54-4.2-.19.17 3.43 4.06H213.7l3.24-5-.21-.14-3.3 5.06-9.73-3.82c.83-1.47 9.16-15.57 24.06-15.64h.13a25.003 25.003 0 0 1 17.22 6.32 21.065 21.065 0 0 1 6.26 9.52Z" fill="#61D3BA"/><path d="M249.59 148c.31 1.31 2.57 11.43 1.55 13.7-.78 3.09-4 4.87-8.82 4.89v-15.68l7.27-2.91Z" fill="#FFDFD4"/><path d="M251 162.37h.23l-.12.27H251v-.27ZM249.82 147.89l-.23.09a1.09 1.09 0 0 1 0-.14l.24-.05a.847.847 0 0 0-.01.1ZM242.32 166.82v4.81h-18.56l-1.06-.25h19.37V151H213.6v20.43h9.1v.19l.26.06h-9.56v-3.89h.16l-.07-.24h-.09v-16.64h.08v-.12l.1.07.12-.19h28.23l.17.2.1-.08.05.12h.07v15.66h-.12v.25h.12Z" fill="#26417F"/><path d="M242.32 166.57v.25h-.12v-.25h.12ZM242.32 150.7v.21l-.07.03-.05-.12.09-.08-.03-.04h.06Z" fill="#26417F"/><path d="m242.26 150.7.03.04-.09.08-.05-.12h.11ZM242.26 150.7h-.11l.08-.03.03.03Z" fill="#26417F"/><path d="m238.69 146.47 3.54 4.2-.08.03h-.22l-3.43-4.06.19-.17ZM242.15 150.7l.05.12-.1.08-.17-.2h.22Z" fill="#26417F"/><path d="M242.07 150.95v20.43H213.6v-20.43h28.47Z" fill="#FBC623"/><path d="M234.52 118.94a1.7 1.7 0 0 1 1.63 1.77 1.705 1.705 0 0 1-1.77 1.63v-.06a.66.66 0 0 0 .05-.2 1.448 1.448 0 0 0 1.02-2.368 1.448 1.448 0 0 0-.9-.512 2.274 2.274 0 0 0-.03-.26Z" fill="#26417F"/><path d="M234.55 119.2a1.448 1.448 0 0 1 1.23 1.494 1.45 1.45 0 0 1-1.35 1.386c.153-.564.23-1.145.23-1.73a5.545 5.545 0 0 0-.07-.91.676.676 0 0 0-.04-.24Z" fill="#FFDFD4"/><path d="M234.59 119.44c.049.301.072.605.07.91a6.561 6.561 0 0 1-.23 1.73h-.05v.19a6.902 6.902 0 0 1-10.689 3.634 6.9 6.9 0 0 1-2.521-3.524v-.25h-.09a6.525 6.525 0 0 1-.24-1.78 5.824 5.824 0 0 1 .1-1.11h.24a6.658 6.658 0 0 0-.09 1.11 6.65 6.65 0 0 0 13.3 0c.01-.196.01-.393 0-.59.086-.093.154-.201.2-.32Z" fill="#26417F"/><path d="m234.35 119.35.24.09c-.049.119-.12.228-.21.32v-.38l-.03-.03ZM234.55 119.2a.485.485 0 0 0-.17 0v-.25h.14c.014.083.024.166.03.25ZM234.43 122.08a.66.66 0 0 1-.05.2v-.19l.05-.01Z" fill="#26417F"/><path d="M234.38 119.76c.01.197.01.394 0 .59a6.65 6.65 0 0 1-13.3 0c-.001-.372.03-.743.09-1.11a3.987 3.987 0 0 0 3.16-.89 6.452 6.452 0 0 0 1.85-3.92c.16 1 .56 2.85 1.44 3.3a3.613 3.613 0 0 0 2.84.27 2.606 2.606 0 0 0 2.61 2.26 1.59 1.59 0 0 0 1.31-.5Z" fill="#FFDFD4"/><path d="M234.34 119.38v.38a1.604 1.604 0 0 1-1.26.5 2.611 2.611 0 0 1-2.61-2.26 3.616 3.616 0 0 1-2.84-.27c-.88-.45-1.28-2.29-1.44-3.3 0-.27 0-.47.06-.55a.27.27 0 0 1 .12 0c.06.58.41 3.17 1.39 3.66a3.501 3.501 0 0 0 2.77.21l.16-.06v.17a2.35 2.35 0 0 0 2.39 2.18 1.283 1.283 0 0 0 1.26-.66Z" fill="#26417F"/><path d="M234.34 119.38a1.28 1.28 0 0 1-1.22.63 2.348 2.348 0 0 1-2.39-2.18v-.17l-.16.06a3.5 3.5 0 0 1-2.77-.21c-1-.49-1.33-3.08-1.39-3.66a6.19 6.19 0 0 1 1.37-.15 6.671 6.671 0 0 1 6.56 5.68Z" fill="#13286A"/><path d="M226.39 113.85a.27.27 0 0 0-.12 0h-.13a.273.273 0 0 1 0-.07h.24a.562.562 0 0 0 .01.07Z" fill="#26417F"/><path d="M226.27 113.84a.27.27 0 0 0-.12 0 .215.215 0 0 1 0-.08l.12.08ZM226.15 113.91a.27.27 0 0 1 .12 0c0 .08 0 .28-.06.55a5.08 5.08 0 0 1-.06-.55Z" fill="#26417F"/><path d="M226.15 113.91c.011.174.031.348.06.52a6.446 6.446 0 0 1-1.85 3.92 4.005 4.005 0 0 1-3.16.89 1.738 1.738 0 0 0 0-.25 3.755 3.755 0 0 0 2.95-.83 6.664 6.664 0 0 0 1.82-4.22.349.349 0 0 1 .18-.03Z" fill="#26417F"/><path d="M226.14 113.83a.268.268 0 0 0 0 .08.33.33 0 0 0-.14 0 1.009 1.009 0 0 0 0-.11l.14.03Z" fill="#26417F"/><path d="M226 113.94a6.664 6.664 0 0 1-1.82 4.22 3.75 3.75 0 0 1-2.95.83 6.7 6.7 0 0 1 4.77-5.05Z" fill="#13286A"/><path d="m225.42 188 .07.24-.52-.11.45-.13Z" fill="#26417F"/><path d="m225 188.12.52.11c-12.46 3.42-23.48 6-23.59 6h-.15v-1h.12v-.25h-.12v-10.59h.18v-.25h-.19V182l.25.1V194c1.33-.34 11.47-2.75 22.98-5.88ZM223.76 171.63h-.85l-.26-.06.05-.19 1.06.25ZM221.24 119c.006.083.006.167 0 .25H221a1.16 1.16 0 0 1 0-.25h.24ZM221.19 122.14v.25a2.554 2.554 0 0 1-.07-.26l.07.01Z" fill="#26417F"/><path d="M221.1 122.13c.019.088.042.175.07.26a1.701 1.701 0 0 1-1.68-1.7 1.822 1.822 0 0 1 .58-1.32 1.42 1.42 0 0 1 .93-.37 1.16 1.16 0 0 0 0 .25 1.209 1.209 0 0 0-.72.32 1.52 1.52 0 0 0-.5 1.13 1.442 1.442 0 0 0 1.32 1.43Z" fill="#26417F"/><path d="M221 119.24a6.563 6.563 0 0 0 .14 2.89 1.437 1.437 0 0 1-1.36-1.44 1.509 1.509 0 0 1 .5-1.13c.198-.184.451-.296.72-.32Z" fill="#FFDFD4"/><path d="m216.94 145.74-3.24 4.96h-.18l-.09-.04 3.3-5.06.21.14Z" fill="#26417F"/><path d="m213.7 150.7-.12.19-.1-.07.04-.12h.18Z" fill="#26417F"/><path d="m213.52 150.7-.04.12-.11-.07.03-.05h.12ZM213.52 150.7h-.12l.03-.04.09.04ZM213.44 167.47l.07.24h-.16v-.24h.09Z" fill="#26417F"/><path d="m213.48 150.82-.05.12-.08-.03v-.21h.05l-.03.05.11.07ZM213.35 167.5v.24c-1.393.33-2.819.501-4.25.51-2.75 0-5.94-.73-6.95-3.87h.06l.06-.24a1.335 1.335 0 0 0-.2 0c-1.53-5.54 3-15.05 3.61-16.23l.23.09c-.55 1.11-5.21 10.8-3.55 16.25 1.66 5.45 10.02 3.48 10.99 3.25Z" fill="#26417F"/><path d="M213.35 150.91v16.59c-1 .23-9.35 2.11-11-3.27-1.65-5.38 3-15.14 3.55-16.25l7.45 2.93Z" fill="#FFDFD4"/><path d="M225 188.12c-11.47 3.13-21.61 5.54-23 5.86v-11.9c4.68 1.92 13.62 4.05 23 6.04Z" fill="#E0E2E3"/><path d="m205.74 147.77.22.11-.05.1-.23-.09.06-.12ZM202.27 164.15l-.06.24h-.06v-.08c0-.06 0-.12-.05-.18.057.002.113.009.17.02ZM202 181.9v.18l-.25-.1v-.08h.25ZM201.93 182.14l-.01.25h-.18v-.25h.19ZM201.86 193.05h-.12v.25h.12v-.25ZM201.74 193.05v.25h-2.44l-3.78 5.8c0 .44-.42 4.6-2.2 4.6h-2.43v-.13L191 182h.13l8.14.09v.25h.12l-.03 10.66 2.38.05Zm-2.63 0 .06-10.74-7.89-.09-.13 21.13h2.16c1.62 0 2-4.36 2-4.4v-.06l3.8-5.84Z" fill="#26417F"/><path d="M201.74 182.39v10.66l-2.38-.03.06-10.66 2.32.03Z" fill="#FFDFD4"/><path d="M201.74 182.14v.25l-2.32-.03v-.25l2.32.03ZM199.42 182.11v.25h-.12v-.25h.12Z" fill="#26417F"/><path d="m199.17 182.36-.06 10.74-3.82 5.9v.06s-.34 4.4-2 4.4h-2.16l.13-21.13 7.91.03Z" fill="#FBC623"/><path d="m113.85 84.2-7.27 4.8s4.63 6 6.12 7.76c4.2-2.2 6-3.42 6-3.42s-2.14-3.74-4.85-9.14Z" fill="#4F87FD"/><path d="M214.58 85.58 207 81.24s-3.3 6.85-4.17 9c3.9 2.76 5.8 3.76 5.8 3.76s2.37-3.56 5.95-8.42Z" stroke="#61D3BA" stroke-miterlimit="10"/><path d="m106.28 119.2 1.81-6.51s-7.06-2.4-9.2-3.68c-1.71 4.42-2.27 6.53-2.27 6.53s4.06 1.38 9.66 3.66Z" stroke="#FBC623" stroke-miterlimit="10"/></svg>