<svg viewBox="0 0 400 300" fill="none" xmlns="http://www.w3.org/2000/svg"><path d="M163.184 241.08c-.714 1.974-1.694 3.584-2.982 4.886-1.33-1.358-2.324-3.01-3.01-4.886h5.992Zm3.36 0v-1.022h-5.81v-2.366h-1.05v2.366h-5.698v1.022h2.058c.798 2.226 1.89 4.116 3.332 5.642-1.498 1.232-3.332 2.128-5.558 2.772.224.238.56.742.658.994 2.254-.728 4.144-1.694 5.684-3.01 1.54 1.386 3.444 2.394 5.782 2.996.154-.294.49-.77.742-1.008-2.268-.532-4.158-1.484-5.684-2.772 1.456-1.47 2.562-3.318 3.388-5.614h2.156Zm4.466-3.332c-.742 2.114-1.974 4.2-3.276 5.558.182.238.49.77.588 1.022a15.87 15.87 0 0 0 1.288-1.638v7.77h.994v-9.38a24.52 24.52 0 0 0 1.386-3.024l-.98-.308Zm9.492 6.888h-3.794v-3.066h3.192v-1.022h-3.192v-2.674h-1.036v2.674h-1.862c.182-.63.336-1.288.462-1.946l-.98-.21c-.322 1.806-.896 3.626-1.722 4.774.266.126.7.378.896.532.378-.588.714-1.316 1.008-2.128h2.198v3.066h-3.99v1.022h3.99v4.83h1.036v-4.83h3.794v-1.022Zm13.874.7V244.3h-5.866c.182-1.05.266-2.226.294-3.5h5.096v-1.022h-5.082c.014-.658.014-1.344.014-2.058h-1.092v2.058h-5.18v1.022h5.166c-.028 1.302-.112 2.464-.322 3.5h-5.306v1.036h5.026c-.686 2.002-2.128 3.388-5.208 4.242.252.21.56.63.672.896 3.36-.966 4.9-2.618 5.614-4.956 1.078 2.464 2.926 4.144 5.656 4.9.14-.294.434-.714.686-.938-2.562-.588-4.354-2.058-5.348-4.144h5.18Zm-10.612-3.934c.504.84.98 1.974 1.134 2.674l.994-.28c-.168-.714-.672-1.82-1.218-2.646l-.91.252Zm7.084 2.73c.532-.7 1.19-1.778 1.708-2.73l-1.036-.294c-.336.826-1.008 2.016-1.512 2.758l.84.266Zm5.516-3.108v1.05h10.808v-1.05h-10.808Zm10.374 0v.224c-.182 5.376-.406 7.448-.854 7.896-.168.168-.322.21-.616.21-.35 0-1.232 0-2.17-.098.196.322.336.784.364 1.092.854.056 1.75.07 2.24.028.504-.042.84-.168 1.148-.56.56-.644.756-2.632.966-8.246.014-.154.014-.546.014-.546h-1.092Zm-5.768-3.346v1.666c0 2.898-.294 7.182-4.984 10.22.266.182.658.532.826.784 4.886-3.248 5.222-7.868 5.222-11.004v-1.666h-1.064Zm-3.486.756c.56.658 1.204 1.568 1.47 2.128l.952-.448c-.294-.574-.952-1.456-1.512-2.072l-.91.392Zm4.718 5.796c.714.84 1.554 2.016 1.904 2.758l.924-.49c-.364-.742-1.218-1.876-1.96-2.702l-.868.434Zm15.022-4.144v2.772c0 1.036.294 1.302 1.512 1.302h2.002c.938 0 1.232-.336 1.33-1.652-.266-.07-.7-.224-.896-.378-.042.98-.126 1.134-.532 1.134h-1.792c-.518 0-.602-.056-.602-.406v-2.772h2.828v1.554h1.05v-2.492h-5.404v-1.456h-1.05v1.456h-5.292v2.8h1.022v-1.862h2.702c-.238 2.044-.896 3.206-3.892 3.794.21.21.476.616.574.868 3.29-.742 4.116-2.184 4.396-4.662h2.044Zm-.504 9.016v-2.814h4.424v-.938h-9.576v.938h4.102v2.814h-5.558v.952h12.236v-.952h-5.628Z" fill="#9BA2AD"/><path d="M250.64 171.43s10 1.59 12.39 8.39c-4.85 6.52-5.38 4-5.38 4s-4-2.78-7-2.63c-.01-3.19-.01-9.76-.01-9.76Z" fill="#E0E2E3"/><path d="M252.84 99.44a1.163 1.163 0 0 1 .61 1 1.679 1.679 0 0 1-1 1.37l-.67.35c-.312.009-.62.073-.91.19l1.48-.77a1.432 1.432 0 0 0 .91-1.15.893.893 0 0 0-.49-.81 1.399 1.399 0 0 0-1.25 0l.51-.27c.067-.034.131-.074.19-.12.219.025.431.097.62.21Z" fill="#26417F"/><path d="M252.71 99.66a.902.902 0 0 1 .49.81 1.43 1.43 0 0 1-.91 1.15l-1.48.77c-2.11 1.11-4.71 2.5-4.74 2.52l.12.22s2.69-1.44 4.8-2.55c.77-.26 1.37-.15 1.59.29.22.44-.14 1.51-1.39 2.25-2.62 1.46-5.08 2.7-5.11 2.72-.03.02-2.74 1.45-4.18 2.09-9.82 6.4-15.59 9.82-19.77 5.53-4.66-4-7.79-7.12-8.37-7.71l9.8-7.09 4.63 3.91H228.31c.42-.14 10.36-3.36 11.29-4h.05v-.06c.08-1.21 2.87-5.84 3.78-7.36.17-.27.29-.46.34-.56a.349.349 0 0 1 .46-.12c.42.17 1 .93.61 2.23a19.15 19.15 0 0 1-1 3.34l-.06.15a3.999 3.999 0 0 1-2.47 4l.1.24a4.283 4.283 0 0 0 2.59-4.16v-.06c.16 0 .52-.22 1.34-.62l4.1-2a.797.797 0 0 1 .84 0 1.106 1.106 0 0 1 .53.94.678.678 0 0 1-.26.5 1.119 1.119 0 0 1-.28.18l-2.86 1.41-2.48 1.22.11.22 2.48-1.22 2.85-1.41c.114-.049.222-.113.32-.19a1.498 1.498 0 0 1 1.56-.15 1 1 0 0 1 .53.87 1.455 1.455 0 0 1-.92 1.18l-.52.28a1.8 1.8 0 0 0-.34.17c-2.25 1.18-5.74 3-5.78 3.07l.12.22s3.54-1.9 5.79-3.08l.34-.17a1.398 1.398 0 0 1 1.24.03Z" fill="#FFDFD4"/><path d="M252.77 102.78c.32.66-.09 1.75-1.48 2.58-2.63 1.46-5.1 2.71-5.12 2.72-.02.01-2.75 1.46-4.18 2.09-6.68 4.35-11.68 7.43-15.55 7.44a6.002 6.002 0 0 1-4.51-2c-3.06-2.59-5.47-4.85-6.92-6.28v-.3h-.25c-.65-.62-1.06-1-1.22-1.21l.2-.15c.58.59 3.71 3.75 8.37 7.71 4.18 4.29 10 .87 19.77-5.53 1.44-.64 4.15-2.08 4.18-2.09.03-.01 2.49-1.26 5.11-2.72 1.25-.74 1.65-1.71 1.39-2.25s-.82-.55-1.59-.29l.76-.4a1.091 1.091 0 0 1 1.04.68ZM252.37 96.89A1.265 1.265 0 0 1 253 98a1.628 1.628 0 0 1-.86 1.27 1.811 1.811 0 0 0-.83.18l.52-.28a1.45 1.45 0 0 0 .92-1.18 1 1 0 0 0-.53-.87 1.5 1.5 0 0 0-1.56.15.995.995 0 0 0 .31-.42 1.582 1.582 0 0 1 1.4.04Z" fill="#26417F"/><path d="M252.16 99.26a1.198 1.198 0 0 1-.19.12l-.51.27a1.8 1.8 0 0 0-.34.17l-.13-.21a2.472 2.472 0 0 1 1.17-.35Z" fill="#26417F"/><path d="m251.46 99.65-.34.17a1.8 1.8 0 0 1 .34-.17Z" fill="#26417F"/><path d="m251 99.61.13.21c-2.25 1.18-5.75 3.05-5.79 3.08l-.12-.22s3.52-1.89 5.78-3.07ZM251.72 102.2l-.76.4h-.09l-.09-.22c.3-.117.619-.178.94-.18ZM250.39 95.4a1.317 1.317 0 0 1 .66 1.17c.001.09-.02.18-.06.26-.159.05-.31.12-.45.21a.672.672 0 0 0 .26-.5 1.097 1.097 0 0 0-.53-.94.797.797 0 0 0-.84 0l-4.1 2c-.82.4-1.18.57-1.34.62.034-.109.074-.216.12-.32l1.14-.54c.9-.42 2.24-1.06 4.06-1.94a1 1 0 0 1 1.08-.02Z" fill="#26417F"/><path d="M250.87 102.63h.09c-2.11 1.11-4.77 2.53-4.8 2.55l-.12-.22s2.63-1.41 4.74-2.52l.09.19ZM250.54 97.05c.14-.09.291-.161.45-.21a.994.994 0 0 1-.31.42l-.14-.21Z" fill="#26417F"/><path d="m250.54 97.05.14.21a1.434 1.434 0 0 1-.32.19l-2.85 1.41-2.51 1.22-.11-.22 2.48-1.22 2.86-1.41c.112-.043.217-.104.31-.18ZM244.3 92.25c.51.21 1.14 1.06.75 2.52a18.547 18.547 0 0 1-.94 3.11l-.23.11-.11.06c.435-1.08.77-2.199 1-3.34.34-1.3-.19-2.06-.61-2.23a.348.348 0 0 0-.46.12c-.05.1-.17.29-.34.56-.91 1.52-3.7 6.15-3.78 7.36v.06h-.05c-.93.64-10.87 3.86-11.29 4H228.12l-4.63-3.91.21-.15 4.53 3.82c.87-.28 10-3.25 11.11-3.91.16-1.36 2.81-5.74 3.81-7.41l.33-.55a.605.605 0 0 1 .364-.284.583.583 0 0 1 .456.064Z" fill="#26417F"/><path d="M244.11 97.88a3.024 3.024 0 0 0-.12.32h-.16v-.11l.11-.06.17-.15Z" fill="#26417F"/><path d="M244 98.2v.06a4.28 4.28 0 0 1-2.62 4.24l-.1-.24a3.998 3.998 0 0 0 2.47-4l.06-.15v.11s.05.02.19-.02ZM224.6 99.77l.06.1-.09.06-.83.6-.08-.07-.17.19-9.8 7.09-.1-.11-.18.17.08.09-.41.29-4.05-7 .22-.12 3.9 6.8 11.14-8c-.76-1.26-9.09-14.53-24.5-14.06v-.25c16.31-.55 24.73 14.07 24.81 14.22Z" fill="#26417F"/><path d="m224.33 99.79-11.14 8-3.9-6.8-.22.12 4.05 7 .41-.29c.16.16.57.59 1.22 1.21l.34 20c-1.65 1.91-6.31 3.29-12.2 3.59-5.6.28-13.29-.49-16.55-3.59v-18.61c.453-.643.871-1.311 1.25-2 .19.11.36.19.51.26l.12.06.05-.13c.67-1.94 3.7-9.75 3.73-9.83l-.23-.09c0 .08-2.93 7.57-3.69 9.7a98.352 98.352 0 0 1-12.54-8A26.052 26.052 0 0 1 199 85.72h.84c15.4-.46 23.73 12.81 24.49 14.07Z" fill="#61D3BA"/><path d="m223.66 100.46.08.07-.21.15-.04-.03.17-.19ZM215 109.38l.33 19.77h-.13l-.09-.08-.34-20c.07.108.146.211.23.31ZM215.21 129.16l.1.08c-1.67 2-6.42 3.4-12.4 3.71-.71 0-1.44.05-2.2.05-5.35 0-11.7-1-14.59-3.75l.09-.09h.13c3.26 3.1 10.95 3.87 16.55 3.59 5.89-.3 10.55-1.68 12.2-3.59h.12Z" fill="#26417F"/><path d="m215.12 129.08.09.08h-.12l.03-.08ZM215 109.08v.3a3.228 3.228 0 0 1-.26-.25l.26-.05ZM213.73 107.77l-.2.15-.08-.09.18-.17.1.11ZM207.47 73.85a1.903 1.903 0 0 1 1.77 1.9 1.916 1.916 0 0 1-1.92 1.91v-.06a1.25 1.25 0 0 0 .05-.19 1.66 1.66 0 0 0 .14-3.31 2.115 2.115 0 0 0-.04-.25Z" fill="#26417F"/><path d="M207.51 74.1a1.66 1.66 0 0 1-.14 3.31 7.63 7.63 0 0 0 .14-3.31Z" fill="#FFDFD4"/><path d="M207.51 74.1a7.63 7.63 0 0 1-.14 3.33h-.05v.19a7.836 7.836 0 0 1-7.452 5.622 7.837 7.837 0 0 1-7.548-5.492v-.25h-.08a7.274 7.274 0 0 1-.28-2c.001-.432.038-.864.11-1.29a.877.877 0 0 1 .23 0 7.582 7.582 0 0 0 7.47 8.87 7.582 7.582 0 0 0 7.58-7.58c.015-.24.015-.48 0-.72a1.31 1.31 0 0 0 .2-.32l-.23-.09a7.58 7.58 0 0 0-7.49-6.48 8.214 8.214 0 0 0-1.58.16.557.557 0 0 1 0-.1H198a.451.451 0 0 0 0 .09h-.14a1.01 1.01 0 0 1 0 .11 7.592 7.592 0 0 0-5.45 5.77.81.81 0 0 0-.22 0 7.83 7.83 0 0 1 15.35 0 .39.39 0 0 0-.15 0v.25a.593.593 0 0 1 .12-.07Z" fill="#26417F"/><path d="m207.31 74.3.23.09a1.309 1.309 0 0 1-.2.32 2.197 2.197 0 0 0-.05-.37l.02-.04ZM207.47 73.85c.005.083.005.167 0 .25a.624.624 0 0 0-.19 0v-.25a.392.392 0 0 1 .19 0Z" fill="#26417F"/><path d="M207.34 74.71c.015.24.015.48 0 .72a7.582 7.582 0 0 1-7.58 7.58 7.578 7.578 0 0 1-7.47-8.87 4.51 4.51 0 0 0 3.59-1 7.389 7.389 0 0 0 2.11-4.6c.16 1.11.61 3.36 1.65 3.89a4.11 4.11 0 0 0 3.23.3 3 3 0 0 0 3 2.58 1.822 1.822 0 0 0 1.47-.6Z" fill="#FFDFD4"/><path d="M207.37 77.41a1.256 1.256 0 0 1-.05.19v-.19h.05ZM207.29 74.34c.027.121.044.245.05.37a1.822 1.822 0 0 1-1.46.6 3 3 0 0 1-3-2.58 4.11 4.11 0 0 1-3.23-.3c-1-.53-1.49-2.78-1.65-3.89.029-.162.046-.326.05-.49h.14c.06.59.46 3.63 1.59 4.21a4.087 4.087 0 0 0 3.17.23h.15v.16a2.708 2.708 0 0 0 2.74 2.5 1.46 1.46 0 0 0 1.45-.81Z" fill="#26417F"/><path d="M207.29 74.33a1.458 1.458 0 0 1-1.4.72 2.708 2.708 0 0 1-2.74-2.5v-.15H203a4.09 4.09 0 0 1-3.17-.23c-1.13-.58-1.53-3.62-1.59-4.21a8.23 8.23 0 0 1 1.58-.16 7.581 7.581 0 0 1 7.47 6.53Z" fill="#13286A"/><path d="M199.82 85.48v.13l-.01-.13h.01Z" fill="#26417F"/><path d="M199.83 85.61v.12H199a26.047 26.047 0 0 0-23.47 14.7 98.462 98.462 0 0 0 12.54 8c.76-2.13 3.66-9.62 3.69-9.7l.23.09c0 .08-3.06 7.89-3.73 9.83l-.05.13-.12-.06c-.15-.07-.32-.15-.51-.26l.05-.1-.22-.12a.782.782 0 0 1-.06.11 101.99 101.99 0 0 1-10.92-6.95l.07-.07-.18-.17-.09.1-.93-.67-.08-.06v-.09A26.304 26.304 0 0 1 199 85.47h.84l-.01.14ZM198.21 67.91a.834.834 0 0 0 0 .1H198a.451.451 0 0 1 0-.09l.21-.01Z" fill="#26417F"/><path d="M198.08 68a.35.35 0 0 0-.11 0h.11ZM198 68.08a.35.35 0 0 1 .11 0 3.222 3.222 0 0 1-.05.49c-.06-.23-.06-.39-.06-.49Z" fill="#26417F"/><path d="M198 68.08c0 .1 0 .26.06.46a7.389 7.389 0 0 1-2.11 4.6 4.5 4.5 0 0 1-3.59 1v-.25a4.241 4.241 0 0 0 3.38-.94c1.72-1.48 2-4.23 2.07-4.83l.19-.04ZM198 68v.06h-.15a1.01 1.01 0 0 0 0-.11l.15.05Z" fill="#26417F"/><path d="M197.82 68.12c0 .6-.35 3.35-2.07 4.83a4.241 4.241 0 0 1-3.38.94 7.594 7.594 0 0 1 5.45-5.77Z" fill="#13286A"/><path d="M192.37 73.89v.25a.885.885 0 0 0-.23 0v-.25a.81.81 0 0 1 .22 0h.01ZM192.33 77.48v.25l-.06-.26.06.01Z" fill="#26417F"/><path d="m192.25 77.47.06.26a1.92 1.92 0 0 1-1.9-1.92 1.995 1.995 0 0 1 .66-1.49 1.63 1.63 0 0 1 1.05-.43v.25c-.315.019-.613.15-.84.37a1.777 1.777 0 0 0-.58 1.3 1.66 1.66 0 0 0 1.55 1.66Z" fill="#26417F"/><path d="M192.08 74.14a7.855 7.855 0 0 0-.11 1.29c0 .677.094 1.35.28 2a1.662 1.662 0 0 1-1.59-1.66 1.777 1.777 0 0 1 .58-1.3c.233-.205.53-.322.84-.33Z" fill="#FFDFD4"/><path d="m187.39 108.21.22.12-.05.1-.22-.11a.64.64 0 0 0 .05-.11ZM187.33 108.32l.22.11c-.38.689-.797 1.357-1.25 2h-.21v.32a37.18 37.18 0 0 1-5.8 6.5 6.165 6.165 0 0 1-2.199 1.573 6.163 6.163 0 0 1-2.661.477c-4.43 0-10.39-3.2-17-7.06-1.44-.55-4.22-1.87-4.25-1.88-.03-.01-2.55-1.14-5.24-2.47-1.44-.76-1.9-1.83-1.61-2.5.092-.197.242-.362.429-.474.187-.113.403-.167.621-.156l.83.39c-.83-.27-1.45-.14-1.65.34-.2.48.21 1.5 1.49 2.18 2.68 1.32 5.21 2.45 5.23 2.46.02.01 2.81 1.33 4.26 1.89 9.38 5.49 17.47 9.66 21.55 5a35.665 35.665 0 0 0 7.24-8.7ZM186.34 129.11h-.13l.09-.09s.03.07.04.09Z" fill="#26417F"/><path d="M186.34 110.42v18.69l-.09.09h-.12v-18.46c.08-.11.15-.22.21-.32ZM186.09 110.42h.21c-.06.1-.13.21-.21.32v-.32Z" fill="#26417F"/><path d="M155.91 100.38v.07a4.255 4.255 0 0 0 2.82 4.1l.08-.23a4 4 0 0 1-2.65-3.89v-.06a19.238 19.238 0 0 1-1.27-3.44c-.41-1.28.09-2.06.5-2.25a.34.34 0 0 1 .46.1l.36.54c1 1.47 4 6 4.14 7.17v.06h.06c.95.59 11 3.34 11.46 3.45h.07l4.44-4.68a101.933 101.933 0 0 0 10.92 6.95 35.62 35.62 0 0 1-7.22 8.74c-4.08 4.61-12.17.44-21.55-5-1.45-.56-4.23-1.87-4.26-1.89-.03-.02-2.55-1.14-5.23-2.46-1.28-.68-1.72-1.63-1.49-2.18.23-.55.82-.61 1.65-.34l4.83 2.29.11-.23s-2.7-1.29-4.86-2.29l-1.49-.7a1.43 1.43 0 0 1-1-1.1.93.93 0 0 1 .45-.84 1.44 1.44 0 0 1 1.33 0l.27.13c2.3 1.07 5.89 2.77 5.93 2.79l.1-.22s-3.6-1.72-5.91-2.79a1.666 1.666 0 0 0-.34-.15l-.55-.26a1.425 1.425 0 0 1-1-1.13.999.999 0 0 1 .48-.9 1.479 1.479 0 0 1 1.54.07c.098.074.206.134.32.18l3 1.28 2.49 1.09.1-.23-2.44-1.13-3-1.29a1.154 1.154 0 0 1-.29-.16.69.69 0 0 1-.28-.48 1.082 1.082 0 0 1 .49-1 .77.77 0 0 1 .85 0l4.17 1.77c.88.34 1.24.5 1.41.54Z" fill="#FFDFD4"/><path d="m176.48 101.3-.07.07-.2-.14.09-.1.18.17ZM176.41 101.37l-4.41 4.68h-.07c-.43-.11-10.51-2.86-11.46-3.45h-.06v-.06c-.14-1.21-3.15-5.7-4.14-7.17l-.36-.54a.342.342 0 0 0-.46-.1c-.41.19-.91 1-.5 2.25a19.166 19.166 0 0 0 1.27 3.44v.06a3.996 3.996 0 0 0 2.65 3.89l-.08.23a4.244 4.244 0 0 1-2.82-4.1v-.07h.15l-.07-.16-.22-.09a20.062 20.062 0 0 1-1.15-3.18c-.46-1.43.13-2.3.63-2.54a.599.599 0 0 1 .79.19c.05.09.18.28.35.54 1.09 1.61 3.94 5.87 4.17 7.22 1.13.6 10.36 3.12 11.27 3.37l4.32-4.54.2.13Z" fill="#26417F"/><path d="m156 100.17.07.16s0 .08-.15 0l-.13-.3.21.14ZM155.78 100.08l.13.3c-.17 0-.53-.2-1.38-.55l-4.17-1.77a.77.77 0 0 0-.85 0 1.084 1.084 0 0 0-.49 1 .68.68 0 0 0 .28.48 2.08 2.08 0 0 0-.47-.2 1.157 1.157 0 0 1-.06-.26 1.32 1.32 0 0 1 .6-1.19 1 1 0 0 1 1.1 0l5.3 2.24.01-.05ZM155.05 102.08l-.1.23-2.49-1.09-3-1.28a1.396 1.396 0 0 1-.32-.18l.12-.22c.088.067.186.121.29.16l3 1.29 2.5 1.09ZM154.89 104.91l-.1.22s-3.63-1.72-5.93-2.79l.12-.22c2.31 1.07 5.87 2.77 5.91 2.79ZM154.18 107.2l-.11.23-4.83-2.29.08-.23c2.16 1 4.82 2.27 4.86 2.29Z" fill="#26417F"/><path d="m149.32 104.91-.08.23-.83-.39c.296-.006.591.041.87.14l.04.02ZM149.3 99.54l-.12.22a1.124 1.124 0 0 1-.32-.41c.154.046.302.11.44.19ZM149 102.12l-.12.22-.27-.13-.6-.27-.23-.11c.301-.03.604.018.88.14l.34.15Z" fill="#26417F"/><path d="m149 102.12-.34-.15c.119.037.233.088.34.15ZM148.83 99.34c.073.16.182.3.32.41a1.484 1.484 0 0 0-1.54-.07 1.002 1.002 0 0 0-.48.9 1.415 1.415 0 0 0 1 1.13l.55.26a1.738 1.738 0 0 0-.88-.14 1.62 1.62 0 0 1-.594-.505 1.622 1.622 0 0 1-.286-.725 1.25 1.25 0 0 1 .59-1.13 1.599 1.599 0 0 1 1.32-.13ZM149.27 104.89a2.45 2.45 0 0 0-.87-.14l-.73-.33a1.69 1.69 0 0 1-1.11-1.32 1.147 1.147 0 0 1 .136-.61c.1-.188.251-.343.434-.45.19-.12.407-.192.63-.21l.23.11.6.27a1.437 1.437 0 0 0-1.33 0 .929.929 0 0 0-.45.84 1.436 1.436 0 0 0 1 1.1l1.46.74Z" fill="#26417F"/><path d="M148.55 113h28.38l6.64 9.44 66.8.19v9.82l-109.32-.19v-18.98l7.5-.28Z" fill="#E4811B"/><path d="M141.05 131.61v73.44h109.32v-73.44" fill="#FDCB29"/><path d="M205.92 193.16s27.91-2 39.41-4.58c4.2-1.28 10.91-1.94 17.7-8.76v11.56s-11 6-21.8 8.16c-8.25 1.68-26.1 3.94-35.6 3.67 0-2.21.29-10.05.29-10.05Z" fill="#61D3BA"/><path d="M77.47 92.92 74.54 98s12.27 12.38 27.35 9.75c9.61-2.14 10.71-8.59 10-9.31-.71-.72-19.64 9.02-34.42-5.52Z" fill="#3571FA"/><path d="M101.89 107.78s12 9.5 22.82 2.54c7.4-4.72 9.06-10.27 9.06-10.27L131.92 99s-8.37 14.86-26.63 7.73a13.538 13.538 0 0 0-3.4 1.05Z" fill="#3571FA"/><path d="M111.85 98.47a8.12 8.12 0 0 0-10-3.12c-3.15 1.77-3.58 4.45-3.41 5.61.81 0 2.17-.14 2.17-.14s1.5-5.36 8.18-1.63c-.25.63 3.06-.72 3.06-.72Z" fill="#13286A"/><path d="M143.89 122.72v10.91s-15.6 4-24.35 15.81l-.28-12.58s10.24-11.6 24.63-14.14Z" fill="#61D3BA"/><path d="M119.54 149.44s.61 12.8 21.81 16.33V154.6s-17.1-.74-18.67-8.81c-2.12 2.35-3.14 3.65-3.14 3.65Z" fill="#E0E2E3"/><path d="M214.75 164.92v8.51s37.66-1.49 44.59-7.83v-7.49s-14.21 6.56-44.59 6.81Z" fill="#3571FA"/><path d="m126.08 176.17 6.2 6.1s-5.7 5-7.5 6.42c-3.69-3-5.24-4.51-5.24-4.51s2.83-3.24 6.54-8.01Z" stroke="#FDCB29" stroke-miterlimit="10"/><path d="m293.31 131 2.48 5.84s-4.11 4.22-9.55 3.58c-2-4.28-2.76-6.34-2.76-6.34a16.627 16.627 0 0 0 9.83-3.08Z" stroke="#26417F" stroke-width=".5" stroke-miterlimit="10"/><path d="m254.72 119.32 5.67-6.59s5.39 5.35 6.91 7.06c-2.72 3.88-4.16 5.52-4.16 5.52s-3.42-2.6-8.42-5.99Z" fill="#FDCB29"/></svg>