<svg viewBox="0 0 400 300" fill="none" xmlns="http://www.w3.org/2000/svg"><path d="M143.42 247.94v.952h4.606v-.952h-4.606Zm4.298 0v.238c-.56 4.354-2.408 7.798-4.648 9.296.224.182.546.56.714.812 2.422-1.792 4.284-5.236 4.928-10.164l-.644-.224-.168.042h-.182Zm-4.27 2.464c1.596 2.072 3.416 4.9 4.172 6.664l.826-.7c-.756-1.722-2.632-4.48-4.242-6.538l-.756.574Zm6.958-1.946v.966h4.76v-.966h-4.76Zm-.028-2.1c-.28 2.044-.784 3.99-1.68 5.236.238.14.672.434.854.602.91-1.372 1.484-3.458 1.82-5.712l-.994-.126Zm4.55 2.1v.168c-.168.938-.476 2.1-.742 2.814l.826.266c.35-.77.7-2.016.952-3.094l-.686-.196-.182.042h-.168Zm-2.492 3.206-.868.14c.546 3.486 1.652 6.174 4.032 7.42.154-.28.462-.686.7-.896-2.254-1.022-3.374-3.556-3.864-6.664Zm-.882-1.4v.98c0 2.058-.266 5.068-3.836 7.28.238.168.574.49.742.728 3.78-2.38 4.088-5.684 4.088-7.994v-.994h-.994Zm14.77-1.946h2.254v6.272c0 .168-.056.224-.224.224-.182 0-.714.014-1.33-.014.126.238.266.644.322.896.84 0 1.4-.014 1.736-.154.364-.168.462-.448.462-.938v-7.196h-4.158v9.982h.938v-9.072Zm-5.334 7.574c1.106-.322 2.576-.756 3.948-1.162l-.126-.896c-.756.21-1.512.42-2.212.616v-6.118c.91-.35 1.876-.77 2.632-1.218l-.77-.77c-.518.406-1.414.882-2.24 1.26l-.588-.168v7.266c-.336.098-.644.168-.91.238l.266.952Zm-.574-6.874c-.392-.7-1.316-1.666-2.142-2.324l-.798.532c.812.686 1.708 1.68 2.072 2.38l.868-.588Zm-.322 2.842h-2.688v.98h1.722v3.612a20.73 20.73 0 0 1-1.89 1.61l.546.966a39.385 39.385 0 0 0 1.89-1.82c.868 1.106 2.142 1.61 3.99 1.68 1.582.056 4.606.028 6.188-.042.042-.294.21-.756.336-.98-1.708.112-4.97.154-6.552.084-1.638-.07-2.884-.546-3.542-1.596v-4.494Zm14.532-5.516c-.812 2.114-2.17 4.2-3.584 5.53.196.224.49.77.588 1.008a14.593 14.593 0 0 0 1.54-1.82v8.162h.994v-9.66a22.498 22.498 0 0 0 1.442-2.912l-.98-.308Zm1.974 6.86v-2.072h2.492v1.442c0 .21 0 .42-.014.63H176.6Zm6.09-2.072v2.072h-2.59c.014-.21.014-.42.014-.63v-1.442h2.576Zm.994 2.954v-3.836h-3.57v-1.372h4.032v-.952h-4.032v-1.484h-1.022v1.484h-3.864v.952h3.864v1.372h-3.458v3.836h3.388c-.098.77-.308 1.512-.756 2.156-.742-.518-1.344-1.134-1.764-1.862l-.868.28a7.497 7.497 0 0 0 2.03 2.268c-.658.588-1.582 1.064-2.954 1.414.224.21.518.644.63.868 1.456-.434 2.464-1.022 3.164-1.708 1.428.854 3.178 1.4 5.152 1.694.14-.308.392-.714.616-.938-1.988-.238-3.752-.714-5.152-1.484.56-.812.812-1.722.924-2.688h3.64Zm8.624-.182v-2.324h3.766v2.324h-3.766Zm-4.438 0c.042-.518.056-1.036.056-1.498v-.826h3.346v2.324h-3.402Zm3.402-5.544v2.24h-3.346v-2.24h3.346Zm4.802 2.24h-3.766v-2.24h3.766v2.24Zm1.022-3.234h-10.192v5.04c0 1.946-.14 4.41-1.68 6.146.224.126.644.476.798.686 1.064-1.19 1.54-2.786 1.75-4.34h3.5v4.13h1.036v-4.13h3.766v2.842c0 .266-.098.35-.378.364-.252 0-1.204.014-2.184-.028.14.28.308.728.35 1.008 1.316.014 2.128 0 2.604-.168.448-.182.63-.49.63-1.162v-10.388Zm14.784 6.272c-.714-.616-2.058-1.414-3.248-2.058a30.685 30.685 0 0 0 3.094-2.814l-.952-.504c-.672.826-1.764 1.862-2.73 2.674a74.164 74.164 0 0 1-.112-3.724h-8.218v1.05h7.196c.154 6.482.798 10.5 3.752 10.5.994 0 1.316-.686 1.456-2.884-.238-.098-.56-.364-.798-.602-.056 1.568-.21 2.422-.602 2.422-1.512.014-2.24-2.044-2.562-5.362 1.19.672 2.492 1.498 3.164 2.114l.56-.812Zm13.006-1.064-.014.154c-.182 2.632-.378 3.738-.686 4.018-.154.112-.308.126-.588.126-.336 0-1.246 0-2.128-.084.21.28.336.7.364 1.008.854.042 1.694.056 2.142.028.49-.028.798-.112 1.092-.42.42-.42.63-1.554.84-4.354a5.39 5.39 0 0 0 .042-.476h-1.064Zm-6.314-6.188v12.81h1.064v-12.81h-1.064Zm4.186 1.078c.896.588 2.058 1.442 2.618 2.002l.658-.812c-.588-.518-1.778-1.344-2.66-1.89l-.616.7Zm-9.198 5.11v.994h11.774v-.994H213.56Zm.91-3.78v1.008h8.4v3.43h1.05v-4.438h-9.45Z" fill="#9BA2AD"/><path d="m175.73 76.35 2.87 121.41-11.77-2.38h-2.05l-.78-74.03s-34.27-23-38.54-25.93a14.668 14.668 0 0 0-2.57-1.23l52.67-17.88.17.04Z" fill="#E0E2E3"/><path d="m175.56 76.31-52.67 17.88a17.12 17.12 0 0 0-9-.7v.05l-.8-.62s1.4-4.12 8.84-3.12l50.46-15.62 3.17 2.13ZM164.78 195.4l.27 26-5.51.24-2.45-95.11-39.85-30.42 5.65-1.92c.895.325 1.756.737 2.57 1.23 4.27 2.91 38.54 25.93 38.54 25.93l.78 74.05Z" fill="#E0E2E3"/><path d="m159.54 221.63.03 1.03-42.53-39.6-3.99-90.14.8.62 3.39 2.57 39.85 30.41 2.45 95.11Z" fill="#4F87FD"/><path d="m122.89 94.19-5.65 1.92-3.39-2.57v-.05a17.122 17.122 0 0 1 9.04.7Z" fill="#E0E2E3"/><path d="m113.05 92.92 3.99 90.14 42.53 39.6-.03-1.03-2.45-95.11-39.85-30.41-3.39-2.57-.8-.62ZM113.05 92.92s1.4-4.12 8.84-3.12l50.46-15.62h.05" stroke="#26417F" stroke-width=".25" stroke-miterlimit="10"/><path d="M113.89 93.49a17.122 17.122 0 0 1 9 .7c.894.326 1.755.737 2.57 1.23 4.27 2.91 38.54 25.93 38.54 25.93l.78 74.05.27 26-5.51.24h-.75" stroke="#26417F" stroke-width=".25" stroke-miterlimit="10"/><path d="m117.17 96.14.07-.03 5.65-1.92 52.67-17.88-3.21-2.13-.05-.04M175.73 76.35l2.87 121.41-11.77-2.38" stroke="#26417F" stroke-width=".25" stroke-miterlimit="10"/><path d="m161.34 71.82.08.12-.17.13a.636.636 0 0 1-.09-.14l.18-.11ZM151.25 75.85l.19-.08v.06l-.19.02Z" fill="#26417F"/><path d="M151.56 92.84c-1.49.36-1.66.39-5.8 1.61a1.03 1.03 0 0 0 .07-.25c4-1.17 4.2-1.21 5.67-1.56 15.06-4.28 15.94-5.5 14.57-11.17a50.294 50.294 0 0 0-4.82-9.4l.17-.13a52.118 52.118 0 0 1 4.85 9.46c1.39 5.77.43 7.15-14.71 11.44Z" fill="#26417F"/><path d="M145.6 94.27c.079-.015.156-.039.23-.07a.988.988 0 0 1-.07.25c-.09 0-.2 0-.3.09a.864.864 0 0 0 .14-.27ZM146.5 91.37a1.381 1.381 0 0 0-1.42-.38 1.1 1.1 0 0 0 .6-.26 1.5 1.5 0 0 1 1 .49 1.047 1.047 0 0 1 .25 1.1c-.11.27-.45.73-1.53.84h-.23a1.837 1.837 0 0 0-.85-.1l1.05-.14c.73-.06 1.2-.31 1.36-.7a.855.855 0 0 0-.23-.85Z" fill="#26417F"/><path d="M145.68 90.73a1.1 1.1 0 0 1-.6.26l-.05-.21c.212-.055.432-.072.65-.05Z" fill="#26417F"/><path d="m144 95 1.48-.43a2.17 2.17 0 0 1-1.5.7l-1.08.09h-.15l.39-.09.86-.27Z" fill="#FFDFD4"/><path d="M145.14 93.18c-.27 0-.58.08-.9.1v-.2h.06c.284-.032.572.002.84.1ZM145.83 94c.01.07.01.14 0 .21a1.186 1.186 0 0 1-.23.07c.01-.083.01-.167 0-.25-.05-.43-.53-.81-1.38-.73.32 0 .63-.06.9-.1a1.001 1.001 0 0 1 .71.8ZM145.76 94.45a2.005 2.005 0 0 1-1.78 1h-.53a1.532 1.532 0 0 0-.57-.15l1.08-.09a2.17 2.17 0 0 0 1.5-.7c.1-.01.21-.03.3-.06Z" fill="#26417F"/><path d="M142.75 95.54h-.31v-.16l.22-.05h.24c.198.013.392.064.57.15-.25.03-.47.05-.72.06ZM142.37 87.64l11.69-5-2.81-6.83h.22l2.87 7h-.1l-11.87 5-.26-.11.14-.18.12.12ZM142.42 95.4v.16l-.91.06c.36-.08.67-.15.91-.22ZM142.41 95.36c-.24.07-.55.14-.89.22h-1.14c.39-.08.76-.18 1.09-.26l.94.04Z" fill="#26417F"/><path d="m141.48 95.41 1.58-.4.86-.24 1.68-.5a.844.844 0 0 1-.14.27L144 95l-.86.26-.39.09h-.31l-.96.06Z" fill="#FFDFD4"/><path d="m142.21 87.57-.14.18-.21-.08c.053-.055.1-.115.14-.18l.21.08Z" fill="#26417F"/><path d="m139.84 86.84.2-.14 2 .79c-.04.065-.087.125-.14.18l-2.06-.83ZM141.48 95.41c-.33.08-.7.18-1.09.26-1.09 0-1.84.06-1.86.06v-.21s1.3-.02 2.95-.11Z" fill="#FFDFD4"/><path d="M140.79 41v.2h-.07a1.709 1.709 0 0 0-.07-.22l.14.02ZM144.24 93.29c-1.19.13-2.63.26-3.88.35l-3 .22v-.22s4.1-.25 6.86-.56v.2l.02.01Z" fill="#26417F"/><path d="M142.1 86.34a.922.922 0 0 1-.1 1.15l-2-.79.85-.58a1 1 0 0 1 1.25.22Z" fill="#FFDFD4"/><path d="M142.27 86.2a1.081 1.081 0 0 1-.06 1.37l-.21-.08a.916.916 0 0 0 .1-1.15 1 1 0 0 0-1.21-.22l-.85.58-.22-.1 1-.65a1.221 1.221 0 0 1 1.45.25Z" fill="#26417F"/><path d="m142.37 87.87 11.87-5h.1l-2.87-7a20.399 20.399 0 0 0 9.78-3.75 50.231 50.231 0 0 1 4.82 9.4c1.37 5.67.49 6.89-14.57 11.17-1.47.35-1.65.39-5.67 1.56.01-.07.01-.14 0-.21a.999.999 0 0 0-.69-.81h.23c1.08-.11 1.42-.57 1.53-.84a1.046 1.046 0 0 0-.25-1.1 1.5 1.5 0 0 0-1-.49.863.863 0 0 0 .29-.39 1.404 1.404 0 0 0-.24-1.33 1 1 0 0 0-.92-.37c-.49 0-1.72.22-2.9.4-.8.13-1.68.26-2.19.32A7.78 7.78 0 0 0 142 87.9c.043-.047.084-.098.12-.15l.26.11-.01.01Z" fill="#FFDFD4"/><path d="M139.84 86.84a1.6 1.6 0 0 1-.23-.09l.21-.15.22.1-.2.14ZM145.78 90.27a1.23 1.23 0 0 0-.22-1.12.761.761 0 0 0-.72-.3c-.5 0-1.72.22-2.91.4-1.69.27-2.34.36-2.6.36-.26 0-.16 0-.18-.08a.137.137 0 0 1 .011-.103.141.141 0 0 1 .079-.067l.26-.12a8.394 8.394 0 0 0 2.29-1.49l.07-.08.21.08a1.59 1.59 0 0 1-.12.15 7.807 7.807 0 0 1-2.23 1.46c.51-.06 1.39-.19 2.19-.32 1.18-.18 2.41-.37 2.9-.4a1.001 1.001 0 0 1 .92.37 1.412 1.412 0 0 1 .24 1.33.878.878 0 0 1-.29.39 1.872 1.872 0 0 0-.65 0 .87.87 0 0 0 .75-.46ZM138.65 91.44a52.41 52.41 0 0 0 6.38-.66l.05.21c-1.32.258-2.656.429-4 .51-1.27.11-2.31.16-2.4.16l-.03-.22Z" fill="#26417F"/><path d="M135.94 37.05c.13-.443.233-.894.31-1.35.785.44 1.505.985 2.14 1.62a9.355 9.355 0 0 1 2.23 3.68c-4.8-1-4.68-3.8-4.67-3.92l-.01-.03Z" fill="#13286A"/><path d="m137.87 88 1.74-1.23c.074.036.151.066.23.09L138.15 88h-.28Z" fill="#26417F"/><path d="M140.43 94.18s-1.8.41-3.89.77v-.22c2.09-.36 3.85-.76 3.86-.76l.03.21Z" fill="#FFDFD4"/><path d="m137.65 88.4.5-.36h.07c.12 0 .13.1.12.14-.01.04-.01.14-.69.22ZM138.15 88l-.5.36h-.43c.12-.07.23-.16.35-.24h.17-.09c.067-.064.14-.121.22-.17h.06l.22.05ZM136.5 95c-.12 0-.23 0-.35.06a1.71 1.71 0 0 1 .35-.06ZM136.44 94.74a1.285 1.285 0 0 1-.27.05l.27-.05Z" fill="#26417F"/><path d="m143.06 95-1.58.4c-1.65.09-2.93.11-2.95.11v.21s.77 0 1.86-.06c-1 .24-2.1.49-3.18.69-1.08.2-1.56 0-1.69-.19a.552.552 0 0 1-.08-.59 1.001 1.001 0 0 1 .67-.56c.12 0 .23 0 .35-.06 2.09-.36 3.88-.77 3.89-.77l-.05-.21v-.33c1.25-.09 2.69-.22 3.88-.35.85-.08 1.33.3 1.38.73.01.083.01.167 0 .25l-1.68.5-.82.23Z" fill="#FFDFD4"/><path d="M135.52 95.12c.183-.166.407-.28.65-.33.091-.007.182-.024.27-.05h.08v.22a1.7 1.7 0 0 0-.35.06l-.65.1ZM136.05 35.53h.22v.15l-.21-.11a.52.52 0 0 0-.01-.04ZM140.69 41.19c-3.84-.73-4.71-2.7-4.9-3.64.06-.18.11-.35.15-.5 0 .12-.13 3 4.67 3.92.031.071.058.145.08.22Z" fill="#26417F"/><path d="M135.79 37.55a2.38 2.38 0 0 1 0-.52h.2c-.09.17-.14.34-.2.52Z" fill="#26417F"/><path d="M135.31 87.09c-.61-.44-.85-.92-.64-1.34a.999.999 0 0 1 1.14-.49c.45.14 2.21.85 3.8 1.49L137.87 88a8.16 8.16 0 0 1-2.56-.91Z" fill="#FFDFD4"/><path d="M135.74 37c.14-.471.243-.953.31-1.44l.21.11c-.077.456-.18.907-.31 1.35l-.21-.02ZM135.36 96.31a.807.807 0 0 1-.13-.82c.068-.143.167-.27.29-.37l.59-.1a.997.997 0 0 0-.67.56.55.55 0 0 0 .08.59c.13.16.57.48 1.69.19s2.21-.45 3.18-.69h1.14c-1.15.29-2.77.66-4.28.95a3.343 3.343 0 0 1-.85.12 1.3 1.3 0 0 1-1.04-.43Z" fill="#26417F"/><path d="m135.18 90.14-3.34-.55c.017-.069.041-.136.07-.2l3.26.54c.19-.15 1.05-.77 2.05-1.49h.43c-1.25.9-2.36 1.71-2.39 1.72l-.08-.02ZM134.21 93.13v-.2c2.79-.37 6.85-1.09 6.89-1.09v.21c-.03.01-4.1.72-6.89 1.08Z" fill="#FFDFD4"/><path d="M135.52 88.38c-1.22.11-2.48.21-3 .3a1 1 0 0 0-.83.59.272.272 0 0 0 0 .09l-8.87-1.48.57-5.79a12.98 12.98 0 0 0 2-.45h.06l1.22-7.09h-.21l-1.2 7c-.654.199-1.323.346-2 .44h-.06c-6 .82-11.73-2.13-12.46-2.53a47.017 47.017 0 0 1 6.91-11.94c4.3-5.36 11.61-11.68 22.2-11.68h.56c14 .27 21 14.33 21.57 15.47a19.92 19.92 0 0 1-11.53 4.46l-.84-5.59h-.21l.87 5.77h.09l.89-.06 2.81 6.83-11.69 5-.16-.07a1.081 1.081 0 0 0 .06-1.37 1.219 1.219 0 0 0-1.49-.25l-1 .65c-1.62-.65-3.48-1.39-3.95-1.54a1.209 1.209 0 0 0-1.39.6c-.12.24-.3.89.71 1.6a7.774 7.774 0 0 0 2.46.89h-.08c-.53.03-1.28.09-2.01.15Z" fill="#61D3BA"/><path d="M135 95c-1.23.14-1.86-.32-1.93-.8-.07-.48.31-.91 1.11-1h.07c2.81-.36 6.86-1.07 6.91-1.08v-.55a30.388 30.388 0 0 0 4-.51 1.38 1.38 0 0 1 1.42.38.853.853 0 0 1 .2.87c-.16.39-.63.64-1.36.7l-1.05.14h-.06c-2.76.31-6.81.55-6.86.56v.22l3-.22v.33s-1.77.4-3.86.76h-.08l-.27.05L135 95Z" fill="#FFDFD4"/><path d="M134.48 85.66a1.21 1.21 0 0 1 1.39-.6c.47.15 2.33.89 3.95 1.54l-.21.15c-1.59-.64-3.35-1.35-3.8-1.49a1 1 0 0 0-1.14.49c-.21.42 0 .9.64 1.34a8.152 8.152 0 0 0 2.56.89 1.292 1.292 0 0 0-.22.17 7.774 7.774 0 0 1-2.46-.89c-1.01-.71-.83-1.36-.71-1.6ZM134.21 93.13h-.07l-.81.09c.256-.175.552-.281.86-.31l.02.22Z" fill="#26417F"/><path d="M132.58 93.31c.163.009.327.009.49 0h.26a1.003 1.003 0 0 0-.51 1c.06.54.62 1 1.69 1h.49l.52-.07c-.123.1-.222.227-.29.37a.812.812 0 0 0 .13.82 1.302 1.302 0 0 0 1 .38c.287-.003.573-.043.85-.12 1.51-.29 3.13-.66 4.28-.95l.91-.06H142.71a1.12 1.12 0 0 1 .9.37.586.586 0 0 1 0 .6c-.09.17-.41.57-1.52.57h-.06c-2.73.12-5.87.06-5.9.06h-.84c-6-.28-6.09-.28-7.71-.28h-.09c-15.37-.6-16.82-1.88-16.82-7.58a40.552 40.552 0 0 1 1.93-8.74 22.914 22.914 0 0 0 8.36 1.76 16.904 16.904 0 0 0 2.12-.14l-.58 5.94 9 1.49a1.302 1.302 0 0 0 .17 1.08c.094.14.221.253.37.33-.361.12-.662.374-.84.71a1.056 1.056 0 0 0 0 1.14 1.388 1.388 0 0 0 1.38.32Z" fill="#FFDFD4"/><path d="M133 94.18c.07.48.7.94 1.93.8l1.21-.19a1.38 1.38 0 0 0-.65.33l-.52.07h-.49c-1.07 0-1.63-.48-1.69-1a.998.998 0 0 1 .51-1l.81-.09c-.77.17-1.11.65-1.11 1.08Z" fill="#26417F"/><path d="M139.33 90.18a49.81 49.81 0 0 1-6.43.88h-.06v-.21a51.536 51.536 0 0 0 6.46-.85l.03.18Z" fill="#FFDFD4"/><path d="M133 93.05c-.72.11-1.26 0-1.5-.37a.87.87 0 0 1 0-.91 1.342 1.342 0 0 1 1.14-.7h.23a49.792 49.792 0 0 0 6.43-.88v-.57c.26 0 .91-.09 2.6-.36 1.19-.18 2.41-.36 2.91-.4a.76.76 0 0 1 .72.3 1.23 1.23 0 0 1 .22 1.12.866.866 0 0 1-.75.51c-2.112.35-4.242.57-6.38.66v.22c.09 0 1.13 0 2.4-.16v.34s-4.1.72-6.89 1.09l-1.13.11ZM131.92 89.36a.772.772 0 0 1 .66-.47c.49-.09 1.74-.19 2.95-.29.74-.06 1.29-.11 1.69-.16-1 .72-1.86 1.34-2.05 1.49l-3.26-.54s.01-.02.01-.03Z" fill="#FFDFD4"/><path d="M132.77 91.06h-.1c-.17 0-.337-.037-.49-.11.162-.064.335-.098.51-.1h.16v.21h-.08ZM132.58 88.89a.771.771 0 0 0-.66.47h-.21a.272.272 0 0 1 0-.09 1.003 1.003 0 0 1 .83-.59c.48-.09 1.74-.19 3-.3.73-.06 1.52-.12 2-.18-.12.08-.23.17-.35.24-.4 0-.95.1-1.69.16-1.18.1-2.43.2-2.92.29ZM131.84 89.59h-.2a.511.511 0 0 1 .06-.19h.21a1.083 1.083 0 0 0-.07.19Z" fill="#26417F"/><path d="M132.69 90.86a.821.821 0 0 1-.7-.35 1.117 1.117 0 0 1-.15-.92l3.34.55 2.39-1.72c.68-.08.68-.12.69-.2.01-.08 0-.11-.12-.14h-.07l1.69-1.2 2 .83-.07.08a8.396 8.396 0 0 1-2.29 1.49l-.26.12a.141.141 0 0 0-.079.067.137.137 0 0 0-.011.103s0 .08.18.08v.36c-2.12.428-4.264.721-6.42.88h-.19l.07-.03Z" fill="#FFDFD4"/><path d="M131.7 89.36a.512.512 0 0 0-.06.19l-9-1.49.58-5.94h.23l-.57 5.79 8.82 1.45ZM132 90.51a.828.828 0 0 0 .7.35 1.453 1.453 0 0 0-.51.1 1.003 1.003 0 0 1-.37-.33 1.31 1.31 0 0 1-.17-1.08h.2a1.13 1.13 0 0 0 .15.96Z" fill="#26417F"/><path d="M131.54 92.68c.24.35.78.48 1.5.37l1.15-.12a1.823 1.823 0 0 0-.86.31h-.26a4.603 4.603 0 0 1-.49 0 1.388 1.388 0 0 1-1.21-.5 1.065 1.065 0 0 1 0-1.14c.179-.336.48-.59.84-.71.154.073.321.11.49.11a1.35 1.35 0 0 0-1.14.7.877.877 0 0 0-.02.98Z" fill="#26417F"/><path d="M129.47 42.48a2.002 2.002 0 0 0-2.14 0 2.187 2.187 0 0 0-.91 2 2.701 2.701 0 0 0 1.64 2.22 2.525 2.525 0 0 1-1.5 1.56 4.38 4.38 0 0 1-3.25 0 9.29 9.29 0 0 1-1-4.23v-.07a9.387 9.387 0 0 1 9.4-9.34h.06a9.37 9.37 0 0 1 4.23.97 9.834 9.834 0 0 1-.31 1.44c-.59 2-2.16 5.45-6 5.45h-.22Z" fill="#13286A"/><path d="m125.26 81.45 1.2-7h.21l-1.22 7.09h-.06a12.99 12.99 0 0 1-2 .45v-.18h-.15a13.004 13.004 0 0 0 2.02-.36ZM135.79 37.55c-.7 2.11-2.36 5.14-6.11 5.14h-.28a1.9 1.9 0 0 0-2-.06 2.002 2.002 0 0 0-.81 1.8 2.49 2.49 0 0 0 1.6 2.08h.08v.08a2.678 2.678 0 0 1-1.66 1.78 4.59 4.59 0 0 1-1.71.32 4.189 4.189 0 0 1-1.45-.24c-.06-.1-.11-.21-.16-.31a4.38 4.38 0 0 0 3.25 0 2.519 2.519 0 0 0 1.5-1.56 2.715 2.715 0 0 1-1.64-2.22 2.187 2.187 0 0 1 .91-2 2 2 0 0 1 2.14 0h.21c3.89 0 5.46-3.4 6-5.45.014.218.057.434.13.64Z" fill="#26417F"/><path d="M129.68 42.69c3.75 0 5.41-3 6.11-5.14.19.94 1.06 2.91 4.9 3.64a9.1 9.1 0 0 1 .41 2.8 9.411 9.411 0 0 1-9.4 9.34h-.06a9.337 9.337 0 0 1-6.63-2.8 8.87 8.87 0 0 1-1.54-2c.465.165.956.246 1.45.24a4.593 4.593 0 0 0 1.71-.32 2.664 2.664 0 0 0 1.66-1.78v-.08h-.08a2.493 2.493 0 0 1-1.6-2.08 2.002 2.002 0 0 1 .81-1.8 1.9 1.9 0 0 1 2 .06h.28l-.02-.08Z" fill="#FFDFD4"/><path d="M123.41 81.91v.18h-.23v-.22h.06l.17.04ZM123.31 48.18c0 .1.1.21.16.31l-.29-.13.11-.19.02.01Z" fill="#26417F"/><path d="m123.18 48.36.29.13c.415.736.934 1.41 1.54 2a9.338 9.338 0 0 0 6.63 2.8h.06a9.41 9.41 0 0 0 9.4-9.29 9.1 9.1 0 0 0-.41-2.8h.07V41h-.17a9.365 9.365 0 0 0-2.23-3.65 9.82 9.82 0 0 0-2.14-1.62v-.15H136a.3.3 0 0 1 0 .06 9.372 9.372 0 0 0-4.28-1.05h-.06a9.39 9.39 0 0 0-9.4 9.34V44a9.277 9.277 0 0 0 1 4.23l-.08.13Zm15.28 2.41a9.571 9.571 0 0 1-6.76 2.77h-.06a9.612 9.612 0 0 1-9.58-9.64 9.61 9.61 0 0 1 9.64-9.58h.06a9.63 9.63 0 0 1 9.55 9.68 9.597 9.597 0 0 1-2.85 6.77ZM112.52 80.32l.21.08a.335.335 0 0 0 0 .1l-.2-.09a.907.907 0 0 0-.01-.09Z" fill="#26417F"/><path d="M117.65 67.43a47.016 47.016 0 0 0-6.91 11.94c.73.4 6.47 3.35 12.46 2.53v.22c-.703.091-1.411.138-2.12.14a22.914 22.914 0 0 1-8.36-1.76.418.418 0 0 1 0-.1l-.21-.08c.002.03.002.06 0 .09a17.28 17.28 0 0 1-1.94-.91h-.07v-.09a47.474 47.474 0 0 1 7-12.07c4.32-5.4 11.69-11.76 22.37-11.76h.56c14.7.28 21.72 15.51 21.8 15.66v.07c-.242.217-.496.42-.76.61l-.08-.12-.18.11c.023.05.054.098.09.14a20.399 20.399 0 0 1-9.78 3.75v-.06l-.19.08-.89.06h-.09l-.87-5.77h.21l.84 5.59A19.92 19.92 0 0 0 162 71.23c-.54-1.14-7.53-15.2-21.57-15.47h-.56c-10.61-.01-17.87 6.31-22.22 11.67Z" fill="#26417F"/><path d="M142.12 97.08h.06c1.11 0 1.43-.4 1.52-.57a.587.587 0 0 0 0-.6 1.124 1.124 0 0 0-.9-.37c.23 0 .47 0 .7-.06.141.076.267.177.37.3a.785.785 0 0 1 .07.82c-.24.45-.87.7-1.77.69-1.4.07-2.91.08-4.06.08h-2.69c-6.09-.29-6.09-.29-7.79-.29-15.57-.6-17-1.92-17-7.8.338-3 .991-5.957 1.95-8.82l.2.09a40.552 40.552 0 0 0-1.93 8.74c0 5.7 1.45 7 16.82 7.58h.09c1.62 0 1.71 0 7.71.28h.84s3.08.05 5.81-.07Z" fill="#26417F"/><path d="m113.89 112 .17 3.74s-6.64.89-8.7 3.87c-1.88 2.51-1 8.49.61 10.38-4.52 0-8.12-7.18-3.61-12.15 2.5-3.47 10.22-5.59 11.53-5.84Z" fill="#28407D"/><path d="M100.34 121.78a30 30 0 0 0-.72 9.14c1.5 5.83 9.74 5.86 11.38 5.57 1.64-.29 4-1.39 9.68-2.15 5.45-.32 12.06-.6 13.55-.68v-7.19s-9.3.35-16.59 1.32c-4.57.61-7.48 1.85-9.53 2.21-7.37.82-8.02-5.79-7.77-8.22Z" fill="#61D3BA"/><path d="M281.72 83.13a6.997 6.997 0 0 1-3.51 4.8c-.58 3.15.13 9.6-5.91 15.9l-27.47-.55a28.196 28.196 0 0 0 8.7-5.92l14.73-13.09a30.898 30.898 0 0 1 13.46-1.14Z" fill="#28407D"/><path d="m244.83 103.28 27.47.55c-8.72 5.59-18.58 3.67-27.47-.55Z" fill="#28407D"/><path d="M260 70.16s8 10.09 8.3 14.1c-5.51 1.77-10 5.13-12.07 9.76a19.93 19.93 0 0 1-2.67 3.32c-2.67-5.44-22.77-24.22-22.77-24.22L260 70.16Z" fill="#61D3BA"/><path d="m268.26 84.27-14.73 13.09a19.895 19.895 0 0 0 2.66-3.36c2.03-4.6 6.56-8 12.07-9.73Z" fill="#28407D"/><path d="M244.82 103.28c8.89 4.22 18.75 6.14 27.47.55-13.29 25.79-47.5 12.74-47.5 12.74l-2.64-28.44c4.68 3.39 13.11 10.6 22.67 15.15Z" fill="#4F87FD"/><path d="m277.48 202.22-.48 27.65-9.75-.15v-.28l.22-13.71h-2.74v-.23l2.79.05 4.5-7.45c.05-.49.55-5.87 2.62-5.87h.08l2.76-.01Zm-.67 27.41.43-27.18h-2.56c-1.91 0-2.38 5.63-2.38 5.68v.06l-4.54 7.5-.22 13.84 9.27.1Z" fill="#26417F"/><path d="m277.24 202.45-.43 27.18-9.29-.14.22-13.84 4.54-7.5v-.06c0-.05.47-5.68 2.38-5.68h.07l2.51.04ZM267.51 215.73l-.22 13.71h-.08l-2.2-.06-.24-13.7 2.74.05Z" fill="#FBC623"/><path d="m267.21 229.44-.01.23-2.19-.06v-.23l2.2.06ZM265 229.61v2.1h-.13l-102.25-7.43c.231-.039.458-.096.68-.17l101.46 7.36v-1.86h.24Z" fill="#26417F"/><path d="M265.01 229.38v.23l-.23-.01-.01-.23.24.01Z" fill="#26417F"/><path d="m264.77 215.68.24 13.7-.24-.01-.23-13.69H264.77Z" fill="#26417F"/><path d="M264.78 229.6v1.86l-101.44-7.36c5.1-1.68 19.36-12.44 20.17-13l80.92-1.67.11 6.3.23 13.69v.23l.01-.05Z" fill="#E0E2E3"/><path d="m264.77 229.37.01.23h-.04l.01-.23h.02ZM264.76 215.45h-.21v.23h.21v-.23Z" fill="#26417F"/><path d="m264.66 209.26.11 6.19h-.22v.23l-.11-6.3-80.92 1.67.4-.23 27.38-.56.17.15.17-.2 25.51-.52.16.18.18-.15 19.22-.4c.077.073.161.14.25.2l.14-.18 7.65-.16-.09.08Z" fill="#26417F"/><path d="m257.05 209.33-.14.18a2.087 2.087 0 0 1-.25-.2h.34l.05.02ZM257 209.3h-.35c-1.52-1.34-5.78-6-10.25-10.92-4.78-5.26-9.73-10.7-11.88-12.65-2.84-2.58-6.81-3.66-11.48-3.13a28.143 28.143 0 0 0-12.64 5c-2 1.63-21.6 16.43-21.79 16.58l.45-.63c3.29-2.5 19.38-14.66 21.2-16.13a28.34 28.34 0 0 1 12.74-5.04c4.74-.53 8.77.56 11.66 3.18 2.17 2 7.12 7.41 11.89 12.67 4.77 5.26 9.17 10.05 10.45 11.07Z" fill="#26417F"/><path d="m256.66 209.31-19.22.4a48.203 48.203 0 0 0-6.16-5.58c-2.8-2.17-5.86-4.07-7.76-4.07-4.3.62-11.6 9.44-12.21 10.19l-27.38.56a9.42 9.42 0 0 0 2.41-1.77c1.08-1 1.53-1.95 1.43-2.38a.35.35 0 0 0-.25-.26h-.15c.443-.443.74-1.012.85-1.63l.4-.55c.19-.15 19.78-15 21.79-16.58a28.146 28.146 0 0 1 12.64-5c4.67-.53 8.64.55 11.48 3.13 2.15 1.95 7.1 7.39 11.88 12.65 4.47 4.89 8.73 9.58 10.25 10.89Z" fill="#E0E2E3"/><path d="m237.44 209.71-.18.15-.16-.18.34.03Z" fill="#26417F"/><path d="M237.44 209.71h-.3c-2-2.24-10.06-9.43-13.61-9.43-3.94.57-10.78 8.6-11.9 10h-.32c.61-.75 7.91-9.57 12.21-10.19 1.9 0 5 1.9 7.76 4.07a48.104 48.104 0 0 1 6.16 5.55Z" fill="#26417F"/><path d="M211.31 210.25h.32l-.17.2-.17-.15.02-.05ZM197.77 191.39l-.07.11-8.63 12.08-.59.44.14.19-.4.55a.808.808 0 0 0 0-.31.152.152 0 0 0 0-.06l9.23-12.92-6.91-3.62-6.06 9.93h-.26l6.24-10.22h.09l6.77 3.55.2.34.21-.11.04.05Z" fill="#26417F"/><path d="m197.7 191.36.01.02-.21.11-.2-.34.4.21Z" fill="#26417F"/><path d="m192.23 182.15 5.47 9.21-.4-.21-5.07-8.58-10.26 15h-.25l3.84-5.63.16.05.06-.22h-.09l6.54-9.62Z" fill="#26417F"/><path d="m197.43 191.47-9.23 12.92a.427.427 0 0 0-.31-.37.853.853 0 0 0-.59.11 2.862 2.862 0 0 0 .69-2.27.473.473 0 0 0-.39-.35 1.19 1.19 0 0 0-.94.41 1.361 1.361 0 0 0-.16-1.43c-.29-.24-.72-.14-1.16.29-.255.157-.49.345-.7.56l-.45.41-1.08-1.75 1.21-2c1.26.08 2.25.11 2.34.11v-.23s-1 0-2.2-.11l6.06-9.93 6.91 3.63Z" fill="#FBC623"/><path d="m197.3 191.15-6.77-3.55h-.09l-6.24 10.22c-.7-.05-1.49-.11-2.23-.2l10.26-15 5.07 8.53Z" fill="#FBC623"/><path d="m189.07 203.58-.45.63-.14-.19.59-.44ZM188.22 204.45c.02.102.02.208 0 .31l-.41.58c.104-.206.169-.43.19-.66l.2-.29a.142.142 0 0 1 .02.06Z" fill="#26417F"/><path d="m187.81 205.34.41-.58a3.058 3.058 0 0 1-.85 1.63 1.001 1.001 0 0 0-.39.12l.09-.13c.293-.293.536-.63.72-1l.02-.04ZM188.2 204.39l-.2.29a.605.605 0 0 0 0-.19c0-.13-.08-.22-.18-.24-.1-.02-.46-.06-1.23.66l.27-.28.17-.18.27-.32a.852.852 0 0 1 .59-.11.434.434 0 0 1 .31.37Z" fill="#26417F"/><path d="M188 201.86a2.863 2.863 0 0 1-.69 2.27 3.24 3.24 0 0 0-.87.6c.08-.09.18-.17.26-.26l.17-.17a3.006 3.006 0 0 0 .92-2.37.3.3 0 0 0-.21-.2c-.11 0-.51 0-1.28.91a2.6 2.6 0 0 0 .37-.72 1.187 1.187 0 0 1 .94-.41.478.478 0 0 1 .39.35Z" fill="#26417F"/><path d="M188 204.49c.01.063.01.127 0 .19l-1.07 1.5-.62-1 .28-.28c.77-.72 1.13-.7 1.23-.66.1.04.18.12.18.25Z" fill="#FFDFD4"/><path d="m186.93 206.18 1.07-1.5c-.021.23-.086.454-.19.66l-.72 1a.992.992 0 0 1-.15.14l-1.39-.57c.08-.05.14-.11.21-.16l.94.38.19.3.2-.12-.16-.13ZM187.78 201.93a2.99 2.99 0 0 1-.92 2.37l-.17.17c-.08.09-.18.17-.26.26-.08.09-.16.15-.24.24l-.83-1.32a9.37 9.37 0 0 0 .91-1c.77-.91 1.17-.92 1.28-.91.052.009.1.031.141.064.04.034.071.077.089.126ZM187.09 206.35l.72-1c-.185.37-.428.708-.72 1Z" fill="#FFDFD4"/><path d="M187.77 206.66c.1.43-.35 1.39-1.43 2.38a9.402 9.402 0 0 1-2.41 1.77h-.48a9.981 9.981 0 0 0 2.71-1.92c1.08-1 1.46-1.87 1.38-2.17a.096.096 0 0 0-.025-.058.096.096 0 0 0-.055-.032c-.09 0-.24 0-.47.13a3.32 3.32 0 0 0 .38-.37h.15a.35.35 0 0 1 .25.27Z" fill="#26417F"/><path d="M187.54 206.72c.08.3-.3 1.17-1.38 2.17a10.003 10.003 0 0 1-2.71 1.92 11.293 11.293 0 0 1-3.28.22c-.06 0-6.43 1.78-7.94 2.28-13.94 4-16 3.13-17.93-1.91-1.48-4.51-2.83-10.55-3-11.37 3-1.31 7.79-3.06 10.49-2l1.16 8.51v.12l14-2.17 4.09-4.83a1 1 0 0 1 1.14-.17c.33.21.4.64.19 1.2l-.67 1.11c-.314.377-.648.738-1 1.08l-.2.19a.161.161 0 0 0-.044.11c0 .041.016.08.044.11 0 0 .14.08.3.08l-.24.39-.08.12 2.27.92a9.675 9.675 0 0 1-2.09.33v.23c.83-.038 1.652-.176 2.45-.41l2.15.87a4.107 4.107 0 0 1-.93.58 16.019 16.019 0 0 1-4.18 1.11v.22a15.639 15.639 0 0 0 4.25-1.11c.39-.183.753-.419 1.08-.7l1.39.57a6.013 6.013 0 0 0-1.29 1.09l-.05.05a6.454 6.454 0 0 1-1.54 1 6.609 6.609 0 0 1-2.46.49v.23h.11a6.09 6.09 0 0 0 4.06-1.53 11.7 11.7 0 0 0 .89-.76c.14-.11.28-.22.4-.33.23-.12.38-.16.47-.13a.085.085 0 0 1 .037.015.093.093 0 0 1 .028.028.085.085 0 0 1 .015.037.09.09 0 0 1 0 .04Z" fill="#FFDFD4"/><path d="M187.37 206.39a3.404 3.404 0 0 1-.38.37 6.728 6.728 0 0 0-1.29 1.09l-.16-.16.05-.05c.299-.225.583-.469.85-.73.153-.112.299-.233.44-.36h.07c.126-.084.27-.139.42-.16ZM187.3 204.13l-.27.32-.17.18-.27.28-.28.28-.12-.22c.08-.09.17-.16.24-.24.256-.246.55-.449.87-.6Z" fill="#26417F"/><path d="m187.07 206.38-.09.13h-.06c.054-.038.104-.082.15-.13Z" fill="#26417F"/><path d="m186.93 206.18.09.15-.2.12-.19-.3.25.1.05-.07Z" fill="#FFDFD4"/><path d="M187 206.78c-.12.11-.26.22-.4.33-.284.268-.581.521-.89.76a6.692 6.692 0 0 1 1.29-1.09Z" fill="#26417F"/><path d="m186.31 205.19.62 1-.05.07-.25-.1-.48-.8.16-.17Z" fill="#FFDFD4"/><path d="M186.87 206.57c-.14.127-.287.247-.44.36a8.698 8.698 0 0 1-.85.73 6.009 6.009 0 0 1 1.29-1.09ZM186.5 200.49a1.36 1.36 0 0 1 .16 1.43c-.203.18-.391.377-.56.59.53-.76.55-1.58.25-1.84-.3-.26-.51-.06-.86.28-.235.152-.454.33-.65.53l-.49.43-.12-.19.45-.41c.21-.214.445-.403.7-.56.4-.4.83-.5 1.12-.26Z" fill="#26417F"/><path d="M186.66 197.89v.23c-.09 0-1.08 0-2.34-.11l.14-.23c1.23.08 2.18.11 2.2.11Z" fill="#FBC623"/><path d="m186.63 206.15-.94-.38.46-.42.48.8ZM186.35 200.67c.3.26.28 1.08-.25 1.84-.19.23-.51.58-.86.93l-.93-1.5.49-.43c.196-.201.414-.379.65-.53.39-.37.7-.48.9-.31Z" fill="#FFDFD4"/><path d="M186.66 201.92a2.6 2.6 0 0 1-.37.72l-.17-.15c.164-.205.344-.396.54-.57ZM186.19 205l.12.22-.16-.17a.104.104 0 0 1 .04-.05Z" fill="#26417F"/><path d="m186.31 205.19-.16.16-.13-.2.13-.13.16.17ZM186.1 202.51l.17.15a9.37 9.37 0 0 1-.91 1l-.12-.21c.35-.36.67-.71.86-.94Z" fill="#26417F"/><path d="M186.19 205a.106.106 0 0 0 0 .05l-.13.13-.83-1.35.17-.15.79 1.32Z" fill="#FFDFD4"/><path d="m186 205.15.13.2-.46.42-.25-.1.58-.52Z" fill="#26417F"/><path d="m185.19 203.8.83 1.35-.58.52-2-.82c.22-.08.45-.17.67-.27a4.52 4.52 0 0 0 1.08-.78Z" fill="#FFDFD4"/><path d="m185.78 191.74-.06.22-.16-.05.13-.19.09.02Z" fill="#26417F"/><path d="m185.69 191.72-.13.19a19.659 19.659 0 0 1-2.06-.7c-.44-.17-.8-.3-1.12-.39v-.05a27.657 27.657 0 0 0-1.7-3.91h.3a32.43 32.43 0 0 1 1.59 3.75c.367.105.728.232 1.08.38.54.24 1.23.51 2.04.73ZM185.44 205.67l.25.1c-.07 0-.13.11-.21.16l-.24-.1a1.63 1.63 0 0 0 .2-.16ZM185.53 207.71l.16.16a6.09 6.09 0 0 1-4.06 1.53h-.11v-.23a6.617 6.617 0 0 0 2.46-.49 6.479 6.479 0 0 0 1.55-.97Z" fill="#26417F"/><path d="m185.56 191.91-3.84 5.63a10.036 10.036 0 0 1-2.67-.6c-2.29-1.08-5.41-6.22-5.81-6.9.9-1 3.65-3.66 7.37-3.2a27.592 27.592 0 0 1 1.7 3.91v.05c.32.09.68.22 1.12.39.696.281 1.407.521 2.13.72Z" fill="#FFDFD4"/><path d="m185.24 205.83.24.1a4.717 4.717 0 0 1-1.08.7 15.63 15.63 0 0 1-4.25 1.11v-.22a15.96 15.96 0 0 0 4.18-1.11 4.05 4.05 0 0 0 .91-.58Z" fill="#26417F"/><path d="m183.43 204.85 2 .82a1.71 1.71 0 0 1-.2.16l-2.15-.87.35-.11Z" fill="#FFDFD4"/><path d="m185.24 203.44.12.21-.17.15-.12-.2.17-.16Z" fill="#26417F"/><path d="m184.31 201.94.93 1.5-.17.16-.94-1.5.18-.16Z" fill="#FFDFD4"/><path d="m185.07 203.6.12.2c-.323.313-.69.576-1.09.78-.22.1-.45.19-.67.27l-.33-.14c.3-.1.6-.21.91-.34a4.556 4.556 0 0 0 1.06-.77Z" fill="#26417F"/><path d="m184.13 202.1.94 1.5a4.556 4.556 0 0 1-1.06.77c-.31.13-.61.24-.91.34l-2.3-.93.26-.43a8.597 8.597 0 0 0 2.41-.81c.232-.128.453-.275.66-.44Z" fill="#FFDFD4"/><path d="m184.46 197.78-.14.23h-.26l.14-.22.26-.01Z" fill="#26417F"/><path d="m184.32 198-1.21 2-.14-.22 1.09-1.78h.26ZM184.19 201.75l.12.19-.18.16-.12-.21.18-.14Z" fill="#26417F"/><path d="m184.2 197.77-.14.22c-.71-.05-1.49-.11-2.24-.2l.15-.22c.74.09 1.53.15 2.23.2ZM183.11 200l1.08 1.76-.18.14-1-1.68.1-.22Z" fill="#FBC623"/><path d="m184 201.89.12.21a4.705 4.705 0 0 1-.66.44 8.597 8.597 0 0 1-2.41.81l.16-.26a9.01 9.01 0 0 0 2.15-.75c.227-.129.442-.279.64-.45Z" fill="#26417F"/><path d="m184.06 198-1.06 1.77-1.19-1.93v-.05c.76.09 1.54.15 2.25.21ZM183 200.21l1 1.68a4.007 4.007 0 0 1-.64.45 9.01 9.01 0 0 1-2.15.75l.71-1.15c.255-.303.467-.639.63-1l.06-.16.39-.57Z" fill="#FBC623"/><path d="m183.93 210.81-.4.23-.07-.1v-.12l.47-.01Z" fill="#26417F"/><path d="m183.46 210.94.07.1h-.07v-.1ZM183.48 211.05c-.81.61-15.07 11.37-20.17 13l-.7-.06c4-.71 17.59-10.82 20.29-12.84.179-.016.355-.06.52-.13l.06.03Z" fill="#26417F"/><path d="M183.46 210.94v.11c-.165.07-.341.114-.52.13l.45-.33.07.09Z" fill="#26417F"/><path d="m183.46 210.94-.07-.09-.45.33c-.928.126-1.866.156-2.8.09-.38.11-6.44 1.79-7.92 2.27-6 1.7-9.75 2.52-12.32 2.52a5.848 5.848 0 0 1-3.44-.86c0-.18-.07-.27-.07-.28h-.23a8.093 8.093 0 0 1-2.16-3.48c-1.44-4.44-2.77-10.36-3-11.36.066-.041.136-.075.21-.1.18.82 1.53 6.86 3 11.37 2 5 4 5.89 17.93 1.91 1.51-.5 7.88-2.26 7.94-2.28 1.098.087 2.203.013 3.28-.22l.1.18ZM183.1 204.71l.33.14-.34.11-.36-.15.37-.1ZM182.97 199.77l.14.22-.14.22-.13-.22.13-.22Z" fill="#26417F"/><path d="m180.8 203.78 2.3.93-.37.1-2.27-.92.08-.12.24-.39h.28l-.26.4Z" fill="#FFDFD4"/><path d="m182.73 204.81.36.15c-.798.234-1.62.372-2.45.41v-.23a9.675 9.675 0 0 0 2.09-.33ZM182.84 200l.13.22-.35.59a1.86 1.86 0 0 0 .14-.67l.08-.14ZM181.78 197.84l1.19 1.93-.13.22-.14-.22a.807.807 0 0 0-.2-.33l-1-1.6v-.06h.25l.03.06Z" fill="#26417F"/><path d="m182.76 200.12-.36.57c.21-.56.14-1-.19-1.2a1.001 1.001 0 0 0-1.14.17L177 204.5l-14 2.17v-.12l-1.16-8.51.25.11 1.12 8.25 13.76-2.12c.33-.4 3.55-4.19 4.07-4.81a1.176 1.176 0 0 1 1.43-.21.874.874 0 0 1 .17.14l.2.33a.889.889 0 0 1-.08.39ZM182.4 200.7l.36-.57a1.88 1.88 0 0 1-.14.67l-.69 1.14c-.27.32-.56.62-.8.86l.6-1a3.88 3.88 0 0 0 .61-.94.573.573 0 0 0 .06-.16Z" fill="#26417F"/><path d="m182.7 199.77-.2-.33a.807.807 0 0 1 .2.33ZM182.62 200.8l-.06.16a4.302 4.302 0 0 1-.63 1l.69-1.16Z" fill="#26417F"/><path d="m181.51 197.84 1 1.6a.851.851 0 0 0-.17-.14 1.183 1.183 0 0 0-1.43.21c-.52.62-3.74 4.41-4.07 4.81l-13.76 2.12-1.08-8.25c.219.112.424.25.61.41l.21.17v-.26c-.1-2.47-.381-4.93-.84-7.36l-.22.06c.424 2.313.695 4.651.81 7-2.85-2-9.12.47-12.67 2.18-.36.16-.59.27-.73.35a36.88 36.88 0 0 1-.36-12.39c.94-6 4.17-13.67 14.28-16.22.06 0 6.94-1.12 12.26 2.86 3.33 2.49 5.35 6.42 6 11.68-4.48-1-7.74 2.55-8.44 3.39l-1.4-4.73-.22.06 1.53 5.17.14-.18c.049-.07.103-.137.16-.2.57.94 3.56 5.83 5.88 6.92.842.318 1.724.52 2.62.6l-.11.14Z" fill="#61D3BA"/><path d="m181.73 201.81.67-1.11a.565.565 0 0 1-.06.17 3.803 3.803 0 0 1-.61.94ZM182 197.57l-.15.22h-.25l.15-.21.25-.01ZM181.93 201.94l-.71 1.15c-.1.008-.2.008-.3 0l.21-.33c.24-.2.53-.5.8-.82Z" fill="#26417F"/><path d="M180.13 211.28c.934.066 1.873.036 2.8-.09-2.7 2-16.33 12.13-20.29 12.84-3.84.7-5.81-7.26-6.16-8.83a5.85 5.85 0 0 0 3.44.86c2.57 0 6.37-.82 12.32-2.52 1.45-.47 7.51-2.15 7.89-2.26Z" fill="#61D3BA"/><path d="m181.73 201.81-.6 1c-.1.1-.19.18-.26.26l-.1.09h.15l-.14.25c-.16 0-.26 0-.3-.08a.16.16 0 0 1-.043-.11.16.16 0 0 1 .043-.11l.2-.19c.37-.351.721-.721 1.05-1.11ZM181.72 197.54l-.15.21a9.913 9.913 0 0 1-2.62-.6c-2.32-1.09-5.31-6-5.88-6.92l.17-.19c.4.68 3.52 5.82 5.81 6.9.859.321 1.757.523 2.67.6Z" fill="#26417F"/><path d="M181.55 186.85v.16h-.17l-.49-.11-.13-.22-.19.15c-3.72-.46-6.47 2.17-7.37 3.2l-.05-.08-.2.12.08.15a1.92 1.92 0 0 0-.16.2l-.14.18-1.53-5.17.22-.06 1.4 4.73c.7-.84 4-4.36 8.44-3.39-.67-5.26-2.69-9.19-6-11.68-5.32-4-12.2-2.87-12.26-2.86-10.11 2.55-13.34 10.23-14.28 16.22-.58 4.121-.459 8.31.36 12.39.14-.08.37-.19.73-.35 3.55-1.71 9.82-4.21 12.67-2.18a53.265 53.265 0 0 0-.81-7l.22-.06c.459 2.43.739 4.89.84 7.36v.26l-.21-.17a3.102 3.102 0 0 0-.61-.41v-.2h-.23v.06c-2.7-1.09-7.53.66-10.49 2a.676.676 0 0 0 0-.09h-.22v.15c-.4.17-.75.34-1.07.49-.32.15-.67.32-.77.38l-.19.08-.07-.1v-.09a36.957 36.957 0 0 1-.39-12.56c1-6.05 4.23-13.82 14.46-16.4.07 0 7.05-1.14 12.45 2.89 3.44 2.57 5.51 6.6 6.16 12.01ZM181.22 203.09l-.16.26h-.28l.14-.25c.1.005.201.002.3-.01Z" fill="#26417F"/><path d="M180.91 186.87h-.3l.19-.15.11.15ZM173.19 190l.05.08-.17.19-.08-.15.2-.12ZM159.53 152a9.272 9.272 0 0 1 8.852 9.416 9.268 9.268 0 0 1-9.162 9.114h-.31a9.269 9.269 0 0 1-8.656-9.56 9.268 9.268 0 0 1 9.276-8.96V152Zm8.72 9.56a9.18 9.18 0 0 0-.32-2.69h.08v-.22h-.19a9.069 9.069 0 0 0-4-5.13v-.17h-.23v.09a8.82 8.82 0 0 0-4.08-1.14h-.3a9.053 9.053 0 0 0-9 8.74v.3c0 1.34.3 2.662.88 3.87l-.12.2c.102.06.209.11.32.15a9.05 9.05 0 0 0 7.69 4.82h.3a9 9 0 0 0 8.97-8.82Z" fill="#26417F"/><path d="M167.93 158.87a9.18 9.18 0 0 1 .32 2.69 9.002 9.002 0 0 1-9 8.74h-.3a9.05 9.05 0 0 1-7.69-4.82 4.656 4.656 0 0 0 3 0 2.596 2.596 0 0 0 1.65-1.68v-.09l-.09-.05a2.424 2.424 0 0 1-1.47-2 1.901 1.901 0 0 1 .82-1.7 1.747 1.747 0 0 1 1.83.04H157.46c3.47 0 5.11-2.79 5.83-4.77.21.97 1.02 2.84 4.64 3.64Z" fill="#FFDFD4"/><path d="M168.05 158.67v.22h-.08a1.29 1.29 0 0 0-.07-.25l.15.03ZM167.86 158.62c.032.081.055.165.07.25-3.62-.8-4.43-2.67-4.61-3.6.07-.18.13-.35.18-.52 0 .12-.19 2.82 4.36 3.87Z" fill="#26417F"/><path d="M163.82 153.49a9.069 9.069 0 0 1 4 5.13c-4.55-1.05-4.36-3.75-4.35-3.87.14-.413.257-.834.35-1.26Z" fill="#13286A"/><path d="M163.62 153.28h.23v.17l-.22-.12-.01-.05ZM163.6 153.37l.22.12c-.081.425-.184.846-.31 1.26h-.22a2.122 2.122 0 0 0 0 .54c-.72 2-2.36 4.77-5.83 4.77H157a1.748 1.748 0 0 0-1.86-.11 1.892 1.892 0 0 0-.82 1.7 2.413 2.413 0 0 0 1.47 2l.09.05v.09a2.6 2.6 0 0 1-1.65 1.68 4.656 4.656 0 0 1-3 0l-.17-.33a4.19 4.19 0 0 0 3.1.11 2.401 2.401 0 0 0 1.48-1.44 2.597 2.597 0 0 1-1.52-2.19 2.121 2.121 0 0 1 .93-1.91 1.996 1.996 0 0 1 2.07.1h.37c4.84 0 5.98-5.67 6.11-6.44Z" fill="#26417F"/><path d="M163.28 154.73h.22c-.05.17-.11.34-.18.52a2.213 2.213 0 0 1-.04-.52ZM162.64 224l.7.06a4.57 4.57 0 0 1-.68.17l-.02-.23Z" fill="#26417F"/><path d="M163.6 153.37c-.13.77-1.27 6.44-6.11 6.44h-.37a2.004 2.004 0 0 0-2.07-.1 2.113 2.113 0 0 0-.93 1.91 2.599 2.599 0 0 0 1.52 2.19 2.405 2.405 0 0 1-1.48 1.44 4.19 4.19 0 0 1-3.1-.11 8.924 8.924 0 0 1-.88-3.87v-.3a9.052 9.052 0 0 1 9-8.74h.3a8.816 8.816 0 0 1 4.12 1.14Z" fill="#13286A"/><path d="M162.62 224.27c-.169.014-.34.014-.51 0-4 0-5.86-8.73-6-9.33.093.083.193.157.3.22.35 1.57 2.32 9.53 6.16 8.83l.05.28ZM161.92 198v.2l-.25-.11V198h.25Z" fill="#26417F"/><path d="M156.45 215.21a1.895 1.895 0 0 1-.3-.22h.23s.02.01.07.22ZM151.06 165.13l.17.33a1.903 1.903 0 0 1-.32-.15l.12-.2.03.02ZM151.21 200.05a1.012 1.012 0 0 0-.21.1V200h.22a.884.884 0 0 1-.01.05Z" fill="#26417F"/><path d="M118.93 62.93c-3 .54-4.51-5.21 4.81-10.09 0 0 .66 9.08-4.81 10.09Z" fill="#13286A"/><path d="M118.93 62.93c-3 .54-4.51-5.21 4.81-10.09 0 0 .66 9.08-4.81 10.09" stroke="#26417F" stroke-width=".25" stroke-miterlimit="10"/><path d="M202.9 49.58c5 1.21 9.81 4.34 10.11 5.47l1.7-1.63s-10.55-7.66-13.83-6.23c-3.14-3.44-8.58-5-11-4.09-3.54 2.1-9.26 7.44-10.2 14.54l4.7 2.84s4.9-11.89 8.43-11.78a8.691 8.691 0 0 1 5.5 2 4.491 4.491 0 0 1 1.16 4.89c-1.06 4.47-4.59 4.24-5.14 2.65 0 0-.74-3.45 4.23-7.28l-1.09-.91C193.6 53 190 60.66 194 62.8c4.63 1.59 8.21-3.41 8.92-4.74 1-1.58 1.75-7.58-.07-8.51" fill="#FBC623"/><path d="M301.15 171.59s-36.57-7.93-25.5-23c9.91-6.12 23.54 12.36 4.4 20.52-15.09 3.15-30.52-8.44-32.82-17.28" stroke="#FBC623" stroke-width="3" stroke-miterlimit="10"/><path d="m210.9 119.16 4.29 9.23-10.54 2.7-4.65-5.96 10.9-5.97Z" stroke="#4F87FD" stroke-miterlimit="10"/><path d="m221.36 141.52 8.28 2.67s-2.84 7-3.82 9.11c-4.63-1-6.7-1.69-6.7-1.69s1.07-4.16 2.24-10.09Z" stroke="#61D3BA" stroke-miterlimit="10"/></svg>