<svg viewBox="0 0 400 300" fill="none" xmlns="http://www.w3.org/2000/svg"><path d="M196.336 238.546h-11.522v11.9h1.008v-10.934h2.786a42.998 42.998 0 0 1-.28 3.528c-.462-.49-.938-.966-1.4-1.4l-.574.616c.602.56 1.218 1.232 1.806 1.918-.336 1.792-.882 3.276-1.848 4.382.238.14.658.448.812.616.868-1.106 1.414-2.464 1.778-4.088.448.574.826 1.106 1.092 1.554l.63-.714c-.35-.56-.882-1.274-1.498-1.988.224-1.33.336-2.8.42-4.424h2.744c-.042 1.176-.098 2.282-.21 3.304-.448-.462-.896-.924-1.344-1.33l-.574.616c.574.56 1.19 1.204 1.764 1.876-.322 1.904-.882 3.458-1.918 4.592.224.14.658.462.812.63.938-1.134 1.512-2.576 1.876-4.298.532.672.994 1.302 1.302 1.834l.63-.742c-.392-.644-1.022-1.442-1.722-2.268.182-1.274.28-2.674.35-4.214h2.072v9.618c0 .238-.098.322-.336.322-.238.014-1.036.028-1.89-.014.14.266.308.728.364.994 1.176.014 1.876-.014 2.282-.168.434-.182.588-.504.588-1.134v-10.584Zm2.128 8.316c0-.21.742-.546.742-.546v-.028c1.33-1.33 2.702-3.192 3.822-5.068l-.938-.56c-.952 1.876-2.436 3.794-2.898 4.284-.448.518-.77.868-1.078.924.126.266.294.784.35.994Zm0 0c.294-.182.77-.336 4.228-1.176a6.249 6.249 0 0 1-.028-.91l-3.752.826-.518.364.07.896Zm-.098-3.36c0-.224.644-.56.644-.56v-.028c.994-1.246 2.016-3.024 2.744-4.732l-1.008-.476c-.574 1.666-1.596 3.458-1.918 3.92-.308.462-.56.784-.812.854.126.28.294.798.35 1.022Zm0 0c.224-.112.63-.21 2.94-.518-.014-.196.028-.602.07-.882l-2.534.266-.49.336.014.798Zm-.252 5.208.238 1.05c1.302-.406 3.024-.924 4.662-1.442l-.168-.91c-1.764.504-3.556 1.022-4.732 1.302Zm5.936-3.43v5.124h.994v-4.186h3.976v4.172h1.008v-5.11h-5.978Zm.588 3.486v.952h5.04v-.952h-5.04Zm.966-9.772-.476.966h4.634v-.966h-4.158Zm3.822 0v.196c-1.078 2.604-3.78 4.396-6.65 5.236.154.21.378.686.448.966 3.01-.98 5.922-2.996 7.238-6.048l-.616-.392-.196.042h-.224Zm-3.906-1.526c-.602 1.582-1.624 3.108-2.772 4.088.21.21.546.63.672.84 1.204-1.134 2.338-2.856 3.066-4.648l-.966-.28Zm-.308 2.534-.784.462c1.148 2.254 3.458 3.976 6.188 4.844.07-.28.238-.7.42-.952-2.618-.7-4.816-2.282-5.824-4.354Zm12.81-1.372c-.182.728-.56 1.806-.868 2.478l.63.238c.336-.63.742-1.638 1.078-2.464l-.84-.252Zm-2.506 2.436c-.07-.658-.322-1.652-.644-2.408l-.686.224c.308.77.56 1.764.602 2.436l.728-.252Zm.504 6.608h.868v-3.43c.49.532 1.078 1.204 1.316 1.54l.602-.728a68.209 68.209 0 0 0-1.918-1.736v-.532h1.974v-.896h-1.974v-4.088h-.868v4.088h-2.002v.896h1.862c-.49 1.232-1.33 2.562-2.114 3.276.14.224.35.602.448.84.658-.616 1.302-1.652 1.806-2.73v3.5Zm9.03-5.306h-4.634v-2.408c1.54-.308 3.234-.742 4.41-1.288l-.84-.742c-.882.434-2.408.868-3.808 1.19l-.742-.238v4.872c0 1.372-.084 2.982-.714 4.424v-.182h-5.082v-9.8h-.924v11.774h.924v-1.05h4.704c-.21.336-.448.658-.742.966.252.126.616.476.742.714 1.834-1.946 2.072-4.774 2.072-6.832v-.42h2.086v7.126h.98v-7.126h1.568v-.98Zm5.656 1.204v-3.962h3.892v3.962h-3.892Zm8.064 0h-3.108v-3.962h2.674v-.994h-11.494v.994h2.814v3.36c0 .21 0 .392-.014.602h-3.318v1.008h3.276c-.196 1.89-.91 3.766-3.234 5.194.252.168.63.532.826.77 2.562-1.61 3.276-3.78 3.472-5.964h3.934v5.922h1.064v-5.922h3.108v-1.008Z" fill="#9BA2AD"/><path d="M208.45 207.22c27.785 0 50.31-22.524 50.31-50.31 0-27.785-22.525-50.31-50.31-50.31-27.786 0-50.31 22.525-50.31 50.31 0 27.786 22.524 50.31 50.31 50.31Z" fill="#FBC623"/><path d="M254 177.64c2.61 5.09 0 8.35-2.74 11.21-9.34 6.1-29.22 4.82-53.85-10.21-24.63-15.03-36.19-27.15-38.49-37.59-.79-4.37 1.45-10.58 9.36-14-7.91.68-14.55 2.55-16.72 7.58-3.7 8.25 5 33.27 41.55 50.23 28.49 16.7 54 17.92 62.35 10.87 4.54-4.73 5.13-9.15-1.46-18.09Z" fill="#61D3BA"/><path d="m246.14 125.48 1.36 21.46-2.35.16H245c-1.72 0-2.33-4-2.39-4.48l-4.1-5.57-2 .14v-.25l2-.14-.69-10.65h.18v-.24l8.15-.56-.01.13Zm1.1 21.23-1.35-21.09-7.87.54.68 10.72 4.16 5.69s.59 4.29 2.16 4.29h.11l2.11-.15Z" fill="#26417F"/><path d="m245.89 125.62 1.35 21.09-2.11.14H245c-1.57 0-2.15-4.25-2.16-4.29l-4.16-5.69-.68-10.71 7.89-.54Z" fill="#FBC623"/><path d="M244.36 114.61c.88 3.08-.24 7.47-6.28 9.72-.666.311-1.359.562-2.07.75-.49.14-1.06.31-1.7.55v-.1h-.12v-.12c.68-.26 1.27-.43 1.79-.58a13.039 13.039 0 0 0 2-.74c5.89-2.19 7-6.44 6.14-9.42-1-3.63-5.24-6.83-11-5.7l.12-.27c5.82-1.07 10.06 2.22 11.12 5.91Z" fill="#26417F"/><path d="M244.12 114.68c.85 3-.25 7.23-6.14 9.42-.646.301-1.315.548-2 .74-.52.15-1.11.32-1.79.58l-31.6-7.42-4.16-1.68 13.65-2h2.4c11.32-1 16.24-2.2 18.15-4.55.181-.228.342-.473.48-.73 5.77-1.19 9.97 2.01 11.01 5.64Z" fill="#E0E2E3"/><path d="m237.76 126.16.69 10.65-2.02.14-1.99-10.61 3.32-.18Z" fill="#FFDFD4"/><path d="m237.98 125.91.02.24-.24.01-.01-.23.13-.01.1-.01Z" fill="#26417F"/><path d="M237.98 125.9v.01l-.1.01-.13.01.01.23-3.32.18-.04-.25 3.58-.19ZM236.48 137.2l.69 3.71h-.18c-.26 0-16.38-2.78-31.63-6l-.06-.24c14.46 3.08 29.74 5.71 31.56 6l-.64-3.39.26-.08Z" fill="#26417F"/><path d="m236.22 137.22.64 3.39c-1.82-.31-17.1-2.94-31.56-6-10.05-2.15-19.7-4.51-24.15-6.46-6.23-2.73-8.12-7.63-7.24-11.28.84-3.44 4-5.57 8.09-5.57h.76c.949.313 1.94.479 2.94.49.291-.001.581-.018.87-.05v.06l11.43 4.6 4.56 1.84 31.54 7.41 2.16 11.53-.04.04Z" fill="#E0E2E3"/><path d="m236.48 137.2-.26.02v-.04l-.02-.21.23-.02.05.25Z" fill="#26417F"/><path d="m234.44 126.34 2 10.61h-.23v.21l-2.16-11.53h.08v-.12.12h.1l.09.46h-.12v.25h.24Z" fill="#26417F"/><path d="m234.4 126.09.04.25-.14.01-.02-.25.12-.01ZM234.29 125.53v.1h-.1v-.12l.1.02Z" fill="#26417F"/><path d="M234.19 125.43v.12-.12h.07-.07ZM234.17 125.55l-.03.12-.08-.02-.02-.08.13-.02Z" fill="#26417F"/><path d="M234.17 125.55h-.13v.08l-31.54-7.41-4.5-1.82.46-.07 4.16 1.68 31.56 7.42-.01.12ZM233.52 104.37a8.174 8.174 0 0 1-.29 4.34h-.24v.24h.07a4.812 4.812 0 0 1-.48.73c-1.91 2.35-6.83 3.59-18.15 4.55h-2.4v-.24h2.43c11.24-1 16.11-2.17 18-4.46 1.07-1.33 1.11-3 .84-5.15a22.901 22.901 0 0 0-3.49-10l.25-.08a23.679 23.679 0 0 1 3.46 10.07Z" fill="#26417F"/><path d="M233.27 104.4c.27 2.13.23 3.82-.84 5.15-1.85 2.29-6.72 3.5-18 4.46H212c-1 0-2.92.13-6.72.31h-1s-3.73.08-6.93-.07h-.07c-1.28 0-1.67-.47-1.77-.68a.633.633 0 0 1 .07-.69 1.207 1.207 0 0 1 1-.44h.42c2.45.17 4.56.2 4.58.2v-.25s-2.1 0-4.54-.19h-.43l-1.34-.11c-1.43-.17-2-.86-1.95-1.42.05-.56.63-1 1.61-.85 3.24.35 8 .65 8 .66v-.25c-.05 0-4.78-.3-8-.65l-1.32-.16c-.84-.08-1.41-.38-1.59-.83a.995.995 0 0 1 .24-1 1.628 1.628 0 0 1 1.41-.49l.25.05c2.489.428 5.005.688 7.53.78v-.25a58.093 58.093 0 0 1-7.48-.77.998.998 0 0 1-.83-.59 1.14 1.14 0 0 1-.08-.42c.14-.3.26-.62.37-.93a.906.906 0 0 1 .82-.29c.57 0 2 .25 3.38.47 3.21.5 3.22.47 3.27.31.05-.16 0-.12-.1-.18l-.31-.15a9.703 9.703 0 0 1-2.69-1.74c-.57-.64-.7-1.25-.36-1.66a1.19 1.19 0 0 1 1.42-.25c.86.54 6.54 4.65 6.6 4.69l14.69-2.43h.12l-.84-5.74 10.35-3.58a22.927 22.927 0 0 1 3.49 9.98Z" fill="#FFDFD4"/><path d="M233 108.75h.24l-.12.27H233v-.27ZM231.52 93.67v.11h-.11l-1.4.49-.1-.14-.2.15.05.07L219.43 98v-.1h-.24v.15l-.68.24v-.12h.13v-.15l12.66-4.38a21.073 21.073 0 0 0-6.3-9.51 25.06 25.06 0 0 0-17.22-6.31h-.13a23.882 23.882 0 0 0-5 .55c.07-.1.13-.2.19-.3a25.063 25.063 0 0 1 4.85-.5h.13A25.26 25.26 0 0 1 225.16 84a21.271 21.271 0 0 1 6.36 9.67Z" fill="#26417F"/><path d="M231.24 93.61 218.58 98l-.58-5.45h-.24l.64 5.59h.12v.12l.68-.24.85 5.5-14.47 2.4c-.56-.41-5.73-4.15-6.57-4.67a1.435 1.435 0 0 0-1.74.3c-.2.24-.58.92.37 2a9.276 9.276 0 0 0 2.61 1.72c-.6-.07-1.62-.23-2.56-.38-1.39-.21-2.82-.44-3.39-.47-.241-.043-.488 0-.7.12.503-1.522.89-3.08 1.16-4.66.05-.28.1-.54.13-.68.221.038.445.058.67.06a2 2 0 0 0 1.22-.36l.09-5.66c1.1-3.29 2.33-7.08 2.82-8.84.246-.682.53-1.35.85-2 .15-.31.28-.57.37-.81.09-.24.75-1.77.83-1.93.08-.16.41-.57.85-1.27a23.86 23.86 0 0 1 5-.55h.13A25.06 25.06 0 0 1 225 84.13a21.09 21.09 0 0 1 6.24 9.48Z" fill="#61D3BA"/><path d="m230 94.3-.25.08-.05-.07.2-.15.1.14ZM219.43 98l.89 5.79h-.12l-14.69 2.43c-.06 0-5.74-4.15-6.6-4.69a1.193 1.193 0 0 0-1.42.25c-.34.41-.21 1 .36 1.66a9.732 9.732 0 0 0 2.69 1.74l.31.15c.12.06.11.15.1.18-.01.03-.06.19-3.27-.31-1.38-.22-2.81-.44-3.38-.47a.902.902 0 0 0-.446.041.903.903 0 0 0-.374.249c.059-.137.109-.277.15-.42.213-.12.46-.163.7-.12.57 0 2 .26 3.39.47.94.15 2 .31 2.56.38a9.305 9.305 0 0 1-2.61-1.72c-.95-1.07-.57-1.75-.37-2a1.44 1.44 0 0 1 1.74-.3c.84.52 6 4.26 6.57 4.67l14.47-2.4-.85-5.5.2-.08Z" fill="#26417F"/><path d="m219.43 97.96-.24.08-.02-.15.24-.03.02.1ZM218.58 97.99l.02.15-.13.02-.04-.12.15-.05Z" fill="#26417F"/><path d="m217.95 92.55.63 5.44-.15.05.04.12-.12.01-.64-5.59.24-.03ZM213 67.44a1.698 1.698 0 0 1-1.54 1.85 1.472 1.472 0 0 0 0-.23c.36-.049.688-.23.92-.51a1.459 1.459 0 0 0-.19-2 1.41 1.41 0 0 0-.88-.33 1.357 1.357 0 0 0-.07-.25 1.698 1.698 0 0 1 1.76 1.47Z" fill="#26417F"/><path d="M212.79 67.47a1.415 1.415 0 0 1-.33 1.06c-.232.28-.56.461-.92.51.06-.364.09-.732.09-1.1v-.65a6.7 6.7 0 0 0-.15-.89 1.191 1.191 0 0 0-.06-.25c.322.006.633.122.88.33a1.43 1.43 0 0 1 .49.99Z" fill="#FFDFD4"/><path d="m212.08 114.29-13.65 2-.47-.18 11.71-1.74 2.41-.08Z" fill="#26417F"/><path d="M212 114.05v.24l-2.41.11 2.41-.35ZM212 114l-2.37.35-4.34.2h-3.19c-1.28 0-3.11 0-4.74-.09h-.07a2.139 2.139 0 0 1-2-.81.9.9 0 0 1 .08-1 1.18 1.18 0 0 1 .43-.35c.25 0 .51 0 .76.06a1.207 1.207 0 0 0-1 .44.633.633 0 0 0-.07.69c.1.21.49.68 1.77.68h.07c3.2.15 6.89.07 6.93.07h1c3.86-.07 5.64-.16 6.74-.24ZM211.6 67.29v.65c0 .368-.03.736-.09 1.1h-.06v.22a7.003 7.003 0 0 1-1.47 3 6.803 6.803 0 0 1-4.67 2.46h-.64c-.183.01-.367.01-.55 0a.482.482 0 0 0 0-.12.334.334 0 0 0-.08-.09c.426.04.854.04 1.28 0a6.65 6.65 0 0 0 6-7.23c0-.2 0-.4-.08-.59.067-.104.124-.215.17-.33.086.305.149.616.19.93Z" fill="#26417F"/><path d="M211.48 69.05h.06c.006.076.006.153 0 .23l-.06-.23ZM211.2 66.33l.24.07a1.81 1.81 0 0 1-.17.33 3.24 3.24 0 0 0-.08-.35c0-.017.004-.034.01-.05ZM211.39 66.15a1.082 1.082 0 0 0-.18 0v-.25h.13c.024.081.041.165.05.25Z" fill="#26417F"/><path d="M211.35 67.32a6.651 6.651 0 0 1-6 7.23c-.426.04-.855.04-1.28 0a.596.596 0 0 0-.32-.17h-.17a1.224 1.224 0 0 0-.32 0 6.429 6.429 0 0 1-2.79-1.38 6.632 6.632 0 0 1-2.37-4.5 6.98 6.98 0 0 1 0-1.12h.07a4.004 4.004 0 0 0 3-1.17 6.41 6.41 0 0 0 1.49-4.07c.25 1 .82 2.79 1.74 3.15a3.655 3.655 0 0 0 2.85 0 2.598 2.598 0 0 0 2.7 2h.05a1.642 1.642 0 0 0 1.23-.62c.07.25.1.45.12.65Z" fill="#FFDFD4"/><path d="M211.27 66.73a1.646 1.646 0 0 1-1.23.62h-.11a2.603 2.603 0 0 1-2.7-2 3.662 3.662 0 0 1-2.85 0c-.92-.36-1.49-2.15-1.74-3.15.01-.183.01-.367 0-.55a.28.28 0 0 1 .12 0c.12.56.7 3.12 1.72 3.52a3.557 3.557 0 0 0 2.78 0l.16-.07v.17a2.336 2.336 0 0 0 2.48 1.95h.1a1.33 1.33 0 0 0 1.17-.72c.036.076.069.152.1.23Z" fill="#26417F"/><path d="M211.19 66.38a1.325 1.325 0 0 1-1.17.72h-.1a2.34 2.34 0 0 1-2.48-1.95v-.17l-.16.07a3.556 3.556 0 0 1-2.78 0c-1-.4-1.6-3-1.72-3.52a6.083 6.083 0 0 1 1.36-.28h.61c1.647.01 3.23.634 4.44 1.75a6.494 6.494 0 0 1 2 3.38Z" fill="#13286A"/><path d="M209.67 114.4 198 116.14l-8.89-3.59v-1.63l.12-.07a8.455 8.455 0 0 0 2.56-2.5c.001.134.028.267.08.39.12.32.52.87 1.79 1h.28a1.169 1.169 0 0 0-.82.94c-.08.71.56 1.51 2.17 1.7h.62a1.188 1.188 0 0 0-.43.35.9.9 0 0 0-.08 1 2.147 2.147 0 0 0 2 .81h.07c1.63.07 3.4.09 4.74.09h3.19l4.27-.23Z" fill="#61D3BA"/><path d="m205.3 134.61.06.24-.52-.11.46-.13Z" fill="#26417F"/><path d="m204.84 134.74.52.11c-12.46 3.42-23.48 6-23.59 6h-.15v-1h.11v-.25h-.12V129h.18v-.25h-.18v-.16l.25.1v11.9c1.36-.31 11.51-2.72 22.98-5.85Z" fill="#26417F"/><path d="m205.3 134.59-.46.13c-9.34-2-18.28-4.17-23-6v-.18h-.25v.08l-.57-.24c-6.36-2.79-8.29-7.82-7.38-11.57.91-3.75 4.24-5.86 8.63-5.76.148.099.301.19.46.27h-.76c-4.12 0-7.25 2.13-8.09 5.57-.88 3.65 1 8.55 7.24 11.28 4.48 1.91 14.13 4.27 24.18 6.42ZM204.17 74.8a7.477 7.477 0 0 1-1.38 3.27l-.34.08c.75-1.18 1.55-2.67 1.47-3.37l.25.02Z" fill="#26417F"/><path d="M204.16 74.68c.004.04.004.08 0 .12h-.25a.391.391 0 0 0-.23-.12 1.199 1.199 0 0 0-.45 0l-.46-.11c.149-.068.307-.115.47-.14.266.066.537.113.81.14a.373.373 0 0 1 .08.09l.03.02Z" fill="#26417F"/><path d="M203.92 74.78c.08.7-.72 2.19-1.47 3.37a24.997 24.997 0 0 0-8.17 3.46c0-.08 0-.16.06-.23-2-3.9-1.93-7.36-1.05-9.51.18 1 .77 3.28.8 3.39l.24-.07c-.07-.23-.83-3.21-.86-3.72.239-.501.58-.947 1-1.31a31.156 31.156 0 0 0 1.37 4.45l.23-.09a22.622 22.622 0 0 1-1.35-4.55l.17-.11a2 2 0 0 1 .95-.26c.354 1.307.791 2.59 1.31 3.84l.23-.1a30.13 30.13 0 0 1-1.28-3.72c.239.022.471.094.68.21.098.163.224.309.37.43.181.157.397.267.63.32.305.323.573.679.8 1.06l1.27 4.79v.17l.14-.11c.981-.74 2.066-1.33 3.22-1.75.235.035.473.049.71.04Z" fill="#FFDFD4"/><path d="M203.92 74.75c-.23-.02-.457-.06-.68-.12.149-.028.302-.028.45 0 .088.013.17.055.23.12ZM203.74 74.38a.589.589 0 0 1 .32.17 5.72 5.72 0 0 1-.81-.14c.106-.014.214-.014.32 0l.17-.03ZM203 110.29v.25c-.06 0-4.8-.31-8-.66v-.23c3.21.35 7.94.63 8 .64Z" fill="#26417F"/><path d="M203.25 74.41a1.778 1.778 0 0 0-.47.14 6.997 6.997 0 0 1-4.44-4v-.24h-.1a6.732 6.732 0 0 1-.4-1.76c-.03-.37-.03-.74 0-1.11.069-.01.14-.01.21 0a6.98 6.98 0 0 0 0 1.12 6.616 6.616 0 0 0 2.37 4.5 6.43 6.43 0 0 0 2.83 1.35Z" fill="#26417F"/><path d="m202.78 74.55.46.11a12.374 12.374 0 0 0-3.24 1.75l-.14.11v-.17l-1.27-4.79a6.116 6.116 0 0 0-.8-1.06c.123.039.251.062.38.07.242.272.456.566.64.88l1.19 4.66a13.4 13.4 0 0 1 2.78-1.56ZM202.79 78.07c-.06.1-.12.2-.19.3-.116.02-.23.05-.34.09.06-.1.13-.2.19-.31l.34-.08ZM202.76 61.58a.28.28 0 0 0-.12 0h-.14a.534.534 0 0 0 0-.08h.25s0 .01.01.08ZM202.64 61.62c.01.183.01.367 0 .55 0-.22-.09-.4-.12-.51a.276.276 0 0 1 .12-.04Z" fill="#26417F"/><path d="M202.64 61.58a.28.28 0 0 0-.12 0 .165.165 0 0 0 0-.07l.12.07ZM202.64 62.17a6.41 6.41 0 0 1-1.49 4.07 4.007 4.007 0 0 1-3 1.17h-.07a2.085 2.085 0 0 1 0-.25 3.774 3.774 0 0 0 2.92-1.08 6.68 6.68 0 0 0 1.43-4.38.28.28 0 0 1 .12 0c0 .07.04.3.09.47ZM202.26 78.46c.111-.04.225-.07.34-.09-.44.7-.81 1.22-.85 1.27-.04.05-.7 1.55-.83 1.93-.13.38-.22.5-.37.81-.319.65-.603 1.319-.85 2-.49 1.76-1.72 5.55-2.82 8.84h-.26c1.1-3.31 2.35-7.14 2.84-8.91.252-.682.543-1.35.87-2 .14-.3.27-.56.35-.79.08-.23.75-1.77.86-2 .11-.23.46-.63.72-1.06ZM202.5 61.59a.138.138 0 0 1 0 .07.28.28 0 0 0-.12 0 .506.506 0 0 0 0-.11l.12.04Z" fill="#26417F"/><path d="M202.4 61.7a6.673 6.673 0 0 1-1.4 4.38 3.76 3.76 0 0 1-2.81 1.09 6.637 6.637 0 0 1 4.21-5.47Z" fill="#13286A"/><path d="M202.45 78.15c-.06.11-.13.21-.19.31a24.582 24.582 0 0 0-8.1 3.52c.048-.12.088-.244.12-.37a24.997 24.997 0 0 1 8.17-3.46Z" fill="#FFDFD4"/><path d="M202.26 78.46c-.28.43-.53.79-.72 1.05-.19.26-.73 1.6-.86 2-.13.4-.21.49-.35.79-.328.65-.618 1.318-.87 2-.49 1.77-1.74 5.6-2.84 8.91-.57 1.72-1.1 3.3-1.46 4.38-.24.73-.41 1.24-.47 1.4a5.38 5.38 0 0 0-.19.86 29.7 29.7 0 0 1-1.28 5c-.22.269-.347.603-.36.95a10.006 10.006 0 0 1-3.78 4.82 7.364 7.364 0 0 1-6.2.43h-.05a5.578 5.578 0 0 1-3.08-3.76c-1-4.84 4.61-12 9.13-17.65 2.46-3.1 4.61-5.82 5.3-7.65a24.575 24.575 0 0 1 8.08-3.53Z" fill="#FFDFD4"/><path d="M201.63 112.49v.25s-2.13 0-4.58-.2v-.24c2.48.16 4.56.19 4.58.19ZM201.5 107.71v.29a56.612 56.612 0 0 1-7.53-.78l.06-.24c2.471.404 4.967.648 7.47.73ZM198.43 116.32l-.46.07-.04-.25h.03l.47.18ZM198.35 70.32v.24l-.09-.24h.09Z" fill="#26417F"/><path d="M198.34 70.56h-.2a1.778 1.778 0 0 0-.26-.29c.122.02.247.02.37 0l.09.29Z" fill="#26417F"/><path d="M198.25 70.32c-.122.02-.247.02-.37 0a3.272 3.272 0 0 0-.94-.72 1.534 1.534 0 0 1-.16-.55 1.575 1.575 0 0 1 .076-.632c.069-.203.18-.39.324-.548.177-.194.412-.324.67-.37-.03.37-.03.74 0 1.11.058.585.193 1.16.4 1.71Z" fill="#FFDFD4"/><path d="M198.07 67.17h.05a2.085 2.085 0 0 0 0 .25.761.761 0 0 0-.21 0 2.255 2.255 0 0 1 0-.26.751.751 0 0 1 .16.01ZM197.88 70.28c.097.087.184.184.26.29a1.587 1.587 0 0 1-.38-.07 3.256 3.256 0 0 0-1-.75 1.514 1.514 0 0 1-.16-.35c.113.041.224.092.33.15.084.167.203.313.35.43.173.146.379.25.6.3ZM197.93 116.14v.25l-11.41-4.6v-.06h.36l1.89.76v.17h.25v-.07l8.89 3.59.02-.04Z" fill="#26417F"/><path d="M197.86 67.19a2.255 2.255 0 0 0 0 .26 1.192 1.192 0 0 0-.67.37 1.55 1.55 0 0 0-.4 1.18c.018.192.072.378.16.55a2.393 2.393 0 0 0-.33-.15 1.512 1.512 0 0 1-.08-.37 1.827 1.827 0 0 1 .46-1.38 1.51 1.51 0 0 1 .86-.46ZM197.88 70.28a1.43 1.43 0 0 1-.94-.72c.355.181.673.425.94.72Z" fill="#26417F"/><path d="M197.76 70.5a1.449 1.449 0 0 1-.63-.32 1.68 1.68 0 0 1-.37-.43c.379.183.718.438 1 .75Z" fill="#FFDFD4"/><path d="m197.36 73.26-.23.1a31.495 31.495 0 0 1-1.31-3.84c.08-.01.161-.01.24 0a30.114 30.114 0 0 0 1.3 3.74ZM197 112.29h.08v.24h-.43c-.25 0-.51 0-.76-.06.231-.122.488-.187.75-.19l.36.01ZM196.88 93.21c-.09.27-.17.54-.26.8v-.81l.26.01ZM196.88 93.22l-.09 5.66-.14-.19-.11.07.08-4.74c.09-.26.17-.53.26-.8ZM196.79 98.88l.01.01h-.01v-.01Z" fill="#26417F"/><path d="M196.79 98.89h-.25v-.14l.11-.07.14.19v.02Z" fill="#26417F"/><path d="M196.54 98.9h.23a2 2 0 0 1-1.22.36 4.05 4.05 0 0 1-.67-.06.418.418 0 0 1 0-.1.557.557 0 0 0 0-.1c.536.129 1.1.05 1.58-.22l.08.12ZM196.6 69.4c.039.123.093.24.16.35a1.726 1.726 0 0 0-.68-.21 1.634 1.634 0 0 1 0-.14h-.25a.601.601 0 0 0 0 .12 2.004 2.004 0 0 0-.95.26l-.17.11-.24-.07a.882.882 0 0 0 0 .29c-.42.363-.761.809-1 1.31h-.24a3.937 3.937 0 0 1 1.53-1.8 2.192 2.192 0 0 1 1.84-.22Z" fill="#26417F"/><path d="M196.63 93.21V94l-1.22 3.65c-.21.63-.36 1.09-.44 1.31h-.18v.24h.14c0 .14-.08.4-.13.68a32.064 32.064 0 0 1-1.16 4.66 1.17 1.17 0 0 0-.37.3c.57-1.626.998-3.299 1.28-5 .039-.291.103-.579.19-.86.06-.16.23-.67.47-1.4.36-1.08.89-2.66 1.46-4.38l-.04.01Z" fill="#26417F"/><path d="m196.62 94-.08 4.74A2.18 2.18 0 0 1 195 99c.08-.22.23-.68.44-1.31l1.18-3.69Z" fill="#61D3BA"/><path d="M196.08 69.54c-.08-.01-.16-.01-.24 0a.602.602 0 0 1 0-.12h.25c-.005.04-.009.08-.01.12ZM196.05 74.44l-.23.09a31.156 31.156 0 0 1-1.37-4.45c.077-.069.161-.13.25-.18a22.6 22.6 0 0 0 1.35 4.54ZM196.62 112.26a1.658 1.658 0 0 0-.75.19h-.62c-1.61-.19-2.25-1-2.17-1.7a1.167 1.167 0 0 1 .82-.94l1 .11c-1-.11-1.55.35-1.61.85-.06.5.52 1.25 1.95 1.42l1.38.07ZM195 109.64v.23l-1-.11c.32-.115.662-.156 1-.12ZM194.78 99h.18a.557.557 0 0 1 0 .1.418.418 0 0 0 0 .1h-.14l-.04-.2Z" fill="#26417F"/><path d="M195 109.64a2.253 2.253 0 0 0-1.07.12h-.28c-1.27-.11-1.67-.66-1.79-1a1.022 1.022 0 0 1-.08-.39c.26-.38.5-.78.72-1.18.231-.154.495-.253.77-.29.137.116.297.201.47.25a1.625 1.625 0 0 0-1.41.49.995.995 0 0 0-.24 1c.18.45.75.75 1.59.83l1.32.17ZM194.7 69.85a1.44 1.44 0 0 0-.25.18.83.83 0 0 1 0-.29l.25.11ZM194.33 81.3c0 .07 0 .15-.06.23l-.34.22c.066-.147.116-.302.15-.46-2.07-4.14-1.92-7.81-.88-10 .012.138.036.275.07.41-.87 2.24-.91 5.7 1.06 9.6ZM194.32 75.11l-.24.07c0-.11-.62-2.37-.8-3.39.05-.14.12-.27.18-.4.03.51.79 3.49.86 3.72ZM193.94 81.83l.34-.22c-.032.126-.072.25-.12.37l-.38.25a1.81 1.81 0 0 0 .16-.4Z" fill="#26417F"/><path d="m193.78 82.23.38-.25c-.69 1.83-2.84 4.55-5.3 7.65-4.52 5.7-10.14 12.81-9.13 17.65a5.593 5.593 0 0 0 1.109 2.233 5.596 5.596 0 0 0 1.971 1.527h-.51a5.642 5.642 0 0 1-2.82-3.7c-.61-3 1.16-6.7 3.66-10.45h.21v-.25c1.65-2.45 3.59-4.91 5.36-7.15 2.29-2.92 4.29-5.49 5.07-7.26ZM194 106.94l-.06.24-.25-.05a1.242 1.242 0 0 1-.47-.25c.247-.022.497-.005.74.05l.04.01ZM193.94 81.83c-.038.14-.092.273-.16.4a35.118 35.118 0 0 0-10.28 11.36c-.441.888-.805 1.811-1.09 2.76l-.19.16.05.06-.17-.06c.307-1.05.705-2.07 1.19-3.05l.1-.18a35.172 35.172 0 0 1 10.55-11.45Z" fill="#26417F"/><path d="M194 106.93a2.39 2.39 0 0 0-.74-.05 1.114 1.114 0 0 1-.32-.45.482.482 0 0 1 0-.12l.18-.39c0 .144.027.286.08.42a.998.998 0 0 0 .8.59ZM193.46 71.36c-.06.13-.13.26-.18.4a2.59 2.59 0 0 1-.07-.41l.25.01ZM193.59 104.55a3.499 3.499 0 0 1-.15.42l-.05.06a1.481 1.481 0 0 0-.32.87l-.18.39a1.125 1.125 0 0 1 0-.49c.14-.31.26-.63.38-1 .091-.102.199-.186.32-.25Z" fill="#26417F"/><path d="M193.44 105c-.11.31-.23.63-.37.93.011-.317.123-.622.32-.87l.05-.06ZM193.22 104.86c-.12.33-.24.65-.38 1 .013-.348.14-.681.36-.95l.02-.05ZM192.84 105.82a1.125 1.125 0 0 0 0 .49c-.13.29-.27.58-.42.86a1.48 1.48 0 0 0-.36.29 1.34 1.34 0 0 0-.36.89 8.478 8.478 0 0 1-2.56 2.5l-.12.07v-.08h-.25v.21a6.515 6.515 0 0 1-1.89.64l-.29-.12-.07.17a8.155 8.155 0 0 1-.87.05 9.731 9.731 0 0 1-2.94-.49v-.25h.05a7.364 7.364 0 0 0 6.2-.43 10.002 10.002 0 0 0 3.88-4.8Z" fill="#26417F"/><path d="M193.78 82.23c-.78 1.77-2.78 4.34-5.11 7.24-1.77 2.24-3.71 4.7-5.36 7.15a1 1 0 0 1-.9-.26c.285-.95.65-1.872 1.09-2.76a35.133 35.133 0 0 1 10.28-11.37Z" fill="#61D3BA"/><path d="M192.11 107.46a1.48 1.48 0 0 1 .36-.29c-.22.4-.46.8-.72 1.18a1.34 1.34 0 0 1 .36-.89Z" fill="#26417F"/><path d="M204.84 134.74c-11.47 3.13-21.62 5.54-23 5.86v-11.9c4.72 1.87 13.66 4.05 23 6.04Z" fill="#E0E2E3"/><path d="M189.07 112.55v.07h-.25v-.17l.25.1Z" fill="#26417F"/><path d="M189.07 110.92v1.63l-.25-.1v-1.4l.25-.13Z" fill="#26417F"/><path d="M189.07 110.84v.08l-.25.13v-.21h.25ZM186.64 111.57l.29.12h-.36l.07-.12ZM183.32 96.62v.25h-.21c.05-.09.11-.17.17-.26l.04.01Z" fill="#26417F"/><path d="M182.41 96.36a1 1 0 0 0 .9.26c-.06.09-.12.17-.17.26a1.27 1.27 0 0 1-.85-.31h.07s.01-.07.05-.21ZM182.81 111.05v.25a4.226 4.226 0 0 1-.46-.27l.46.02Z" fill="#26417F"/><path d="M182.41 96.35c0 .14-.07.22-.07.23h-.07l-.05-.06.19-.17ZM181.87 128.52v.18l-.25-.1v-.08h.25ZM181.8 128.76h-.18v.25h.18v-.25ZM181.74 139.67l-.01.25h-.11v-.25h.12ZM181.62 139.67v.25h-2.44l-3.78 5.8c0 .44-.43 4.6-2.2 4.6h-2.43v-.13l.14-21.51h.09l8.15.09v.23h.12l-.07 10.66 2.42.01Zm-2.64.05.07-10.74-7.89-.09L171 150h2.16c1.61 0 2-4.36 2-4.41l3.82-5.87Z" fill="#26417F"/><path d="M181.62 129.01v10.66l-2.39-.03.07-10.66 2.32.03Z" fill="#FFDFD4"/><path d="M181.62 128.76v.25l-2.32-.03v-.25l2.32.03ZM179.3 128.73v.25h-.12v-.25h.12Z" fill="#26417F"/><path d="m179.05 129-.05 10.72-3.81 5.86c0 .05-.35 4.41-2 4.41h-2.16l.13-21.13 7.89.14Z" fill="#FBC623"/><path d="m131.9 153.75-3.74 7.86s7.08 2.76 9.26 3.46c2.44-4.06 3.36-6 3.36-6s-3.78-2.07-8.88-5.32Z" fill="#4F87FD"/><path d="m311.27 151.85 2.06-9.33s-11.19-1.06-13.47-1.2c-1.36 4.54-1.76 6.69-1.76 6.69s7.41 1.99 13.17 3.84Z" fill="#FBC623"/><path d="M295.55 187.5v-9.56s-11.16 1.39-13.41 1.75c-.35 4.72-.27 6.9-.27 6.9s7.67.41 13.68.91Z" stroke="#61D3BA" stroke-miterlimit="10"/><path d="m263 114.63.63 5.86s17.19 2.83 27.87-8.14c6.5-7.35 3.61-13.24 2.59-13.35-1.02-.11-10.61 18.74-31.09 15.63Z" fill="#3571FA"/><path d="M291.48 112.35s15.32.64 20-11.33c3.23-8.15 1.32-13.62 1.32-13.62l-2.12.22s1.93 16.94-17 21.88a13.502 13.502 0 0 0-2.2 2.85Z" fill="#3571FA"/><path d="M294.09 99a8.13 8.13 0 0 0-9.92 3.33c-1.51 3.28-.29 5.7.53 6.54.65-.49 1.67-1.39 1.67-1.39s-1.93-5.21 5.67-6.11c.16.63 2.05-2.37 2.05-2.37Z" fill="#13286A"/><path d="M117.11 108.62a4.67 4.67 0 1 0 0-9.34 4.67 4.67 0 0 0 0 9.34ZM113.1 92.75c-.36.09-.73.18-1.1.3a12.693 12.693 0 0 0-8.37 8.92l3.19 1.74a9.766 9.766 0 0 1 5.89-7.17c.344-1.232.476-2.514.39-3.79ZM116.07 90.86a11.442 11.442 0 0 1-.43 3.69c3.53-.4 5.11.67 7.91 2.64 1.63-2.65 1.84-3.15 1.84-3.15a13.322 13.322 0 0 0-9.32-3.18ZM107.85 87a.555.555 0 0 1-.1-.12 20.163 20.163 0 0 0-10.56 11.9l3.08 1.65a16.94 16.94 0 0 1 10.61-10.76c-.98-.93-1.97-1.85-3.03-2.67ZM111.18 84.36a.316.316 0 0 0-.09 0c1.1 1 2.14 2.08 3.18 3.15a18.311 18.311 0 0 1 12.93 3.54 29.74 29.74 0 0 0 1.8-3.16s-8.2-6.42-17.82-3.53ZM110.24 78.65c-1.125.245-2.228.579-3.3 1-11.75 4.19-14.79 13-16.37 15.88l3.21 1.64a23.8 23.8 0 0 1 14.68-14.28l.42-.1c.39-1.38.9-2.79 1.36-4.14ZM132.57 81.77s-8.33-6.19-18.53-5.16c-.49 1.34-1.06 2.65-1.55 4 9.29-1.53 15.41 1.72 18.28 4.25 1.86-2.86 1.8-3.09 1.8-3.09Z" fill="#4F87FD"/></svg>