<svg viewBox="0 0 400 300" fill="none" xmlns="http://www.w3.org/2000/svg"><path d="M134.696 249.48v.854h5.138v-.854h-5.138Zm2.52.364v3.836h.98v-3.836h-.98Zm-8.26 4.13v5.25h1.008v-4.41h7.112v4.368h1.05v-5.208h-9.17Zm.7 1.988v.756h7.728v-.756h-7.728Zm0 1.932v.826h7.77v-.826h-7.77Zm9.212-11.354c-1.05.35-2.898.602-4.438.728.098.224.21.56.252.77 1.582-.098 3.5-.336 4.76-.714l-.574-.784Zm-4.438.728v2.1c0 1.148-.112 2.674-1.022 3.808.224.084.644.364.812.518.952-1.19 1.148-2.996 1.148-4.312v-2.114h-.938Zm-7.168 0v.826h6.496v-.826h-6.496Zm3.318 1.414v5.012h.98v-5.012h-.98Zm-2.828 1.96c0-.196.546-.504.546-.504v-.028c.868-.854 1.82-2.198 2.548-3.514l-1.05-.294c-.504 1.19-1.4 2.464-1.652 2.786-.266.322-.49.56-.714.602.112.266.266.742.322.952Zm0 0c.126-.112.56-.196 1.148-.196h4.872v-.84h-5.46l-.56.28v.756Zm-.476 1.26.098.896c1.652-.196 4.032-.448 6.328-.7v-.798c-2.408.238-4.858.476-6.426.602Zm26.488.504v-.98h-6.062c.098-.98.126-2.03.14-3.136h5.124v-.966h-10.794v.966h4.62c-.014 1.106-.042 2.156-.14 3.136h-5.348v.98h5.222c-.448 2.716-1.694 4.788-5.39 5.908.238.21.546.616.658.868 3.99-1.288 5.32-3.682 5.782-6.776h6.188Zm-4.144 5.586c-.728 0-.868-.098-.868-.56v-4.452h-1.064v4.438c0 1.246.392 1.582 1.848 1.582h2.632c1.344 0 1.666-.574 1.82-2.786-.294-.084-.756-.252-1.008-.448-.084 1.904-.196 2.226-.882 2.226h-2.478Zm8.302-7.28h1.638v-.994h-1.638v-3.178h-.98v3.178h-1.792v.994h1.792v4.438c-.728.308-1.4.574-1.918.756l.406 1.036c1.232-.546 2.814-1.246 4.298-1.932l-.21-.924c-.546.21-1.078.448-1.596.672v-4.046Zm4.69 7.196c-.91 0-1.092-.182-1.092-.924v-4.844l1.876-.798v4.718h.994v-5.138l1.946-.826c0 2.226-.028 3.78-.098 4.116-.07.308-.21.364-.42.364-.154 0-.602 0-.938-.014.126.224.21.616.252.896.392 0 .924 0 1.316-.098s.672-.35.742-.924c.112-.532.14-2.618.14-5.236l.056-.196-.728-.28-.196.154-.224.196-1.848.77v-3.472h-.994v3.892l-1.876.784v-3.374h-.994v3.808l-1.512.63.406.91 1.106-.462v4.41c0 1.498.476 1.876 2.058 1.876h3.43c1.47 0 1.792-.616 1.96-2.52a2.656 2.656 0 0 1-.938-.406c-.098 1.61-.238 1.988-1.05 1.988h-3.374Zm11.228-3.948-1.764.7v-3.948h1.82v-.994h-1.82v-3.164h-.98v3.164h-1.904v.994h1.904v4.326c-.77.294-1.484.56-2.044.77l.378 1.008a302.99 302.99 0 0 0 4.606-1.946l-.196-.91Zm4.886 3.71v-5.474h3.01v-.994h-3.01v-4.732h-1.036v11.2h-2.058v-8.246h-1.022v8.246h-1.708v.994h9.03v-.994h-3.206Zm5.992 1.918c1.47-.518 2.422-1.666 2.422-3.178 0-.98-.42-1.61-1.19-1.61-.574 0-1.064.35-1.064 1.008s.476.994 1.05.994c.084 0 .154 0 .238-.014-.07.952-.686 1.61-1.764 2.058l.308.742Zm13.286-12.292c.742.658 1.666 1.582 2.1 2.17l.714-.756c-.448-.56-1.386-1.442-2.128-2.058l-.686.644Zm1.078 11.662c.21-.28.574-.574 2.94-2.408a3.63 3.63 0 0 1-.364-.882l-2.492 1.862-.28.448.196.98Zm-1.988-8.232v1.022h2.716v-1.022h-2.716Zm1.988 8.232c0-.392 1.134-1.204 1.134-1.204v-7.028h-1.008v6.146c0 .616-.42 1.036-.686 1.19.196.21.462.644.56.896Zm4.116-4.578v.756h4.9v-.756h-4.9Zm-1.33-6.944v.798h7.658v-.798h-7.658Zm.336 1.694v.77h6.888v-.77h-6.888Zm-.756 1.75v.798h8.498v-.798h-8.498Zm1.736 5.39v.77h4.942v-.77h-4.942Zm-.742-3.766v6.692h.994v-5.88h4.704v-.812h-5.698Zm5.376 0v5.516c0 .182-.056.238-.252.238-.182.014-.854.014-1.568-.014.126.266.266.658.308.91.994.014 1.624 0 2.016-.154.392-.154.504-.434.504-.966v-5.53h-1.008Zm-2.716-6.174v4.802h1.05v-4.802h-1.05Zm9.31 3.514v.938h2.8c-.756 1.232-1.834 2.17-3.22 2.814.224.196.574.616.7.826 1.61-.84 2.828-2.03 3.668-3.64h1.554c.77 1.442 2.086 2.772 3.444 3.444.168-.252.49-.63.714-.812-1.204-.504-2.366-1.512-3.094-2.632h2.744v-.938h-4.928a12.8 12.8 0 0 0 .56-1.792c1.386-.182 2.688-.42 3.696-.742l-.812-.798c-1.638.532-4.746.854-7.35 1.008.126.238.238.63.28.882a62.275 62.275 0 0 0 3.094-.238 11.254 11.254 0 0 1-.56 1.68h-3.29Zm.196-1.89c-.476-.49-1.456-1.078-2.24-1.442l-.602.742c.798.392 1.764 1.036 2.226 1.512l.616-.812Zm-.588 3.612c-.504-.434-1.512-.98-2.338-1.316l-.588.756c.84.378 1.848.966 2.338 1.414l.588-.854Zm-1.68 7.42a49.22 49.22 0 0 0 1.82-4.256l-.826-.574c-.574 1.484-1.372 3.206-1.932 4.228l.938.602Zm3.78-4.928c-.294 1.092-.868 2.324-1.736 3.038l.756.588c.952-.812 1.484-2.156 1.834-3.346l-.854-.28Zm1.736 3.948c0 .168-.028.21-.224.224a18.79 18.79 0 0 1-1.498-.014c.126.28.266.658.308.924.938 0 1.54 0 1.904-.154.378-.154.476-.448.476-.966v-5.418h-.966v5.404Zm1.582-3.416c.448.938.826 2.17.952 2.996l.84-.322c-.126-.812-.532-2.03-.994-2.968l-.798.294Zm1.736-.336c.812 1.064 1.666 2.52 2.002 3.472l.868-.448c-.35-.966-1.204-2.38-2.072-3.416l-.798.392Zm10.206-5.25h-3.094c.014-.798.028-1.61.028-2.436h-1.022c0 .826 0 1.638-.014 2.436h-1.96v1.022h1.932c-.112 3.5-.532 6.594-2.268 8.428.252.154.63.49.784.714 1.89-2.044 2.366-5.39 2.492-9.142h2.114c-.098 5.362-.224 7.266-.546 7.658-.098.196-.238.238-.462.224-.252 0-.854 0-1.498-.056.182.294.28.742.308 1.05.616.042 1.26.042 1.638-.014.42-.042.672-.168.924-.532.434-.602.532-2.632.644-8.82v-.532Zm2.128 7.924v-7.812h2.716v7.812h-2.716Zm-.98-8.82v10.836h.98v-1.022h2.716v.924h1.036v-10.738h-4.732Z" fill="#9BA2AD"/><path d="m80.4 221.66 87.25-59.32 143.56 3.37-59.45 60.34-171.36-4.39Z" fill="#4F87FD"/><path d="M126.53 209.55s58 .15 64.94-1.7c7.4-5.62 23.54-16.08 23.54-16.08l41.76-2.37" stroke="#E0E2E3" stroke-miterlimit="10" stroke-linecap="round"/><path d="M263.83 149.79a21.347 21.347 0 0 1 21.052 25.02 21.349 21.349 0 0 1-38.12 9.13 21.35 21.35 0 0 1-4.222-11.49h.25a20.997 20.997 0 0 0 21.32 20.337 21 21 0 1 0-21.32-21.657v1.07h-.25v-1.07a21.371 21.371 0 0 1 21.29-21.34Z" fill="#26417F"/><path d="M263 164.17a7.006 7.006 0 0 1 6.375 4.013 7.002 7.002 0 0 1-11.491 7.717 6.992 6.992 0 0 1-1.734-3.52h.25a6.702 6.702 0 0 0 11.847 2.878 6.702 6.702 0 0 0-5.594-10.832 6.698 6.698 0 0 0-6.293 7.704h-.25a5.405 5.405 0 0 1-.08-1 6.997 6.997 0 0 1 6.97-6.96Z" fill="#26417F"/><path d="M263 172.09a.104.104 0 0 1 .049.006c.016.005.03.014.042.025a.128.128 0 0 1 .029.04c.006.016.01.032.01.049a.134.134 0 0 1-.038.092.134.134 0 0 1-.092.038h-6.63a2.085 2.085 0 0 1 0-.25H263Z" fill="#26417F"/><path d="M256.37 172.13a2.085 2.085 0 0 0 0 .25h-.25a1.045 1.045 0 0 1 0-.25h.25Z" fill="#26417F"/><path d="M256.12 172.13c-.01.083-.01.167 0 .25l-13.37.07a2.085 2.085 0 0 1 0-.25l13.37-.07Z" fill="#26417F"/><path d="M242.79 172.45h-.25a2.085 2.085 0 0 1 0-.25h.25a2.085 2.085 0 0 0 0 .25ZM242.54 172.45h-5.09c.06-.08.12-.17.19-.25h4.88c.002.084.009.167.02.25ZM237 129.93a4.635 4.635 0 0 1 1.61 3.76v.05c-1.6 3.43-6.91 5.37-13.09 5.42V139h-.25v.13a33.21 33.21 0 0 1-4.4-.3v-.16h-.25v.12a32.07 32.07 0 0 1-7.25-1.91l.31-.15c10 3.86 22.15 2.35 24.75-3.11a4.424 4.424 0 0 0-1.52-3.54c-2.8-2.37-8.61-1.52-9.16-1.44l.34-.3c1.41-.16 6.3-.61 8.91 1.59Z" fill="#26417F"/><path d="M239.38 166.65a9.468 9.468 0 0 1-1.74 5.58h-.28a.084.084 0 0 0-.035-.007.087.087 0 0 0-.035.007 9.129 9.129 0 0 0 1.84-5.61 10.59 10.59 0 0 0-10.64-10.75c-5.86 0-12.88-.32-19.43-.72l-.08-.25c3.8.23 7.75.43 11.55.57v.12h.25v-.11c1.52.05 3 .09 4.45.11v.12h.25v-.12h3a10.846 10.846 0 0 1 7.783 3.231 10.847 10.847 0 0 1 3.117 7.829Z" fill="#26417F"/><path d="M237.36 172.23h.28c-.07.08-.13.17-.19.25h-.09a.138.138 0 0 1-.049-.006.128.128 0 0 1-.071-.066.129.129 0 0 1-.01-.048v-.06a.092.092 0 0 1 .047-.069.088.088 0 0 1 .083-.001ZM225.92 109.54c3.94 7.66 5 14.29 3 17.76a4.404 4.404 0 0 1-.87 1.08l-.43.07a4.566 4.566 0 0 0 1.11-1.26c.76-1.27 2.78-6.27-2.93-17.46.044-.06.085-.124.12-.19Z" fill="#26417F"/><path d="M225.74 109.72c5.71 11.19 3.69 16.19 2.93 17.46a4.552 4.552 0 0 1-1.11 1.26c-4.88 4.26-22.65 12.09-22.85 12.18h-.1l4.11 14.25a669.54 669.54 0 0 1-20.86-1.62c-1.87-7.23-3.18-13.73-2.46-15.75.72-2.02 4.19-5.47 8.12-8.85 5.8-5 12.64-9.91 13.3-10.38 10.87-1.39 16.97-6.58 18.92-8.55Z" fill="#E0E2E3"/><path d="m228 128.38-.34.3-.05-.24.39-.06ZM227.62 128.69c-2.67 2.3-8.82 5.53-14.06 8.08l-.28-.11-.09.24h.06c-4.14 2-7.66 3.57-8.37 3.88l4.12 14.15h-.26l-4.11-14.25h.1c.2-.09 18-7.92 22.85-12.18l.04.19ZM226.49 108.85v.06s-.19.23-.54.59v-.07l-.22.11.07.14c-2 2-8.05 7.16-18.92 8.59h.05l-.15-.2c12.82-1.66 19-8.58 19.51-9.22-.3-1.13-4.61-17.23-13.3-25.37-6.81-4.68-14.11-2.13-19 .84a41.998 41.998 0 0 0-9.1 7.61v-.07h-.12l-.09-.08a41.968 41.968 0 0 1 9.21-7.71c7.15-4.32 13.83-4.6 19.32-.83 8.91 8.5 13.23 25.44 13.28 25.61Z" fill="#26417F"/><path d="M225.89 109.47v.07a1.53 1.53 0 0 1-.18.18l-.07-.14.25-.11ZM225.48 155.62v.12h-.25v-.12h.25ZM225.48 139.16v16.46h-.25v-16.45l.25-.01ZM225.48 139v.12h-.25V139h.25Z" fill="#26417F"/><path d="M212.93 83.48c8.69 8.14 13 24.24 13.3 25.37-.55.64-6.69 7.56-19.51 9.22-1.14.15-2.33.25-3.58.31l-3.47-12.62c.55.268 1.136.457 1.74.56.264.04.532.06.8.06a4.75 4.75 0 0 0 1.35-.19c5.86-4.81 6.87-9.14 6.88-9.18l-.24-.06s-1 4.28-6.78 9a4.691 4.691 0 0 1-2 .11c-4.39-.69-8-7.12-8.5-7.94l8.84-8-.17-.18-8.06 7.3h-.1a9.12 9.12 0 0 1-8.66-5.31 41.98 41.98 0 0 1 9.1-7.61c4.95-2.97 12.25-5.52 19.06-.84Z" fill="#61D3BA"/><path d="M220.78 155.51v.11h-.25v-.12l.25.01Z" fill="#26417F"/><path d="M220.78 138.87v16.64h-.25v-16.68l.25.04Z" fill="#26417F"/><path d="M220.78 138.71v.16h-.25v-.12l.25-.04ZM212.61 175.74l2.73 6.12h-.12l-2.39 1.14-.06-.11-.22.11v.11l-16.92 7.54-.05-.12-.22.11.05.11-3.11 1.38-1-2.27c-.9-1.74 3.52-4.14 3.95-4.37l4.61-6.41-1.07-2.39.23-.11 1 2.35 7.1-3.16h.62l-7.7 3.43-4.69 6.5c-1.3.68-4.54 2.74-3.87 4.05l.92 2.05 22.53-10-2.67-6 .35-.06Z" fill="#26417F"/><path d="m212.34 175.74 2.67 6-22.53 10-.92-2.05c-.67-1.31 2.57-3.37 3.87-4.05l4.69-6.5 7.7-3.43 4.52.03Z" fill="#FBC623"/><path d="m212.83 182.97 1.11 2.13-17.37 8.04-1.11-2.42.22-.1 1.01 2.19 16.91-7.83-1-1.9.23-.11ZM213.31 136.66l.28.11-.31.15h-.06l.09-.26ZM209.06 155.18l4.3 14.92h-.1l-2.62 1.18-.23.1-9 4.07h-.6l12.25-5.45-4.27-14.8.27-.02Z" fill="#26417F"/><path d="m208.79 155.16 4.27 14.8-12.25 5.53h-6.42c-1.42-4.42-4.31-13.63-6.47-21.94 1.8.17 10.75.99 20.87 1.61Z" fill="#E0E2E3"/><path d="m212.83 182.97-.23.11-.05-.11.22-.11.06.11ZM212.5 175.49l.11.25h-.27l-.11-.25h.27Z" fill="#26417F"/><path d="M212.5 175.49h-.27l-.64-1.43-3.21 1.43h-.62l3.73-1.66.05.11.22-.1.74 1.65Z" fill="#26417F"/><path d="m212.23 175.49.11.25h-4.52l.56-.25h3.85ZM211.59 174.06l.64 1.43h-3.85l3.21-1.43Z" fill="#FBC623"/><path d="m211.703 173.744-.219.099.05.11.219-.1-.05-.109ZM210.64 171.32l1.07 2.41-.22.1-1.07-2.41.22-.1Z" fill="#26417F"/><path d="m210.42 171.42 1.07 2.41-3.73 1.66h-6.35l9.01-4.07Z" fill="#FFDFD4"/><path d="m210.63 171.29.01.03-.22.1-.02-.03.23-.1ZM210.24 96.93l.24.06s-1 4.37-6.88 9.18a4.74 4.74 0 0 1-1.35.19c-.267 0-.535-.02-.8-.06a6.47 6.47 0 0 1-1.74-.56l-.07-.27h-.12l-.09-.09-.11.12a17.43 17.43 0 0 1-5.63-5.79h.06v-.25a.448.448 0 0 0-.19.06c-.49-.78-.78-1.33-.82-1.41l-.05-.08.07-.07.58-.53h.32v-.25h-.05l8.06-7.3.17.18-8.84 8c.45.82 4.11 7.25 8.5 7.94a4.69 4.69 0 0 0 2-.11c5.73-4.68 6.73-8.89 6.74-8.96ZM209 154.93l.08.25h-.27l-.07-.25h.26Z" fill="#26417F"/><path d="m208.72 154.91.07.25c-10.12-.62-19.07-1.44-20.87-1.61l-.06-.26c1.54.15 10.6.99 20.86 1.62Z" fill="#E0E2E3"/><path d="m208.38 175.49-.56.25h-.62l.56-.25h.62Z" fill="#26417F"/><path d="m207.76 175.49-.56.25h-6.35l.56-.25h6.35ZM207.2 175.74l-7.1 3.16-1.04-2.35 1.79-.81h6.35Z" fill="#FFDFD4"/><path d="m206.72 118.07.15.2h-.05l-.53.07.43-.27ZM206.29 118.38l.53-.07c-.66.47-7.5 5.4-13.3 10.38l-.12-.22c1-.84 2-1.68 3-2.49 4.3-3.53 8.52-6.62 9.89-7.6Z" fill="#26417F"/><path d="m206.72 118.07-.43.31c-1 .12-2.11.21-3.23.26H203l-3.54-12.86.09-.1.16.08 3.47 12.62c1.21-.06 2.4-.16 3.54-.31ZM201.41 175.49l-.56.25h-.59l.55-.25h.6Z" fill="#26417F"/><path d="m200.85 175.74-1.79.81v-.08l-.23.1v.09l-3.77 1.7v-.13l-.81-2.49h.26l.74 2.28 5-2.28h.6Z" fill="#26417F"/><path d="m200.81 175.49-.55.25h-5.79c0-.08-.05-.16-.08-.25h6.42ZM200.26 175.74l-5 2.28-.74-2.28h5.74Z" fill="#E0E2E3"/><path d="m199.6 105.49.07.27-.16-.08s.06-.06.06-.07l-.09-.08.12-.04Z" fill="#26417F"/><path d="m199.48 105.53.09.08-.06.07-.14-.07.11-.08Z" fill="#26417F"/><path d="m199.37 105.61.14.07-.09.1-.05-.17ZM199.48 105.53h-.21l.11-.12.1.12Z" fill="#26417F"/><path d="M199.37 105.61v.17c-1.42 1.56-12.18 13.44-12.87 14.75a8 8 0 0 1-2.69 3l-.2-.17a7.638 7.638 0 0 0 2.67-2.92c.72-1.44 11.72-13.44 13-14.88l.09.05ZM199.02 176.47l.04.08-.23.11-.04-.09.23-.1Z" fill="#26417F"/><path d="M193.65 99.77a17.421 17.421 0 0 0 5.63 5.79C198 107 187 119 186.33 120.41a7.638 7.638 0 0 1-2.67 2.92l-8.66-7.52a5.254 5.254 0 0 1 2.05-.68c1-.07 4.65-3.71 9.74-8.85 2.92-2.95 6.21-6.28 6.86-6.51Z" fill="#FFDFD4"/><path d="M195.76 124.43a.106.106 0 0 1-.001.047.116.116 0 0 1-.054.076.123.123 0 0 1-.045.017l-9.55 1.22h-.05l-2.44-2.12.24-.14 2.33 2 9.44-1.21a.107.107 0 0 1 .047.005.127.127 0 0 1 .041.023c.012.01.022.022.029.037a.117.117 0 0 1 .013.045ZM195.63 190.5l.05.12-.22.1-.05-.11.22-.11ZM194.47 175.74h-.27a1.484 1.484 0 0 0-.08-.25h.27c.03.09.05.17.08.25ZM194.39 175.49h-.27c-1.44-4.49-4.32-13.67-6.47-22h.27c2.16 8.37 5.08 17.58 6.47 22Z" fill="#26417F"/><path d="M194.12 175.49c.034.081.061.164.08.25h-.73c-2.28.16-5.07.35-8 .35-4.75 0-9.82-.51-13.45-2.55a.133.133 0 0 0 .048-.01.128.128 0 0 0 .04-.029.112.112 0 0 0 .025-.042.12.12 0 0 0-.018-.115.124.124 0 0 0-.055-.044c5.78 3.26 15.31 2.6 21.34 2.19h.72ZM193.7 99.51v.25h-.06l-.14-.2a.447.447 0 0 1 .2-.05Z" fill="#26417F"/><path d="m193.51 99.57.14.2c-.64.22-3.94 3.56-6.86 6.51-5.09 5.14-8.76 8.78-9.74 8.85a5.254 5.254 0 0 0-2.05.68l-.2-.18a5.562 5.562 0 0 1 2.23-.75c1-.07 5.74-4.9 9.58-8.78 3.68-3.72 6.08-6.1 6.9-6.53ZM193.61 97.24v.25h-.32l.27-.24.05-.01Z" fill="#26417F"/><path d="m193.56 97.24-.27.24c-.19.015-.38.015-.57 0l-.16-.2a1.77 1.77 0 0 1-.29.19 9.287 9.287 0 0 1-7.5-4.92h.1l-.1-.23-.12.05a3.49 3.49 0 0 1-.15-.34h.12l.1.09.05-.06a9.118 9.118 0 0 0 8.66 5.31l.13-.13ZM193.51 128.68c-3.93 3.38-7.39 6.79-8.12 8.85-.73 2.06.59 8.52 2.46 15.75h-.23c-1.87-7.23-3.15-13.73-2.42-15.81a12.392 12.392 0 0 1 2.56-3.65h.11a.114.114 0 0 0 .049-.006.116.116 0 0 0 .071-.065.105.105 0 0 0 .01-.049.139.139 0 0 0 0-.09c1.27-1.37 2.86-2.87 4.58-4.38l.93-.55ZM193.39 128.46l.12.22-1 .53.83-.72.05-.03Z" fill="#26417F"/><path d="m193.34 128.49-.83.72c-1.52.82-4.55 2.49-7.45 4.34h-.46c3.95-2.55 8.23-4.8 8.74-5.06ZM192.59 97.24l.16.2c-.14.01-.28.01-.42 0 .093-.058.18-.125.26-.2Z" fill="#26417F"/><path d="M192.3 97.43c.14.01.28.01.42 0-.82.63-5.63 2.63-10.71 4.74-5.7 2.38-12.79 5.33-13 5.89a4.695 4.695 0 0 1-.94 1.68l-.2-.17a4.27 4.27 0 0 0 .9-1.58c.1-.57 5-2.67 13.16-6 4.64-1.99 9.07-3.8 10.37-4.56Z" fill="#26417F"/><path d="M192.3 97.43c-1.3.76-5.73 2.6-10.38 4.54-8.12 3.38-13.06 5.48-13.16 6a4.27 4.27 0 0 1-.9 1.58l-7.49-6.51a6.308 6.308 0 0 1 2.81-1.27l21.62-9.31a9.29 9.29 0 0 0 7.5 4.97Z" fill="#FFDFD4"/><path d="M187.92 133.6a.153.153 0 0 1 0 .09.129.129 0 0 1-.01.048.12.12 0 0 1-.12.072h-.11l.24-.21ZM187.86 153.29l.06.26h-.27c0-.09-.05-.18-.07-.26h.28Z" fill="#26417F"/><path d="m187.92 133.6-.2.21h-3.06l.39-.25h2.78a.149.149 0 0 1 .09.04Z" fill="#26417F"/><path d="M184.66 133.81h3.06a12.36 12.36 0 0 0-2.56 3.65c-.73 2.08.55 8.58 2.42 15.81-.77-.1-9-1.07-14.79 1.76.3-1.41 2.84-13 6-16.61a31.189 31.189 0 0 1 5.87-4.61Z" fill="#E0E2E3"/><path d="M187.65 153.53h-.06a32.645 32.645 0 0 0-4.25-.25c-3.71 0-9 .55-12.51 3.26a9.171 9.171 0 0 0-3.56 6.5c-.39 3.55.42 6.4 2.41 8.46.718.736 1.54 1.363 2.44 1.86h-.5a10.245 10.245 0 0 1-2.12-1.68c-2-2.13-2.87-5-2.48-8.67a9.438 9.438 0 0 1 3.65-6.67 11.649 11.649 0 0 1 1.84-1.16h.25v-.14c5.8-2.83 14-1.86 14.79-1.76.05.07.07.16.1.25ZM185.05 133.56l-.39.25h-.46l.39-.25h.46ZM184.8 92.24l.1.23h-.1a1.553 1.553 0 0 1-.12-.22l.12-.01ZM184.68 92.29c.034.076.074.15.12.22l-21.62 9.31a6.303 6.303 0 0 0-2.81 1.27l-.19-.16a6.412 6.412 0 0 1 2.93-1.35l21.57-9.29ZM184.77 91.86v.07l-.05.06-.1-.09.15-.04Z" fill="#26417F"/><path d="M184.2 133.81h.46a31.237 31.237 0 0 0-5.86 4.61c-3.17 3.62-5.71 15.2-6 16.61l-.27.14c0-.12 2.7-13 6.1-16.92a29.85 29.85 0 0 1 5.57-4.44ZM157.44 133.56h27.15l-.39.25h-26.9l.14-.25ZM183.66 123.33l.2.17-.24.14-.2-.17.24-.14Z" fill="#26417F"/><path d="m175 115.81 8.66 7.52-.24.14-8.65-7.47.23-.19Z" fill="#FFDFD4"/><path d="m183.42 123.47.2.17a6.613 6.613 0 0 1-3.4.93c-.28.014-.56.014-.84 0a7.882 7.882 0 0 1-5.37-2.88 4.687 4.687 0 0 1-1.3-3.38 5.19 5.19 0 0 1 1.86-2.45l.19.17a4.945 4.945 0 0 0-1.81 2.36 4.462 4.462 0 0 0 1.25 3.17 7.605 7.605 0 0 0 5.19 2.79 6.5 6.5 0 0 0 4.03-.88Z" fill="#26417F"/><path d="m174.77 116 8.65 7.52a6.503 6.503 0 0 1-4 .8 7.607 7.607 0 0 1-5.19-2.79 4.462 4.462 0 0 1-1.25-3.17 4.94 4.94 0 0 1 1.79-2.36Z" fill="#FFDFD4"/><path d="m174.8 115.63.2.18-.23.14-.19-.17c.069-.056.143-.106.22-.15Z" fill="#26417F"/><path d="m168.06 109.77 6.74 5.86a1.58 1.58 0 0 0-.22.15l-4.73-4.11-2-1.7.21-.2ZM172.52 155.17l.27-.14v.14h-.27ZM172.12 173.35a.127.127 0 0 1 .08.11.116.116 0 0 1-.031.091.12.12 0 0 1-.089.039 2.864 2.864 0 0 1-.42-.24h.5-.04ZM172 173.59l-12 .31a2.085 2.085 0 0 0 0-.25l11.64-.3c.114.089.234.169.36.24ZM169.71 111.82c.02.024.032.054.032.085a.134.134 0 0 1-.032.085l-12.32 21.57h-.22a.153.153 0 0 0-.09 0l12.41-21.74a.122.122 0 0 1 .11-.072.122.122 0 0 1 .11.072Z" fill="#26417F"/><path d="m167.86 109.6.2.17-.18.19-.19-.17a1.46 1.46 0 0 0 .17-.19ZM167.69 109.79l.19.17c-.189.18-.393.344-.61.49a3.14 3.14 0 0 1-2 .65 6.35 6.35 0 0 1-3.82-1.52c-1.67-1.39-3-3.76-1.64-6.28a1.46 1.46 0 0 1 .17-.19l.19.16-.15.17c-1.26 2.36 0 4.62 1.59 6s4 2 5.49.86c.21-.154.408-.324.59-.51Z" fill="#26417F"/><path d="m160.37 103.09 7.49 6.51a1.529 1.529 0 0 1-.17.19l-7.5-6.52c.053-.068.113-.128.18-.18Z" fill="#FFDFD4"/><path d="M167.85 97.34a.128.128 0 0 1-.02.095.127.127 0 0 1-.08.055l-11.28 2.21 3.71 3.23a.99.99 0 0 0-.18.18l-4.08-3.55h.25l11.53-2.27a.12.12 0 0 1 .15.05Z" fill="#26417F"/><path d="m160.19 103.27 7.5 6.52a4.74 4.74 0 0 1-.57.46c-1.48 1.19-3.88.46-5.49-.86-1.61-1.32-2.85-3.59-1.59-6l.15-.12Z" fill="#FFDFD4"/><path d="m160.18 102.93.19.16a1.022 1.022 0 0 0-.18.18l-.19-.16c.052-.067.113-.128.18-.18ZM160 173.58v.07h-.25v-.08a25.79 25.79 0 0 0-3.352-12.697 25.79 25.79 0 0 0-9.168-9.403l.12-.22A26.001 26.001 0 0 1 160 173.58ZM160 173.65c.005.083.005.167 0 .25h-.25a2.085 2.085 0 0 0 0-.25h.25Z" fill="#26417F"/><path d="M159.72 173.91h.28a25.996 25.996 0 0 1-16.297 23.762 26 26 0 0 1-28.211-5.864 25.997 25.997 0 0 1-5.476-28.289A25.996 25.996 0 0 1 134 147.55a25.75 25.75 0 0 1 13.17 3.6l-.12.21A25.493 25.493 0 0 0 134 147.8a25.788 25.788 0 0 0-18.363 43.906 25.792 25.792 0 0 0 39.637-3.548 25.795 25.795 0 0 0 4.506-14.238l-.06-.01Z" fill="#26417F"/><path d="M159.73 173.66c.005.083.005.167 0 .25l-17.33.45v-.25l17.33-.45ZM157.44 133.56l-.14.25h-.08a.123.123 0 0 1-.085-.035.123.123 0 0 1-.035-.085.139.139 0 0 1 0-.09.153.153 0 0 1 .09 0l.25-.04Z" fill="#26417F"/><path d="m157.3 133.81-10 17.45a.94.94 0 0 0-.22-.12l10-17.54a.139.139 0 0 0 0 .09c0 .032.013.062.035.085a.123.123 0 0 0 .085.035h.1Z" fill="#26417F"/><path d="m147.33 151.26-.12.22a1.312 1.312 0 0 0-.22-.13l.12-.21c.079.03.153.07.22.12Z" fill="#26417F"/><path d="m147.21 151.48-8.59 15-.21-.13 8.58-15c.078.036.151.079.22.13ZM142.42 173.58v.53h-.25v-.53a8.273 8.273 0 0 0-3.67-6.86l.12-.21a8.47 8.47 0 0 1 3.8 7.07ZM142.4 174.11v.25h-.26a2.085 2.085 0 0 0 0-.25h.26Z" fill="#26417F"/><path d="M142.13 174.36h.26a8.48 8.48 0 1 1-8.45-9.26 8.401 8.401 0 0 1 4.47 1.28l-.12.21a8.158 8.158 0 0 0-4.35-1.24 8.229 8.229 0 0 0-6.091 13.769 8.23 8.23 0 0 0 14.281-4.769v.01Z" fill="#26417F"/><path d="M142.15 174.11c.005.083.005.167 0 .25l-8.41.22.11-.19 4.46-7.8.21.13-4.34 7.6 7.97-.21Z" fill="#26417F"/><path d="m138.62 166.51-.12.21-.21-.13.12-.21.21.13Z" fill="#26417F"/><path d="M260.097 178.494a4.773 4.773 0 0 1 0 6.746l-3.373 3.373-3.373-3.373a4.77 4.77 0 1 1 6.746-6.746Z" fill="#E0E2E3"/><path d="M256.73 184.55a2.68 2.68 0 1 0 0-5.36 2.68 2.68 0 0 0 0 5.36Z" fill="#4F87FD"/><path d="M217.22 81.1c2.1-.88.7-5.16-7.23-4.4 0 0 3.34 6 7.23 4.4Z" fill="#13286A" stroke="#26417F" stroke-width=".25" stroke-miterlimit="10"/><path d="M210 71.47v.49a6.997 6.997 0 0 1-6.45 7h-.48a6.998 6.998 0 0 1-7-6.46 7 7 0 0 1 6.46-7.5 7 7 0 0 1 5.08 1.66 6.88 6.88 0 0 1 2.39 4.81Zm-.76 3.14c.423-.986.598-2.06.51-3.13a6.73 6.73 0 0 0-6.75-6.21h-.46a6.864 6.864 0 0 0-3 1 .339.339 0 0 0 0-.09h-.25v.19a6.76 6.76 0 0 0-2.77 3.84l-.21.06.07.24h.08a6.56 6.56 0 0 0-.15 2 6.733 6.733 0 0 0 5.434 6.214A6.73 6.73 0 0 0 209.11 75c.117-.037.228-.09.33-.16l-.13-.21-.07-.02Z" fill="#26417F"/><path d="M209.77 71.48a6.572 6.572 0 0 1-.51 3.13 3.08 3.08 0 0 1-2.26.16 1.731 1.731 0 0 1-1.12-1 2.002 2.002 0 0 0 1.06-1.7 1.673 1.673 0 0 0-.78-1.44 1.55 1.55 0 0 0-1.58.13c-.14.014-.281.014-.42 0-3.41 0-4.44-3.91-4.6-4.56a6.854 6.854 0 0 1 3-1h.46a6.731 6.731 0 0 1 6.76 6.21l-.01.07Z" fill="#13286A"/><path d="m209.31 74.59.13.21a1.245 1.245 0 0 1-.33.16c.059-.113.109-.23.15-.35l.05-.02Z" fill="#26417F"/><path d="M209.26 74.61c-.041.12-.091.237-.15.35a3.44 3.44 0 0 1-2.19.06 2.06 2.06 0 0 1-1.31-1.23v-.1h.1a1.798 1.798 0 0 0 1-1.54 1.432 1.432 0 0 0-.65-1.22 1.317 1.317 0 0 0-1.35.14h-.54c-2.44 0-3.71-1.86-4.34-3.29.042-.177.059-.359.05-.54h-.25c-.13-.38-.22-.68-.27-.86a1.76 1.76 0 0 1 .22-.15c.16.65 1.19 4.58 4.6 4.56.14.014.281.014.42 0a1.552 1.552 0 0 1 1.58-.13 1.672 1.672 0 0 1 .78 1.44 1.994 1.994 0 0 1-1.06 1.7 1.734 1.734 0 0 0 1.12 1 3.08 3.08 0 0 0 2.24-.19Z" fill="#26417F"/><path d="M208 75.17a3.638 3.638 0 0 0 1.16-.21 6.728 6.728 0 0 1-11.055 1.521 6.732 6.732 0 0 1-1.695-3.961 6.56 6.56 0 0 1 .15-2c2.53-.68 3.16-2 3.3-2.75.63 1.43 1.9 3.31 4.34 3.29h.54a1.32 1.32 0 0 1 1.35-.14 1.443 1.443 0 0 1 .65 1.22 1.798 1.798 0 0 1-1 1.54h-.1v.1a2.059 2.059 0 0 0 1.28 1.22c.349.111.713.168 1.08.17Z" fill="#FFDFD4"/><path d="M199.86 67.24c.009.182-.008.364-.05.54-.08-.18-.14-.35-.2-.51l.25-.03Z" fill="#26417F"/><path d="M199.61 67.27c.06.16.12.33.2.51-.14.74-.77 2.07-3.3 2.75.009-.095.029-.19.06-.28 3.27-.93 3.05-2.89 3.04-2.98Z" fill="#26417F"/><path d="M199.61 67.27c0 .09.23 2-3 3a6.764 6.764 0 0 1 2.77-3.84c.01.16.1.46.23.84Z" fill="#13286A"/><path d="M199.55 66.17c.004.03.004.06 0 .09a1.7 1.7 0 0 0-.22.15v-.19l.22-.05ZM196.57 70.25c-.03.09-.05.185-.06.28h-.08l-.07-.24.21-.04Z" fill="#26417F"/><path d="M298.92 130s-29.48 11.69-28.78-4.12c4.08-9 22.4-2.41 12.78 12.37-9.13 9.34-25.47 8.47-31.26 3.33" stroke="#FBC623" stroke-width="3" stroke-miterlimit="10"/><path d="m245.79 79.18 4.3 9.23-10.55 2.7-4.65-5.97 10.9-5.96Z" stroke="#4F87FD" stroke-miterlimit="10"/><path d="m301.06 179.72-1.04 10.12-10.44-3.09-.93-7.5 12.41.47Z" fill="#61D3BA"/><path d="m86.79 164.96-.01-10.18 10.7 1.99 1.71 7.36-12.4.83Z" fill="#FBC623"/></svg>