<svg viewBox="0 0 400 300" fill="none" xmlns="http://www.w3.org/2000/svg"><path d="M151.366 240.8v.854h5.138v-.854h-5.138Zm2.52.364V245h.98v-3.836h-.98Zm-8.26 4.13v5.25h1.008v-4.41h7.112v4.368h1.05v-5.208h-9.17Zm.7 1.988v.756h7.728v-.756h-7.728Zm0 1.932v.826h7.77v-.826h-7.77Zm9.212-11.354c-1.05.35-2.898.602-4.438.728.098.224.21.56.252.77 1.582-.098 3.5-.336 4.76-.714l-.574-.784Zm-4.438.728v2.1c0 1.148-.112 2.674-1.022 3.808.224.084.644.364.812.518.952-1.19 1.148-2.996 1.148-4.312v-2.114h-.938Zm-7.168 0v.826h6.496v-.826h-6.496Zm3.318 1.414v5.012h.98v-5.012h-.98Zm-2.828 1.96c0-.196.546-.504.546-.504v-.028c.868-.854 1.82-2.198 2.548-3.514l-1.05-.294c-.504 1.19-1.4 2.464-1.652 2.786-.266.322-.49.56-.714.602.112.266.266.742.322.952Zm0 0c.126-.112.56-.196 1.148-.196h4.872v-.84h-5.46l-.56.28v.756Zm-.476 1.26.098.896c1.652-.196 4.032-.448 6.328-.7v-.798c-2.408.238-4.858.476-6.426.602Zm26.488.504v-.98h-6.062c.098-.98.126-2.03.14-3.136h5.124v-.966h-10.794v.966h4.62c-.014 1.106-.042 2.156-.14 3.136h-5.348v.98h5.222c-.448 2.716-1.694 4.788-5.39 5.908.238.21.546.616.658.868 3.99-1.288 5.32-3.682 5.782-6.776h6.188Zm-4.144 5.586c-.728 0-.868-.098-.868-.56V244.3h-1.064v4.438c0 1.246.392 1.582 1.848 1.582h2.632c1.344 0 1.666-.574 1.82-2.786-.294-.084-.756-.252-1.008-.448-.084 1.904-.196 2.226-.882 2.226h-2.478Zm14.854-8.232c-.714 1.974-1.694 3.584-2.982 4.886-1.33-1.358-2.324-3.01-3.01-4.886h5.992Zm3.36 0v-1.022h-5.81v-2.366h-1.05v2.366h-5.698v1.022h2.058c.798 2.226 1.89 4.116 3.332 5.642-1.498 1.232-3.332 2.128-5.558 2.772.224.238.56.742.658.994 2.254-.728 4.144-1.694 5.684-3.01 1.54 1.386 3.444 2.394 5.782 2.996.154-.294.49-.77.742-1.008-2.268-.532-4.158-1.484-5.684-2.772 1.456-1.47 2.562-3.318 3.388-5.614h2.156Zm4.466-3.332c-.742 2.114-1.974 4.2-3.276 5.558.182.238.49.77.588 1.022a15.87 15.87 0 0 0 1.288-1.638v7.77h.994v-9.38a24.52 24.52 0 0 0 1.386-3.024l-.98-.308Zm9.492 6.888h-3.794v-3.066h3.192v-1.022h-3.192v-2.674h-1.036v2.674h-1.862c.182-.63.336-1.288.462-1.946l-.98-.21c-.322 1.806-.896 3.626-1.722 4.774.266.126.7.378.896.532.378-.588.714-1.316 1.008-2.128h2.198v3.066h-3.99v1.022h3.99v4.83h1.036v-4.83h3.794v-1.022Zm2.926 6.272c1.47-.518 2.422-1.666 2.422-3.178 0-.98-.42-1.61-1.19-1.61-.574 0-1.064.35-1.064 1.008s.476.994 1.05.994c.084 0 .154 0 .238-.014-.07.952-.686 1.61-1.764 2.058l.308.742Zm13.286-12.292c.742.658 1.666 1.582 2.1 2.17l.714-.756c-.448-.56-1.386-1.442-2.128-2.058l-.686.644Zm1.078 11.662c.21-.28.574-.574 2.94-2.408a3.63 3.63 0 0 1-.364-.882l-2.492 1.862-.28.448.196.98Zm-1.988-8.232v1.022h2.716v-1.022h-2.716Zm1.988 8.232c0-.392 1.134-1.204 1.134-1.204v-7.028h-1.008v6.146c0 .616-.42 1.036-.686 1.19.196.21.462.644.56.896Zm4.116-4.578v.756h4.9v-.756h-4.9Zm-1.33-6.944v.798h7.658v-.798h-7.658Zm.336 1.694v.77h6.888v-.77h-6.888Zm-.756 1.75v.798h8.498v-.798h-8.498Zm1.736 5.39v.77h4.942v-.77h-4.942Zm-.742-3.766v6.692h.994v-5.88h4.704v-.812h-5.698Zm5.376 0v5.516c0 .182-.056.238-.252.238-.182.014-.854.014-1.568-.014.126.266.266.658.308.91.994.014 1.624 0 2.016-.154.392-.154.504-.434.504-.966v-5.53h-1.008Zm-2.716-6.174v4.802h1.05v-4.802h-1.05Zm12.502 11.13v-5.544h5.208V242.2h-5.208v-4.284h-1.092v10.864h-5.222v1.036h12.474v-1.036h-6.16Zm10.626-11.074c-.784 2.128-2.086 4.228-3.472 5.586.196.238.49.798.588 1.036 1.526-1.568 2.954-3.934 3.878-6.314l-.994-.308Zm-1.484 3.612v9.198h1.022v-10.192l-.014-.014-1.008 1.008Zm4.396 3.276v.98h5.194v-.98h-5.194Zm4.858 0v.112c-.742.91-2.198 2.548-3.388 3.78l.854.532a107.732 107.732 0 0 0 3.64-4.032l-.742-.462-.168.07h-.196Zm-3.458-6.86c-.588 2.436-1.568 5.852-2.282 7.84h1.134c.616-1.89 1.554-5.236 2.17-7.7l-1.022-.14Zm-3.15 1.554v.966h7.826v-.966h-7.826Zm-.812 2.646v.98h9.282v-.98h-9.282Zm2.492 5.726c1.33.826 2.912 2.072 3.668 2.884l.784-.784c-.784-.784-2.338-1.932-3.696-2.73l-.756.63Z" fill="#9BA2AD"/><path d="m234.24 86.34 8.59 1.39s-1.76 7.4-2.42 9.59c-4.73-.3-6.88-.66-6.88-.66s.47-4.28.71-10.32Z" fill="#FBC623"/><path d="M184.35 129.96h25.8l6.04 8.58 60.72.18v8.93l-99.38-.18v-17.25l6.82-.26Z" fill="#E4811B"/><path d="M177.53 147.47v66.76h99.38v-66.76" fill="#FDCB29"/><path d="M272.74 155.32c6.865 0 12.43-5.565 12.43-12.43 0-6.865-5.565-12.43-12.43-12.43-6.865 0-12.43 5.565-12.43 12.43 0 6.865 5.565 12.43 12.43 12.43Z" fill="#3571FA"/><path d="M272.74 150.39v-13.93M266.51 141.61l6.23-6.22 6.23 6.22" stroke="#fff" stroke-miterlimit="10" stroke-linecap="round"/><path d="M208.15 108c.55.45.63 1.59-.27 2.9-1.74 2.36-3.42 4.48-3.44 4.49-.02.01-1.83 2.41-2.84 3.55-5.14 8.12-8.78 13.48-13.25 13.48A6.394 6.394 0 0 1 186 132a42.172 42.172 0 0 1-7.42-7.35v-.45a42.934 42.934 0 0 0 7.58 7.57c5.4 2.07 9.12-3.29 15.23-12.93 1-1.16 2.82-3.54 2.84-3.56.02-.02 1.7-2.13 3.43-4.49.79-1.14.76-2.16.32-2.52-.44-.36-1-.16-1.53.42l.56-.73c.172-.11.373-.166.576-.159.204.008.401.077.564.199Z" fill="#26417F"/><path d="M198.5 107.53c.13-.12.38-.42.94-1.09.56-.67 1.56-1.87 2.83-3.41a.735.735 0 0 1 .317-.272.733.733 0 0 1 .413-.058 1.078 1.078 0 0 1 .85.6.643.643 0 0 1 0 .51 1.029 1.029 0 0 1-.17.28l-1.82 2.22-1.86 2.28.21.18 1.79-2.27 1.81-2.23a.787.787 0 0 0 .18-.3 1.44 1.44 0 0 1 1.3-.76.94.94 0 0 1 .81.55 1.385 1.385 0 0 1-.33 1.4l-.43.55c-1.51 1.94-4 5.22-4 5.27l.22.16s2.66-3.5 4.14-5.42a1.354 1.354 0 0 1 1-.41.858.858 0 0 1 .76.51 1.438 1.438 0 0 1-.33 1.38l-1 1.26c-1.43 1.84-3.17 4.15-3.19 4.17l.22.16 3.16-4.14c.56-.58 1.16-.73 1.53-.42.37.31.47 1.38-.32 2.52-1.73 2.36-3.4 4.47-3.43 4.49-.03.02-1.84 2.4-2.84 3.56-6.11 9.64-9.83 15-15.23 12.93a42.934 42.934 0 0 1-7.58-7.57v-.68l7.72-8.43 3.26 2.77.09-.09c.22-.21 5.38-5.31 5.95-6.26v-.07c-.43-1.1.17-6.33.37-8 0-.31.05-.54.06-.64a.32.32 0 0 1 .35-.28c.44 0 1.18.45 1.41 1.72.248 1.104.392 2.229.43 3.36V107.77a3.928 3.928 0 0 1-.54 4.53l.2.2a4.207 4.207 0 0 0 .6-4.84l.15-.13Z" fill="#FFDFD4"/><path d="M207.81 105.68a1.634 1.634 0 0 1-.37 1.65c-.14.17-.28.36-.44.57a2.455 2.455 0 0 0-.76.53l1-1.26a1.438 1.438 0 0 0 .33-1.38.869.869 0 0 0-.306-.365.866.866 0 0 0-.454-.145 1.357 1.357 0 0 0-1 .41l.28-.36.16-.23c.199-.082.415-.116.63-.1a1.127 1.127 0 0 1 .93.68Z" fill="#26417F"/><path d="m207 107.9-.56.73-.19-.19c.213-.226.468-.409.75-.54ZM206.42 103.65a1.54 1.54 0 0 1-.21 1.45 1.735 1.735 0 0 0-.81.61l.43-.55a1.386 1.386 0 0 0 .33-1.4.946.946 0 0 0-.81-.55 1.445 1.445 0 0 0-1.3.76c.085-.17.119-.361.1-.55a1.544 1.544 0 0 1 1.24-.49 1.243 1.243 0 0 1 1.03.72ZM206.22 108.47l.19.19-3.16 4.14-.22-.16s1.76-2.33 3.19-4.17Z" fill="#26417F"/><path d="m206.21 105.1-.16.23-.28.36a2.187 2.187 0 0 0-.26.34l-.23-.15.15-.2a1.73 1.73 0 0 1 .78-.58Z" fill="#26417F"/><path d="M205.48 106.06c.075-.122.162-.236.26-.34-1.48 1.92-4.11 5.38-4.14 5.42l-.22-.16s2.51-3.33 4-5.27l-.15.2.25.15ZM204.15 103.42a.996.996 0 0 1-.1.55l-.22-.15c.089-.147.197-.281.32-.4Z" fill="#26417F"/><path d="M204.1 103.19a.63.63 0 0 1 .05.23 2.03 2.03 0 0 0-.33.38.643.643 0 0 0 0-.51 1.068 1.068 0 0 0-.85-.6.733.733 0 0 0-.413.058.735.735 0 0 0-.317.272c-1.27 1.54-2.2 2.67-2.83 3.41-.63.74-.81 1-.94 1.09v-.37c.44-.52 1.65-2 3.57-4.29a.995.995 0 0 1 1-.45 1.325 1.325 0 0 1 1.06.78ZM203.81 103.82l.22.15a.808.808 0 0 1-.18.3L202 106.5l-1.85 2.27-.21-.18 1.84-2.27 1.82-2.22c.085-.081.156-.176.21-.28ZM198.5 107.59a4.205 4.205 0 0 1-.6 4.84l-.2-.2a3.93 3.93 0 0 0 .54-4.53V107.49l.1.07s.06.06.18 0l-.02.03Z" fill="#26417F"/><path d="M198.5 107.52c-.12.09-.14.07-.18 0l-.1-.07.08-.1.18-.21c0 .17.02.3.02.38Z" fill="#26417F"/><path d="M198.05 104c.231 1.026.375 2.07.43 3.12l-.18.21-.08.1a18.104 18.104 0 0 0-.43-3.36c-.23-1.27-1-1.72-1.41-1.72a.319.319 0 0 0-.35.28c0 .1 0 .33-.06.64-.2 1.7-.8 6.93-.37 8v.07c-.57 1-5.73 6-5.95 6.26l-.09.09-3.29-2.69.19-.21 3.06 2.61c.69-.69 5.13-5.1 5.77-6.07-.4-1.27.17-6.21.38-8.09 0-.32.06-.54.07-.64a.578.578 0 0 1 .61-.53c.58.03 1.46.53 1.7 1.93Z" fill="#26417F"/><path d="M198.22 107.46v.02h-.01l.01-.02ZM188.26 112.72v.08l-.06.08-1.78 1.94-.11-.09-.18.21.1.09-7.72 8.43h-.26v.25l-3.23-9.55.27-.09 3.08 9.13 9.63-10.43c-.69-1.15-8.23-13.27-22-13.7v-.28c14.51.45 22.18 13.79 22.26 13.93Z" fill="#26417F"/><path d="m188 112.77-9.56 10.44-3.08-9.13-.27.09 3.23 9.55.37 17.6c-.27.32-2.24 2.47-6.66 3.55-4.42 1.08-12.19 1.27-24.39-3.86v-5.62l1 .86a66.81 66.81 0 0 0 6.7 4.06s2.71 1.28 5.22 2.29c.314.146.654.228 1 .24.29.016.576-.069.81-.24a.89.89 0 0 0 .32-.89.689.689 0 0 0-.11-.29l1.21.48c.311.159.651.251 1 .27.281.008.557-.072.79-.23a1.196 1.196 0 0 0 .44-1.13 1.4 1.4 0 0 0-.29-.69l.15.05c.268.102.553.156.84.16.341.015.675-.103.93-.33a1.37 1.37 0 0 0 .3-1.41 1.485 1.485 0 0 0-.45-.69 1 1 0 0 0 .66-.58 1.538 1.538 0 0 0-.46-1.91c-.47-.21-1.66-.6-2.81-1l-1.94-.65a7.45 7.45 0 0 0 2.51-.3c1.17-.45 1.15-1.14 1.08-1.42a1.229 1.229 0 0 0-1.24-.93l-6.62.51-7.38-6.07 1.86-6.07h.64v-.09c.66-1.89 2.48-7.56 2.5-7.62l-.27-.07s-1.77 5.55-2.46 7.51c-1.29.09-6.94.07-12.88-5.84C143 106.36 151.41 99 164.78 99h1.16c13.8.5 21.34 12.62 22.06 13.77Z" fill="#61D3BA"/><path d="m186.46 114.82-.19.21-.1-.09.18-.21.11.09ZM178.58 124.59l.37 16.78h-.13l-.11-.09v.05l-.37-17.6.25-.28v.68-.08l-.22.16s.04.15.21.38Z" fill="#26417F"/><path d="m178.82 141.38.1.08a8.783 8.783 0 0 1-1.54 1.38.272.272 0 0 1 0-.09h-.28v.25a15.614 15.614 0 0 1-5 2.12 23.661 23.661 0 0 1-5.63.63 35.162 35.162 0 0 1-3.67-.21v-.12h-.27v.12A53.785 53.785 0 0 1 149 141.9v-.19h-.22v.11c-.45-.18-.91-.36-1.37-.56v-.11h.23V141c12.2 5.13 20 4.93 24.39 3.86 4.39-1.07 6.39-3.23 6.66-3.55l.13.07Z" fill="#26417F"/><path d="M178.82 141.38h-.15v-.05l.15.05ZM178.57 124.14v.45c-.17-.23-.27-.36-.27-.37l.22-.16.05.08ZM178.55 123.46l-.25.28-.02-.02v-.25l.27-.01ZM177.38 142.84c.2 2.07 2.73 28.79-1.28 34.92-1.52 2.31-6.87 7.11-13 12.26v-.08h-.27v.27c-6.52 5.43-13.88 11.22-18.57 14.85L144 205l-.21.47c-.14.13-.29.23-.42.34-2.34 1.81-3.81 2.92-3.81 2.92l-.11.09-3.24-4.69.22-.15 3.08 4.44c.39-.29 1.73-1.32 3.69-2.84 8.77-6.77 29.48-23 32.7-28 3.82-5.84 1.5-31.73 1.23-34.57l.25-.17ZM177.37 142.75a.272.272 0 0 0 0 .09l-.27.19v-.25l.27-.03Z" fill="#26417F"/><path d="M177.11 143c.27 2.84 2.59 28.73-1.23 34.57-3.22 4.91-23.93 21.18-32.7 28-2 1.52-3.3 2.55-3.69 2.84l-3.08-4.41.08-.06-.16-.22-.07.05-7.66-11.07 31.53-22.58 2.67-24.5c1.219.134 2.444.204 3.67.21a23.661 23.661 0 0 0 5.63-.63 15.622 15.622 0 0 0 5.01-2.2Z" fill="#E0E2E3"/><path d="M173.49 88a1.881 1.881 0 0 1-.16 3.75 1.99 1.99 0 0 0 .06-.24 1.602 1.602 0 0 0 1.504-1.527 1.596 1.596 0 0 0-1.364-1.653c-.01-.16-.03-.26-.04-.33Z" fill="#26417F"/><path d="M173.53 88.27a1.6 1.6 0 0 1-.14 3.18c.164-.62.248-1.259.25-1.9a6.562 6.562 0 0 0-.07-1 1.262 1.262 0 0 0-.04-.28Z" fill="#FFDFD4"/><path d="M173.57 88.54c.048.331.072.666.07 1a7.522 7.522 0 0 1-.25 1.9.07.07 0 0 1-.06 0v.22a7.64 7.64 0 0 1-14.63.12v-.28h-.1a7.166 7.166 0 0 1-.16-3.2.65.65 0 0 1 .24 0 6.368 6.368 0 0 0-.11 1.24 7.37 7.37 0 0 0 14.74 0v-.67c.101-.098.188-.209.26-.33Z" fill="#26417F"/><path d="M173.53 88.27c.009.09.009.18 0 .27l-.27-.1a7.36 7.36 0 0 0-8.8-6.14v-.13h-.28a.273.273 0 0 0 0 .07h-.12c.002.047.002.093 0 .14a7.387 7.387 0 0 0-5.28 5.62h-.05a.81.81 0 0 0-.22 0 7.638 7.638 0 0 1 12.345-4.48 7.638 7.638 0 0 1 2.655 4.43.41.41 0 0 0-.16 0v.28a.653.653 0 0 1 .18.04Z" fill="#26417F"/><path d="m173.3 88.44.27.1a1.627 1.627 0 0 1-.24.34 2.99 2.99 0 0 0-.05-.4l.02-.04ZM173.53 88.27a.645.645 0 0 0-.2 0V88a.41.41 0 0 1 .16 0c.01.07.03.17.04.27ZM173.39 91.45a1.99 1.99 0 0 1-.06.24v-.22c.011.002.022 0 .032-.003a.07.07 0 0 0 .028-.017Z" fill="#26417F"/><path d="M173.33 88.88v.67a7.37 7.37 0 1 1-14.74 0 6.368 6.368 0 0 1 .11-1.24 4.431 4.431 0 0 0 3.48-1 7.09 7.09 0 0 0 2.06-4.39c.17 1.12.61 3.2 1.6 3.71a4.004 4.004 0 0 0 3.13.29 2.94 2.94 0 0 0 2.9 2.51 1.752 1.752 0 0 0 1.46-.55Z" fill="#FFDFD4"/><path d="M173.28 88.48c.026.132.042.266.05.4a1.753 1.753 0 0 1-1.4.57 2.94 2.94 0 0 1-2.9-2.51 4 4 0 0 1-3.13-.29c-1-.51-1.43-2.59-1.6-3.71.031-.182.051-.365.06-.55h.14c.07.64.45 3.51 1.53 4.06a3.996 3.996 0 0 0 3.08.23l.18-.06v.19a2.598 2.598 0 0 0 2.65 2.41 1.4 1.4 0 0 0 1.34-.74Z" fill="#26417F"/><path d="M173.28 88.48a1.4 1.4 0 0 1-1.34.69 2.6 2.6 0 0 1-2.65-2.41v-.19l-.18.06a4 4 0 0 1-3.11-.23c-1.08-.55-1.46-3.42-1.53-4.06a7.357 7.357 0 0 1 8.81 6.14Z" fill="#13286A"/><path d="M167.83 135.43a1.54 1.54 0 0 1 .46 1.91 1 1 0 0 1-.66.58 1.32 1.32 0 0 0-.45-.25.75.75 0 0 0 .86-.46 1.268 1.268 0 0 0-.35-1.54c-.43-.18-1.61-.58-2.76-1-2.68-.9-2.68-.91-2.66-1.09a.187.187 0 0 1 .19-.12h.29a8.017 8.017 0 0 0 2.74-.26c.68-.27 1-.67.92-1.1a1.004 1.004 0 0 0-1-.72l-6.73.51h-.05l-7.56-6.22v-.09l1.87-6.08h.29l-1.86 6.07 7.38 6.07 6.62-.51a1.231 1.231 0 0 1 1.24.93c.07.28.09 1-1.08 1.42a7.453 7.453 0 0 1-2.51.3l1.94.65c1.21.4 2.4.79 2.87 1Z" fill="#26417F"/><path d="M168.08 138.61a1.371 1.371 0 0 1-.3 1.41 1.308 1.308 0 0 1-.93.33 2.46 2.46 0 0 1-.84-.16l-.15-.05a1.74 1.74 0 0 0-.84-.62c.39.15.76.3 1.08.41a1.423 1.423 0 0 0 1.49-.11 1.093 1.093 0 0 0 .22-1.12 1.122 1.122 0 0 0-.8-.79c.109.039.224.059.34.06a.656.656 0 0 0 .28-.05c.212.183.368.422.45.69Z" fill="#26417F"/><path d="M167.69 135.67a1.268 1.268 0 0 1 .35 1.54.75.75 0 0 1-.86.46h-.05a.603.603 0 0 0-.18 0 50.395 50.395 0 0 1-6-2.4l-.11.25a46.967 46.967 0 0 0 6.07 2.42h.1a1.119 1.119 0 0 1 .8.79c.071.189.087.393.048.591a1.078 1.078 0 0 1-.268.529 1.423 1.423 0 0 1-1.49.11c-.32-.11-.69-.26-1.08-.41-2.58-1.05-6.21-2.89-6.25-2.93l-.12.26s3.67 1.86 6.27 2.92h.06a1.398 1.398 0 0 1 .9 1.07.879.879 0 0 1-.34.85 1.494 1.494 0 0 1-1.56-.05l-1.87-.78h-.06a1.207 1.207 0 0 0-.35-.15c-1.63-.71-2.92-1.32-2.93-1.33l-.12.25s1.51.72 3.3 1.49h.05a1 1 0 0 1 .5.64.628.628 0 0 1-.028.338.627.627 0 0 1-.202.272 1.577 1.577 0 0 1-1.57 0c-2.51-1-5.18-2.28-5.21-2.29a69.669 69.669 0 0 1-6.63-4c-10.58-8.72-11.87-10-10.1-15.59 1.49-4.12 2.08-6 2.25-6.56 5.09 4.89 9.94 5.55 12 5.6l-1.87 6.08v.09l7.56 6.22h.05l6.73-.51a.996.996 0 0 1 1 .72c.1.43-.24.83-.92 1.1a8.012 8.012 0 0 1-2.74.26h-.29a.184.184 0 0 0-.114.029.183.183 0 0 0-.076.091c0 .18 0 .19 2.66 1.09 1.08.36 2.26.76 2.69.94Z" fill="#FFDFD4"/><path d="M167.63 137.92a.653.653 0 0 1-.28.05 1.062 1.062 0 0 1-.34-.06h-.1v-.27a.603.603 0 0 1 .18 0h.05c.182.057.349.153.49.28Z" fill="#26417F"/><path d="M167 137.61v.27a46.967 46.967 0 0 1-6.07-2.42l.11-.25a50.325 50.325 0 0 0 5.96 2.4ZM166.15 140.83a1.19 1.19 0 0 1-.44 1.13 1.345 1.345 0 0 1-.79.23 2.497 2.497 0 0 1-1-.27l-1.21-.48a1.386 1.386 0 0 0-.55-.55l1.87.78a1.503 1.503 0 0 0 1.56.05.884.884 0 0 0 .34-.85 1.4 1.4 0 0 0-.9-1.07c.31.13.61.24.88.34.14.205.223.443.24.69ZM166 98.79v.28h-1.16c-13.37 0-21.74 7.32-23.93 14.33 5.94 5.91 11.59 5.93 12.88 5.84.69-2 2.44-7.46 2.46-7.51l.27.07c0 .06-1.84 5.73-2.5 7.62v.09h-.64v-.1l-.26-.08-.06.18c-2.05-.05-6.9-.71-12-5.6.05-.14.07-.22.07-.22l-.27-.07v.07l-.19-.19h-.06v-.09c2.18-7.13 10.66-14.59 24.22-14.59.34-.05.72-.05 1.17-.03Z" fill="#26417F"/><path d="M165.86 140.14c-.27-.1-.57-.21-.88-.34h-.06l.1-.25c.333.108.626.313.84.59ZM165 139.52l-.1.25c-2.6-1.06-6.24-2.9-6.27-2.92l.12-.26s3.69 1.88 6.25 2.93ZM164.48 82.34h-.14a.085.085 0 0 0 0-.05h-.16a.273.273 0 0 1 0-.07h.28s.01.04.02.12Z" fill="#26417F"/><path d="M164.35 82.32a.085.085 0 0 1 0 .05h-.14a.335.335 0 0 1 0-.1l.14.05ZM164.2 82.41h.14a4.62 4.62 0 0 1-.06.55c-.04-.25-.07-.43-.08-.55Z" fill="#26417F"/><path d="M164.28 82.92a7.09 7.09 0 0 1-2.06 4.39 4.43 4.43 0 0 1-3.48 1 2.432 2.432 0 0 1 0-.27 4.173 4.173 0 0 0 3.26-.92c1.65-1.43 2-4.06 2-4.67a.23.23 0 0 1 .14 0c.07.08.1.26.14.47ZM164.19 82.31a.335.335 0 0 0 0 .1.23.23 0 0 0-.14 0 1.634 1.634 0 0 0 0-.14l.14.04ZM163.07 190l1 17.61h-1.84v-.15H162v.15h-15.95v-.15h-.27v.15h-2.95l.94-2.19.47-.35-1 2.26h20.56l-1-17.11.27-.22Z" fill="#26417F"/><path d="M164.06 82.45c-.05.61-.37 3.24-2 4.67a4.17 4.17 0 0 1-3.26.92 7.397 7.397 0 0 1 5.26-5.59Z" fill="#13286A"/><path d="m162.81 190.24 1 17.11h-20.6l1-2.26c4.72-3.63 12.08-9.42 18.6-14.85Z" fill="#E0E2E3"/><path d="M163.07 189.94v.06l-.26.22V190l.26-.06ZM162.81 145.45v.12h-.27v-.12h.27ZM162.77 141.73a.893.893 0 0 1-.32.89 1.259 1.259 0 0 1-.81.24 2.585 2.585 0 0 1-1-.24c-2.51-1-5.2-2.28-5.22-2.29a66.997 66.997 0 0 1-6.7-4.06l-1-.86v-.3h-.28v.07c-9.49-7.85-10.59-9.32-8.84-14.8 1.65-4.57 2.18-6.35 2.28-6.69l.23.22c-.17.59-.76 2.44-2.25 6.56-1.77 5.54-.48 6.87 10.1 15.59a69.544 69.544 0 0 0 6.63 4s2.7 1.28 5.21 2.29a1.577 1.577 0 0 0 1.57 0 .617.617 0 0 0 .23-.61.999.999 0 0 0-.5-.64l.66.29a.687.687 0 0 1 .01.34Z" fill="#26417F"/><path d="m162.8 145.57-2.67 24.5-31.53 22.58 7.66 11.07-.23.16-6.27-9.07.17-.11-.14-.24-.19.13-1.38-2 17.15-12.28v.07h.27v-.3l14.21-10.18 2.66-24.38.29.05Z" fill="#26417F"/><path d="m162.53 145.53-2.66 24.38-14.21 10.18L149 141.9a53.777 53.777 0 0 0 13.53 3.63Z" fill="#E0E2E3"/><path d="m162.66 141.44-.66-.29h-.05a1.246 1.246 0 0 0-.33-.15l.08-.26.35.15h.06c.232.127.423.318.55.55ZM162.25 216.1v2.1h-16.47v-.36h.26v-2.1c1.09-.5 8.7-3.75 15.93.15v.22l.28-.01Zm-.27 1.82v-1.74c-7.36-3.78-15.06-.61-15.86-.19l-.05 1.92 15.91.01Z" fill="#26417F"/><path d="M162.25 216v.07H162v-.22l.21.11.04.04Z" fill="#26417F"/><path d="M162.25 212v4h-.06l-.21-.11V212h.27ZM162.25 210.21V212H162v-1.64h.07l.18-.15ZM162.25 207.63v2.58l-.2.09h-.07v-2.7l.27.03Z" fill="#26417F"/><path d="M162.26 207.48h-.28v.14h.28v-.14ZM162.05 140.87l-.35-.15c.124.032.242.082.35.15Z" fill="#26417F"/><path d="M162 216.18v1.74h-15.93l.05-1.92c.8-.43 8.5-3.6 15.88.18Z" fill="#FBC623"/><path d="M162 212v3.91c-7.23-3.9-14.84-.65-15.93-.15v-5.11c1.32.44 9.37 2.92 15.93 0V212Z" fill="#FBC623"/><path d="M162 210.33v.3c-6.56 2.91-14.61.43-15.93 0v-.3c.93.31 9.24 3.04 15.93 0Z" fill="#26417F"/><path d="M162 207.63v2.7c-6.67 3-15 .31-15.93 0v-2.69l15.93-.01Z" fill="#FFDFD4"/><path d="M161.62 141c.117.034.228.084.33.15a92.11 92.11 0 0 1-3.3-1.49l.12-.25s1.3.62 2.93 1.33l-.08.26ZM158.78 88c-.005.09-.005.18 0 .27a.65.65 0 0 0-.24 0 1.31 1.31 0 0 1 0-.28.81.81 0 0 1 .22 0l.02.01ZM158.72 91.53v.28a1.537 1.537 0 0 1-.08-.29l.08.01Z" fill="#26417F"/><path d="M158.62 91.52c.017.099.044.196.08.29a1.902 1.902 0 0 1-1.88-1.88 2.01 2.01 0 0 1 .66-1.47 1.57 1.57 0 0 1 1-.42 1.192 1.192 0 0 0 0 .28c-.294.02-.573.14-.79.34a1.704 1.704 0 0 0-.57 1.27 1.599 1.599 0 0 0 1.5 1.59Z" fill="#26417F"/><path d="M158.46 88.32a7.166 7.166 0 0 0 .16 3.2 1.6 1.6 0 0 1-1.52-1.59 1.72 1.72 0 0 1 .57-1.27 1.3 1.3 0 0 1 .79-.34Z" fill="#FFDFD4"/><path d="M153.32 119.41v.1H153l.06-.18.26.08ZM149 141.71v.19l-.22-.09v-.11l.22.01Z" fill="#26417F"/><path d="m149 141.9-3.36 38.19-.29.21 3.43-38.49.22.09ZM147.62 141v.1h-.23v-5.95l.28.23-.05 5.62Z" fill="#26417F"/><path d="M147.62 135.11v.3l-.28-.23v-.07h.28ZM146.05 215.73v2.1h-.26l.06-2h.07l.13-.1Z" fill="#26417F"/><path d="M146.05 210.75v5l-.13.06h-.07l-.06 2v-7.08l.26.02Z" fill="#26417F"/><path d="M146.05 210.62v.13h-.27v-.53l.19.07h.08v.33Z" fill="#26417F"/><path d="M146.05 207.63v2.69h-.08l-.19-.07v-2.59l.27-.03ZM146.06 207.48h-.28v.14h.28v-.14ZM145.66 180.09l-.03.3-.27-.02.01-.07.29-.21ZM144.25 205.06l-.47.35.22-.41.25.06ZM140.81 113.62l.27.07s0 .08-.07.22l-.23-.22.03-.07ZM139.59 218v.14H128.24l-11.65-15.44 8.55-6.28.54.68-.1.07.14.23.14-.09 7.08 8.75-.1.07.15.22.11-.08.69.86h.07v5.83c.81.2 5.68 1.4 5.73 5.04Zm-11.2-.13h10.93c-.19-3.65-5.56-4.67-5.62-4.68h-.11v-5.92l-8.49-10.47-8.1 5.95 11.39 15.12Z" fill="#26417F"/><path d="M139.32 217.9h-10.93L117 202.75l8.11-5.94 8.49 10.47v5.92h.11c.05.03 5.42 1.05 5.61 4.7Z" fill="#FBC623"/><path d="m136.33 203.67.16.22-.08.06-.15-.23.07-.05Z" fill="#26417F"/><path d="m136.26 203.72.15.23-.22.15-.16-.22.23-.16Z" fill="#26417F"/><path d="m136.19 204.1-3.08 2.18h-.01l-.16-.22 3.09-2.18.16.22Z" fill="#26417F"/><path d="m129.75 194.81 6.28 9.07-3.09 2.18-7.08-8.75 3.89-2.5Z" fill="#FFDFD4"/><path d="m132.94 206.06.16.22-.11.07-.15-.22.1-.07ZM129.79 194.46l.14.24-.18.11-.15-.22.19-.13Z" fill="#26417F"/><path d="m129.6 194.59.15.22-3.89 2.5-.18-.21 3.92-2.51ZM125.86 197.31l-.14.09-.14-.23.1-.07.18.21Z" fill="#26417F"/><path d="m191.92 206.2.35-4.77s-14.69 2.27-26.58-3.44l.54 5.84s10.57 5.77 25.69 2.37Z" fill="#4F87FD"/><path d="M165.66 198.17s2.71-5.88 11.94-7.45v3.68a21.639 21.639 0 0 0-8.79 4.89c-2.72-.65-3.15-1.12-3.15-1.12ZM276.91 154.91v6.18s10.68-.37 10 1.21c3.33-.81 6-1.28 7.36-3.18 1.36-1.9-9.82-4.12-17.36-4.21Z" fill="#13286A"/><path d="m294.3 159.34-.35 7s-.58 1.29-11.35 3.16c-7.47 1.28-17.94 2.37-17.94 2.37s-1-6.1-1.1-6.58c4.774-.268 9.525-.856 14.22-1.76 6.55-1 14.74-1.45 16.58-4.48" fill="#4F87FD"/><path d="M222.59 127.15s46.32-15.34 29.2-25.93c-10.16-5.68-28.37 12.35-8.89 19.66 17.65 3.19 31.85-14 31.4-20.06" stroke="#FBC623" stroke-width="3" stroke-miterlimit="10"/><path d="M218.19 103.37c1.09.57 5.26 2.47 5.26 2.47a30.862 30.862 0 0 1-3.38 4.14c-2.07 2.13-2.15 2.23-3.45 1.54a30.807 30.807 0 0 0-3.82-1.52s5.2-5.94 5.39-6.63Z" stroke="#4F87FD" stroke-miterlimit="10"/><path d="M282.28 119.2c-1.09.58-5.25 2.47-5.25 2.47a29.526 29.526 0 0 0 3.38 4.15c2.07 2.12 2.15 2.22 3.44 1.53a31.882 31.882 0 0 1 3.83-1.52s-5.17-5.94-5.4-6.63ZM254.73 180.87v8.51s37.66-1.49 44.6-7.83v-7.49s-14.21 6.55-44.6 6.81Z" fill="#61D3BA"/></svg>