<svg viewBox="0 0 400 300" fill="none" xmlns="http://www.w3.org/2000/svg"><path d="M163.586 240.8v.854h5.138v-.854h-5.138Zm2.52.364V245h.98v-3.836h-.98Zm-8.26 4.13v5.25h1.008v-4.41h7.112v4.368h1.05v-5.208h-9.17Zm.7 1.988v.756h7.728v-.756h-7.728Zm0 1.932v.826h7.77v-.826h-7.77Zm9.212-11.354c-1.05.35-2.898.602-4.438.728.098.224.21.56.252.77 1.582-.098 3.5-.336 4.76-.714l-.574-.784Zm-4.438.728v2.1c0 1.148-.112 2.674-1.022 3.808.224.084.644.364.812.518.952-1.19 1.148-2.996 1.148-4.312v-2.114h-.938Zm-7.168 0v.826h6.496v-.826h-6.496Zm3.318 1.414v5.012h.98v-5.012h-.98Zm-2.828 1.96c0-.196.546-.504.546-.504v-.028c.868-.854 1.82-2.198 2.548-3.514l-1.05-.294c-.504 1.19-1.4 2.464-1.652 2.786-.266.322-.49.56-.714.602.112.266.266.742.322.952Zm0 0c.126-.112.56-.196 1.148-.196h4.872v-.84h-5.46l-.56.28v.756Zm-.476 1.26.098.896c1.652-.196 4.032-.448 6.328-.7v-.798c-2.408.238-4.858.476-6.426.602Zm26.488.504v-.98h-6.062c.098-.98.126-2.03.14-3.136h5.124v-.966h-10.794v.966h4.62c-.014 1.106-.042 2.156-.14 3.136h-5.348v.98h5.222c-.448 2.716-1.694 4.788-5.39 5.908.238.21.546.616.658.868 3.99-1.288 5.32-3.682 5.782-6.776h6.188Zm-4.144 5.586c-.728 0-.868-.098-.868-.56V244.3h-1.064v4.438c0 1.246.392 1.582 1.848 1.582h2.632c1.344 0 1.666-.574 1.82-2.786-.294-.084-.756-.252-1.008-.448-.084 1.904-.196 2.226-.882 2.226h-2.478Zm16.94-11.228c-.336.812-.98 1.932-1.484 2.646l.896.378c.504-.686 1.106-1.708 1.582-2.618l-.994-.406Zm-8.386 5.04c-.532-.49-1.61-1.148-2.478-1.582l-.588.728c.868.462 1.932 1.176 2.45 1.68l.616-.826Zm-1.75 7.21a50.619 50.619 0 0 0 2.24-4.536l-.77-.63c-.714 1.582-1.694 3.416-2.366 4.508l.896.658Zm-.658-11.774c.854.462 1.89 1.176 2.38 1.694l.644-.812c-.518-.49-1.568-1.176-2.422-1.596l-.602.714Zm6.02 2.156c-.224-.714-.854-1.778-1.456-2.562l-.882.406c.588.798 1.19 1.904 1.4 2.618l.938-.462Zm-.924 5.824v-1.498h5.138v1.498h-5.138Zm5.138-3.892v1.484h-5.138v-1.484h5.138Zm1.008-.98h-3.024v-3.976h-1.022v3.976h-3.122v8.82h1.022v-3.052h5.138v1.722c0 .196-.07.266-.294.28-.21 0-.952 0-1.75-.028.14.294.294.714.336.994 1.064 0 1.75 0 2.184-.168.406-.182.532-.476.532-1.064v-7.504Zm11.844-.868h-6.496v-1.134h6.496v1.134Zm0 1.96h-6.496v-1.162h6.496v1.162Zm0 1.946h-6.496v-1.162h6.496v1.162Zm1.05-5.866h-4.228c.182-.322.378-.7.574-1.078l-1.204-.21c-.098.35-.294.868-.462 1.288h-3.234v6.692h8.554v-6.692Zm-5.74 7.392c.812.574 1.708 1.414 2.114 2.044l.798-.602c-.42-.63-1.33-1.428-2.142-1.96l-.77.518Zm-4.228 3.78c.924-.756 1.47-1.96 1.806-3.052l-.896-.336c-.308 1.008-.896 2.142-1.75 2.8l.84.588Zm4.69-.546c-.756 0-.868-.07-.868-.434v-2.296h-1.022v2.296c0 1.078.378 1.358 1.82 1.358h2.716c1.162 0 1.47-.364 1.61-1.904-.28-.07-.714-.21-.952-.364-.042 1.176-.14 1.344-.728 1.344h-2.576Zm4.032-2.464c1.008.882 2.058 2.142 2.492 3.01l.882-.574c-.448-.896-1.54-2.1-2.562-2.954l-.812.518Zm12.292-5.012v1.232h-2.352v-1.232h2.352Zm3.374 1.232h-2.436v-1.232h2.436v1.232Zm-2.436 2.044v-1.274h2.436v1.274h-2.436Zm-3.29 0v-1.274h2.352v1.274h-2.352Zm0 .798h2.352v2.268h.938v-2.268h2.436v1.274c0 .182-.056.238-.238.238-.168 0-.77.014-1.428-.014.126.238.252.602.294.854.938 0 1.526-.014 1.89-.154.364-.154.476-.406.476-.91v-6.16h-1.764a24.108 24.108 0 0 0-1.078-.56c1.036-.518 2.086-1.218 2.828-1.918l-.644-.49-.196.056h-6.832v.826h5.838c-.56.406-1.246.812-1.918 1.106a32.8 32.8 0 0 0-1.946-.77l-.658.588c.84.308 1.834.756 2.66 1.162h-3.99v7.196h.98v-2.324Zm-2.114-5.796c-.448-.686-1.484-1.624-2.366-2.254l-.728.644c.882.658 1.89 1.638 2.324 2.324l.77-.714Zm-.308 2.912h-3.024v.98h2.016v3.598a24.212 24.212 0 0 1-2.184 1.582l.504 1.008c.798-.588 1.54-1.19 2.254-1.806.854 1.106 2.114 1.596 3.948 1.666 1.54.07 4.508.042 6.062-.028.056-.308.21-.784.322-1.022-1.666.112-4.858.154-6.384.084-1.638-.056-2.842-.518-3.514-1.568v-4.494Zm14.938-2.646h2.212v-.966h-3.99c.168-.532.322-1.092.434-1.68l-1.008-.196c-.336 1.694-.91 3.36-1.736 4.438.238.14.672.42.854.602.434-.602.798-1.358 1.134-2.198h1.064V243.32h-2.884v.994h2.814c-.182 1.834-.84 3.85-2.968 5.362.224.154.588.546.728.77 1.596-1.134 2.45-2.646 2.898-4.13.756.854 1.848 2.17 2.324 2.856l.7-.882c-.434-.49-2.128-2.38-2.786-3.038.056-.308.112-.63.14-.938h2.688v-.994h-2.632c.014-.168.014-.336.014-.476v-2.31Zm4.074 7.462v-8.106h2.954v8.106h-2.954Zm-1.008-9.086v11.172h1.008v-1.106h2.954v.966h1.036V238.91h-4.998Z" fill="#9BA2AD"/><path d="M240.79 119.07h-12.24v8.56a4.433 4.433 0 0 1-2.741 4.095 4.422 4.422 0 0 1-1.699.335h-30.55v18.52a2.203 2.203 0 0 0 2.13 2.27h40.74l6.49 7.12v-38.63a2.192 2.192 0 0 0-1.293-2.076 2.198 2.198 0 0 0-.837-.194Z" fill="#61D3BA"/><path d="M193.54 121.48a2.184 2.184 0 0 1 .594-1.576 2.207 2.207 0 0 1 1.536-.694h32.86V70.67a4.43 4.43 0 0 0-4.43-4.43h-93.62a4.431 4.431 0 0 0-4.43 4.43v75.42l13.47-13.89h54l.02-10.72Z" fill="#FDCB29"/><path d="m134.39 70.41 4.16 3.46S116 79.33 109.46 84c-7.21 5-21.19 16.6-16.6 21.51 3.71.66 5.81-8 17.69-12.57 1.36-.4 12.3-4.22 15.62-1.66.12 3.68.07 4.59.07 4.59a6.581 6.581 0 0 0-4.89-1.81c-6.14.14-15.24 5.32-18.48 7.58-2.85 2.55-9.3 11.83-12.75 9.13-4.57-5.84 3.37-20 11.29-26.72 8.24-8.22 31.3-14.66 32.98-13.64Z" fill="#61D3BA"/><path d="M213.7 73.94v5.89s16.8 4.64 28.57-5.14c7.27-6.64 5-12.78 4-13-1-.22-12.52 17.52-32.57 12.25Z" fill="#3571FA"/><path d="M242.27 74.69s15.17 2.26 21.06-9.15c4.07-7.77 2.76-13.41 2.76-13.41H264s.12 17.05-19.26 19.95a13.903 13.903 0 0 0-2.47 2.61Z" fill="#3571FA"/><path d="M246.28 61.66a8.11 8.11 0 0 0-10.21 2.26c-1.85 3.1-.89 5.64-.16 6.56.69-.42 1.81-1.21 1.81-1.21s-1.37-5.39 6.28-5.48c.09.69 2.28-2.13 2.28-2.13Z" fill="#13286A"/><path d="m119.92 124-3.27-8s7.23-2.33 9.44-2.9c2.21 4.19 3 6.22 3 6.22s-3.87 1.81-9.17 4.68Z" stroke="#3571FA" stroke-miterlimit="10"/><path d="m249.41 90.78 6.21 6.09s-5.71 5-7.51 6.43c-3.69-3-5.23-4.52-5.23-4.52s2.82-3.23 6.53-8Z" stroke="#61D3BA" stroke-miterlimit="10"/><path d="m285.08 176.45-1.34 5.06s-7.19-2.47-9.3-3.35a13.327 13.327 0 0 1 2-5.38s2.66 2.81 8.64 3.67Z" fill="#3571FA"/><path d="M144.53 87.93h66.95M167.06 97.78h44.42" stroke="#26417F" stroke-width=".5" stroke-miterlimit="10"/><path d="M146.34 190.28s-36.57-7.92-25.5-22.95c9.91-6.13 23.54 12.36 4.4 20.52-15.09 3.15-30.52-8.44-32.82-17.29" stroke="#FBC623" stroke-width="3" stroke-miterlimit="10"/><path d="M201.42 194.19c5.727 0 10.37-4.643 10.37-10.37 0-5.727-4.643-10.37-10.37-10.37-5.727 0-10.37 4.643-10.37 10.37 0 5.727 4.643 10.37 10.37 10.37Z" stroke="#26417F" stroke-width=".25" stroke-miterlimit="10"/><path d="M160 209.86s-3.11-33.85 22.51-47c13.5-7.34 36.51-3.54 48.15 5.2 0 0-13.54.64-13 14.37-5.86-5.86-5.87-5.76-5.87-5.76" stroke="#26417F" stroke-width=".25" stroke-miterlimit="10"/><path d="m168.74 191.48 2 9.62s5.57-9.17 18.48-9.31c-9.18-16.25-7.28-12.71-7.28-12.71" stroke="#26417F" stroke-width=".25" stroke-miterlimit="10"/><path d="m185.81 192.05 3.3 8.06 14.95-2.11s4.43-6.16 5.14-7c.71-.84 2.94-.51 2 1.77a11.632 11.632 0 0 1-2.44 3c-.48.48 5.06-2.48 6.37-3 1.27-.67 2.89 1.69 1.16 2.51a62.994 62.994 0 0 1-7.43 3.25" stroke="#26417F" stroke-width=".25" stroke-miterlimit="10"/><path d="M216.27 195.22c1.92-1.23 4.23 1.24 1.26 2.51-3 1.45-9.31 3.9-9.31 3.9" stroke="#26417F" stroke-width=".25" stroke-miterlimit="10"/><path d="M216.24 198.32c2.15-1 3.43 1.39.56 2.71-3.14 1.35-6.42 2.43-6.42 2.43" stroke="#26417F" stroke-width=".25" stroke-miterlimit="10"/><path d="M215 201.77c1.95-1 3.39 1.28.35 2.21-3.27 1.21-7.09 2.34-7.09 2.34-8.49 2.27-8.39 2.24-10.53 2.92-19 5.22-21.19 4.1-23.56-2.85-1.72-6.28-2.18-7-2.18-7" stroke="#26417F" stroke-width=".25" stroke-miterlimit="10"/><path d="m217.7 179.87 10.19 6.26-4.32 13.32s-7.31 2.32-8.35 2.73c-1.04.41-1.46 2.6 1 2.38a12.207 12.207 0 0 0 3.63-1.4c.61-.3-4 4-4.94 5.07-.94 1.07.64 3.19 2 1.82a64.434 64.434 0 0 0 5.54-6" stroke="#26417F" stroke-width=".25" stroke-miterlimit="10"/><path d="M216.92 210.05c-1.8 1.43-.22 4.32 2 1.92 2.37-2.39 6.78-7.55 6.78-7.55" stroke="#26417F" stroke-width=".25" stroke-miterlimit="10"/><path d="M219.87 210.94c-1.62 1.73.18 3.61 2.38 1.33 2.31-2.55 4.43-5.29 4.43-5.29" stroke="#26417F" stroke-width=".25" stroke-miterlimit="10"/><path d="M223.55 210.8c-1.62 1.52.08 3.55 2 1 2.23-2.69 4.57-5.93 4.57-5.93a101.031 101.031 0 0 0 6.83-8 24.998 24.998 0 0 0 5-15.75 9.563 9.563 0 0 0-3.32-6.89c-.54-.54-10.41-6.7-10.41-6.7M170.67 201.27a5.4 5.4 0 0 0 2-.17M189.27 191.84a5.058 5.058 0 0 1-2.59 2.34M217.74 182.66s1.62-.42 2-1.51" stroke="#26417F" stroke-width=".25" stroke-miterlimit="10"/><path d="M230.8 168.15a5.19 5.19 0 0 1-.78 1.54M236.86 174.11l22.38-10.4M211.58 185.86l9.04-4.2M187.8 196.91l8.62-4.01M125.34 225.94l48.05-22.33M200.17 173.52s2.41 1 2.84 4.72c-1.33 1.32-.12 3.91.71 3.86.3-.13 5.58 5.59 2.84 10.72" stroke="#26417F" stroke-width=".25" stroke-miterlimit="10"/><path d="M228.5 168.52a13.43 13.43 0 0 1 2.12-.32c-.15.453-.355.887-.61 1.29l-1.51-.97ZM219.63 181.2a3.16 3.16 0 0 1-1.86 1.32v-.08a16.462 16.462 0 0 1 .06-2.35l1.8 1.11ZM170.83 201.16c.341-.528.722-1.03 1.14-1.5.187.448.35.905.49 1.37a5.687 5.687 0 0 1-1.63.13ZM186 192.16a25.124 25.124 0 0 1 3.1-.24 5.003 5.003 0 0 1-2.34 2.09l-.76-1.85ZM206.51 186.3a7.49 7.49 0 0 1 0 6.42 9.996 9.996 0 0 1-3.69 1.25 10.253 10.253 0 0 1-11.224-8.834 10.25 10.25 0 0 1 8.504-11.476h.09a5.575 5.575 0 0 1 2.73 4.55 2.726 2.726 0 0 0-.28 3c.29.66.72 1.08 1.1 1.08a10.822 10.822 0 0 1 2.77 4.01Z" fill="#13286A"/><path d="M217 202.57c-.09.52-.69 1-1.66 1.29l-.56.2a.814.814 0 0 1-.19-.37 1.281 1.281 0 0 1 .71-1.39c.22-.09.71-.26 1.36-.47a.723.723 0 0 1 .34.74ZM201.43 173.57a10.24 10.24 0 0 1 5.44 18.91c1.72-3.81-.64-8-2.37-9.88-.48-.53-.66-.63-.76-.63-.27 0-.63-.38-.87-.93a2.46 2.46 0 0 1 .27-2.72h.05v-.06a6.009 6.009 0 0 0-2.56-4.62 7.92 7.92 0 0 1 .8-.07Z" fill="#FFDFD4"/><path d="M216.29 211.87a1.704 1.704 0 0 1 .52-1.55c.059-.062.122-.119.19-.17a64.26 64.26 0 0 0 5.56-6l-.19-.16a66.22 66.22 0 0 1-5.53 6 1.101 1.101 0 0 1-1.1.37 1.433 1.433 0 0 1-1-1 .996.996 0 0 1 .26-1c.4-.47 1.52-1.57 2.6-2.63 2.51-2.44 2.5-2.46 2.4-2.6-.1-.14-.09-.09-.22 0l-.32.16a10.557 10.557 0 0 1-3.25 1.23 2.14 2.14 0 0 1-1.26-.19l.41-.15c1.06-.33 1.72-.87 1.83-1.49a1.007 1.007 0 0 0-.31-.87c2.46-.82 6.64-2.15 6.7-2.17h.06l4.36-13.48v-.1l-10.19-6.26a11.996 11.996 0 0 1 6.12-9.59 16.285 16.285 0 0 1 4.19-1.62c2.45 1.54 6.49 4.08 8.73 5.56v.06c.85.56 1.42 1 1.54 1.07a9.496 9.496 0 0 1 3.27 6.8 24.997 24.997 0 0 1-4.94 15.66l-.11.14a100.886 100.886 0 0 1-6.73 7.9s-2.36 3.26-4.57 5.93c-.87 1.19-1.55 1.21-1.8 1.17a.687.687 0 0 1-.55-.51 1.322 1.322 0 0 1 .24-1.1l.29-.33c1.73-2 3.12-3.81 3.14-3.83l-.2-.15s-1.4 1.8-3.12 3.8h-.05c-.098.096-.188.2-.27.31l-1 1.11c-1.09 1.14-2.07 1.2-2.52.77-.45-.43-.4-1 .18-1.76 2.42-2.57 5.86-6.61 5.9-6.65l-.18-.16s-3.37 3.94-5.79 6.51l-.06.07c-.33.36-.65.68-.93 1-.63.68-1.25 1-1.77.84a1.064 1.064 0 0 1-.53-.94Z" fill="#FFDFD4"/><path d="M182.52 163c13.55-7.36 36.26-3.44 47.76 5-.691.075-1.376.198-2.05.37-3.85.91-11 3.94-10.72 13.79-5.64-5.62-5.69-5.6-5.78-5.57v.13l-.07.09s.49.4 5.85 5.75l.22.21c.146-.037.29-.084.43-.14l-6.47 3a9.916 9.916 0 0 0 .08-3.22 10.488 10.488 0 0 0-6.075-8.173 10.497 10.497 0 0 0-10.15.835 10.485 10.485 0 0 0-4.658 9.056c.057 1.78.566 3.517 1.479 5.047a10.503 10.503 0 0 0 3.744 3.695l-8.29 3.85-1-2.49a5.261 5.261 0 0 0 2.53-2.33l-.09-.16c-2.82-5-4.88-8.62-6.12-10.78-.82-1.44-1.15-2-1.3-2.21-.1-.12-.13-.1-.18-.07-.05.03-.09.11.11.49.48.82 2.12 3.67 7.14 12.55a22.656 22.656 0 0 0-18.21 9.11l-1.9-9.32h-.25l2 9.93h.58c.439.013.877-.041 1.3-.16.18.57.41 1.31.7 2.28l-13.19 6.13a64.69 64.69 0 0 1 1.66-18.35c2.33-9.21 7.73-21.59 20.92-28.34Z" fill="#61D3BA"/><path d="m259.19 163.59.1.23-22.07 10.26-.24-.16 22.21-10.33ZM237.22 174.08l-.26.12h-.07l-.08-.16.17-.08.24.12ZM230.65 168.2a.339.339 0 0 0 0-.09l.22.07-.22.02ZM230.65 168.2h.26c-.17.504-.401.984-.69 1.43l-.2-.13c.263-.405.475-.842.63-1.3Z" fill="#26417F"/><path d="M230.24 169.62a.59.59 0 0 1-.14.17l-.16-.19a.55.55 0 0 0 .1-.11l.2.13Z" fill="#26417F"/><path d="M236.89 174.16c-2.24-1.48-6.28-4-8.73-5.56l.33-.08 1.54 1a.55.55 0 0 1-.1.11l.16.19a.603.603 0 0 0 .14-.17c2 1.23 4.9 3.09 6.74 4.3l-.17.08.09.13Z" fill="#26417F"/><path d="m228.49 168.52-.33.08h-.06l.13-.21.26.13ZM223.46 210.71c1.72-2 3.1-3.78 3.12-3.8l.2.15s-1.41 1.81-3.14 3.83l-.18-.18ZM223.6 210.93l-.29.33c.085-.119.182-.23.29-.33ZM223.46 210.71h-.05s.03.02.05 0Z" fill="#26417F"/><path d="M236.83 197.73a24.997 24.997 0 0 0 4.94-15.66 9.496 9.496 0 0 0-3.27-6.8c-.12-.12-.69-.51-1.54-1.07l.26-.12c.498.307.978.641 1.44 1a9.745 9.745 0 0 1 3.36 7 25.152 25.152 0 0 1-5 15.83l-.1.14a103.071 103.071 0 0 1-6.73 7.91s-2.36 3.25-4.57 5.92a2.612 2.612 0 0 1-1.86 1.28h-.18a.931.931 0 0 1-.75-.68 1.157 1.157 0 0 1 0-.59c.16-.2.33-.39.5-.58a1.307 1.307 0 0 0-.243.523c-.042.19-.041.387.003.577a.687.687 0 0 0 .55.51c.25 0 .93 0 1.8-1.17 2.21-2.67 4.55-5.9 4.57-5.93a100.886 100.886 0 0 0 6.73-7.9l.09-.19Z" fill="#26417F"/><path d="M223.31 211.26c-.17.19-.34.38-.5.58.049-.279.162-.543.33-.77.082-.11.172-.214.27-.31h.05l.18.18a2.125 2.125 0 0 0-.33.32ZM225.75 204.5s-3.48 4.08-5.9 6.65l.15-.15-.18-.17c2.42-2.57 5.75-6.47 5.79-6.51l.14.18ZM220.61 181.8l-.25-.15.21-.1.1.22-.06.03Z" fill="#26417F"/><path d="m218.21 182.64.35-.16 1.8-.83.25.15-8.92 4.2c0-.1 0-.2.05-.3l6.47-3.06ZM220 211l-.11.13-.62.64c.104-.338.281-.649.52-.91l.06-.07.15.21ZM219.91 181.2l-.06.13-.22-.13a.44.44 0 0 0 .05-.09l.23.09Z" fill="#26417F"/><path d="M216.66 201.55c2.28-.76 6.23-2 6.81-2.2l4.27-13.17-7.13-4.38h.06l-.1-.22-.21.1-.51-.32.06-.13-.23-.09a.397.397 0 0 1-.05.09l-1.8-1.11a.877.877 0 0 1 0-.28l10.17 6.23v.1l-4.34 13.38h-.06c-.06 0-4.24 1.35-6.7 2.17a.474.474 0 0 0-.1-.1l-.14-.07ZM223.14 211.07a1.826 1.826 0 0 0-.33.77l-.47.51a3 3 0 0 1-2 1.1 1.203 1.203 0 0 1-.84-.32 1.228 1.228 0 0 1-.27-1.3l.62-.64c-.58.72-.54 1.42-.18 1.76.36.34 1.43.37 2.52-.77l.95-1.11Z" fill="#26417F"/><path d="M218.21 182.64a3.27 3.27 0 0 1-.43.14v-.26a3.162 3.162 0 0 0 1.86-1.32l.22.13a2.642 2.642 0 0 1-1.29 1.15l-.36.16ZM217.85 179.81a.877.877 0 0 0 0 .28l-.19-.11.13-.22.06.05ZM217.77 182.52v.24l-.06-.21.06-.03ZM222.56 204.15a64.26 64.26 0 0 1-5.56 6l-.16-.19a66.366 66.366 0 0 0 5.53-6l.19.19ZM216.23 198.19a2.613 2.613 0 0 1 1.07-.22c-.3.15-.62.3-1 .45l-.1-.23h.03ZM216.27 201.68l.39-.13.15.09a.474.474 0 0 1 .1.1 1.27 1.27 0 0 0-.28.09.849.849 0 0 0-.36-.15ZM217 194.81a1.538 1.538 0 0 1-.36.36l-.22.13-.13-.21c.218-.136.458-.231.71-.28Z" fill="#26417F"/><path d="M218.83 196.25a1.113 1.113 0 0 0-.61-1 1.797 1.797 0 0 0-1.62-.06c.139-.099.261-.221.36-.36.473-.109.97-.034 1.39.21a1.377 1.377 0 0 1 .73 1.24c0 .37-.25 1.05-1.49 1.58l-.29.13a2.642 2.642 0 0 0-1.07.22l1.25-.58c.84-.37 1.31-.86 1.35-1.38Z" fill="#26417F"/><path d="M218.49 198.7c.32.7-.06 1.72-1.63 2.44l-.64.27a2.139 2.139 0 0 0-.74 0l1.29-.53c1.4-.65 1.77-1.53 1.5-2.11-.27-.58-1-.8-1.93-.39.35-.15.67-.3 1-.45a1.334 1.334 0 0 1 1.15.77ZM216.56 195.19a1.019 1.019 0 0 1-.22.13l.22-.13ZM216.3 210.57c.139-.233.318-.44.53-.61l.16.19a1.46 1.46 0 0 0-.19.17c-.15.114-.319.198-.5.25Z" fill="#26417F"/><path d="M216.27 201.68a1.431 1.431 0 0 0-.83 0l.77-.32c.152.028.3.075.44.14l-.38.18ZM216.81 210.32a1.71 1.71 0 0 0-.52 1.55 1.067 1.067 0 0 0 .73.86c.52.14 1.14-.16 1.77-.84.28-.29.6-.61.93-1a2.385 2.385 0 0 0-.52.91l-.23.23a2.386 2.386 0 0 1-1.7 1 1.022 1.022 0 0 1-.27-.03 1.304 1.304 0 0 1-.9-1.05 1.86 1.86 0 0 1 .25-1.35c.169-.065.325-.16.46-.28ZM215.44 201.46l-.42.17c.134-.07.275-.127.42-.17Z" fill="#26417F"/><path d="M217.22 202.61c-.11.62-.77 1.16-1.83 1.49l-.41.15a1.135 1.135 0 0 1-.23-.19l.56-.2c1-.3 1.57-.77 1.66-1.29a.724.724 0 0 0-.31-.72 1.27 1.27 0 0 1 .28-.09.993.993 0 0 1 .28.85Z" fill="#FFDFD4"/><path d="m215.44 201.73-.28.11c.089-.048.183-.085.28-.11Z" fill="#26417F"/><path d="m215.06 201.88-.12-.22h.08l.42-.17c.245-.043.495-.043.74 0l-.77.32a1.208 1.208 0 0 0-.28.11l-.07-.04ZM215 204.25l-.29.1a.997.997 0 0 1-.2-.2c.089-.021.176-.051.26-.09.068.073.145.137.23.19ZM216.83 210c-.211.17-.391.377-.53.61a1.073 1.073 0 0 1-.31 0c-.109.015-.22.015-.33 0a1.734 1.734 0 0 1-1.14-1.22 1.236 1.236 0 0 1 .33-1.21c.4-.47 1.52-1.57 2.61-2.64.75-.73 1.58-1.53 2-2-1 .573-2.088.975-3.22 1.19a2.055 2.055 0 0 1-1.57-.34l.29-.1c.391.19.831.256 1.26.19a10.557 10.557 0 0 0 3.25-1.23l.32-.16c.13-.06.19 0 .22 0s.11.16-2.4 2.6c-1.08 1.06-2.2 2.16-2.6 2.63a1.004 1.004 0 0 0-.26 1 1.442 1.442 0 0 0 1 1 1.103 1.103 0 0 0 1.08-.32Z" fill="#26417F"/><path d="M215.18 202.07c.19-.08.58-.21 1.09-.39.13.022.253.073.36.15-.65.21-1.14.38-1.36.47a1.279 1.279 0 0 0-.71 1.39.824.824 0 0 0 .19.37c-.083.039-.17.069-.26.09a1 1 0 0 1-.18-.4 1.54 1.54 0 0 1 .87-1.68ZM214.94 201.66l.12.22c-2.47 1-4.61 1.69-4.64 1.7l-.08-.24s2.15-.71 4.6-1.68ZM217.77 182.44v.08h-.06l.06.21-.22-.21c-5.36-5.35-5.81-5.72-5.85-5.75l.07-.09v-.13c.09 0 .14 0 5.78 5.57-.26-9.85 6.87-12.88 10.72-13.79l-.13.21h.06a16.285 16.285 0 0 0-4.19 1.62 12 12 0 0 0-6.12 9.59l-.08-.05-.13.22.19.11c-.092.8-.126 1.605-.1 2.41ZM216.29 198.44c-3.2 1.43-8 3.28-8 3.3l-.09-.23c.06 0 4.82-1.87 8-3.3l.09.23ZM211.53 185.75l.21-.1c0 .1 0 .2-.05.3h-.05l-.11-.2ZM208.84 191.22c.11-.16.21-.27.27-.35.078-.09.169-.167.27-.23-.17.2-.38.36-.54.58ZM206.86 192.49c-.06.13-.12.26-.19.39l-.22-.12.41-.27ZM202.6 181.15a2.727 2.727 0 0 1 .28-3 5.58 5.58 0 0 0-2.73-4.55h.43a6.003 6.003 0 0 1 2.56 4.62v.06h-.05a2.46 2.46 0 0 0-.27 2.72c.24.55.6.93.87.93.1 0 .28.1.76.63 1.73 1.91 4.09 6.07 2.37 9.88l-.39.23a7.486 7.486 0 0 0 0-6.42 10.822 10.822 0 0 0-2.78-4.08c-.33.06-.76-.36-1.05-1.02Z" fill="#26417F"/><path d="m200.12 173.64.1-.23c.125.058.245.125.36.2h-.43l-.03.03ZM196.37 192.79l.11.23-.27-.15.16-.08ZM196.43 193l-8.43 4-.1-.24 8.29-3.85.24.09Z" fill="#26417F"/><path d="M202.78 194a9.996 9.996 0 0 0 3.69-1.25l.22.12c.07-.13.13-.26.19-.39a10.242 10.242 0 0 0 .714-16.848 10.242 10.242 0 0 0-6.154-2.062 8.033 8.033 0 0 0-.85 0 2.87 2.87 0 0 0-.36-.2l-.1.23h-.06a10.29 10.29 0 0 0 2.71 20.4Zm6-2.72a10.402 10.402 0 0 1-6 3c-.464.06-.932.09-1.4.09a10.436 10.436 0 0 1-5-1.27l-.11-.23-.21.1a10.492 10.492 0 0 1-.564-17.798 10.49 10.49 0 0 1 16.224 7.338 9.915 9.915 0 0 1-.08 3.22l-.21.1.11.22h.05a10.445 10.445 0 0 1-2.31 4.69c-.101.063-.192.14-.27.23-.06.08-.16.19-.27.35l.04-.04ZM189.39 191.89h-.29l.07-.13.22.13ZM189.19 191.92h.19a5.257 5.257 0 0 1-2.53 2.33l-.1-.24a5.003 5.003 0 0 0 2.34-2.09h.1ZM187.97 196.98l-.11.05-.11-.23.12-.06.1.24Z" fill="#26417F"/><path d="m186.75 194 .1.24-.11.05-.1-.23a.38.38 0 0 0 .11-.06Z" fill="#26417F"/><path d="M210.84 190.81a1.305 1.305 0 0 0-1.54.22c-.7.83-5.09 6.95-5.14 7L189 200.25v-.09l-3.26-8h.25l.76 1.85a.38.38 0 0 1-.11.06l.1.23.11-.05 1 2.49-.12.06.11.23.16-.03 1.22 3 14.8-2.12c.39-.54 3.67-5.11 4.82-6.6.19-.19.37-.38.54-.58a1.537 1.537 0 0 1 1.59 0c.3.18.93.76.33 2.17a9.573 9.573 0 0 1-2.13 2.68c.58-.26 1.62-.78 2.56-1.25 1.36-.68 2.76-1.38 3.34-1.61a1.245 1.245 0 0 1 1.25.11 1.779 1.779 0 0 1 .83 1.53 1.175 1.175 0 0 1-.19.58 2.1 2.1 0 0 0-.75.3 1.08 1.08 0 0 0 .69-.9 1.529 1.529 0 0 0-.71-1.3 1 1 0 0 0-1-.09c-.58.23-2 .93-3.32 1.6-3.11 1.55-3.13 1.54-3.23 1.4-.1-.14-.06-.11 0-.21l.26-.26a9.883 9.883 0 0 0 2.15-2.68c.39-.97.3-1.64-.21-1.96Z" fill="#26417F"/><path d="m185.93 192 .06.16h-.25v-.1l.19-.06ZM173.34 203.5l.11.22-.13.06a2.266 2.266 0 0 1-.07-.24l.09-.04ZM172.57 201l.1.23h-.12l-.09-.23h.11Z" fill="#26417F"/><path d="M214.69 204.35c-3.06 1.11-6.36 2.08-6.39 2.09l-1.11.3c-7.38 2-7.38 2-9.42 2.62-8 2.19-13 3.28-16.33 3.28-4.61 0-6-2.08-7.38-6.21l-.74-2.65.13-.06-.11-.22h-.09c-.29-1-.52-1.71-.7-2.28h.12l-.1-.23h-.11c-.14-.465-.303-.922-.49-1.37l.18-.21a53.194 53.194 0 0 1 2.15 6.9c2.35 6.94 4.63 7.94 23.4 2.77 2-.65 2-.65 9.42-2.62l1.11-.3s3.24-1 6.26-2c.058.072.125.136.2.19Z" fill="#26417F"/><path d="M170.83 201.16a5.723 5.723 0 0 0 1.63-.13l.09.23a4.326 4.326 0 0 1-1.3.16h-.58l.15-.23.01-.03ZM172.15 199.45l-.18.21a1.547 1.547 0 0 0-.08-.17l.21-.14a.718.718 0 0 1 .05.1Z" fill="#26417F"/><path d="m170.83 201.16-.15.23v-.25l.15.02Z" fill="#26417F"/><path d="M185.74 192.19a22.438 22.438 0 0 0-13.59 7.26.622.622 0 0 0-.05-.1l-.21.14c.03.055.057.112.08.17-.418.47-.799.972-1.14 1.5h-.15v.25l-2-9.93h.25l1.9 9.32a22.66 22.66 0 0 1 18.17-9.13c-5-8.88-6.66-11.73-7.14-12.55-.2-.38-.23-.43-.11-.49.12-.06.08-.05.18.07.15.2.48.77 1.3 2.21 1.24 2.16 3.3 5.79 6.12 10.78l.09.16-.23-.1-.07.13a25.139 25.139 0 0 0-3.1.24l-.06-.16-.23.09-.01.14ZM160.07 209.85h-.24a.676.676 0 0 0 0-.09l.24-.11v.2Z" fill="#26417F"/><path d="M230.69 168.11c.004.03.004.06 0 .09a13.43 13.43 0 0 0-2.12.32l-.26-.16a14.855 14.855 0 0 1 2.05-.37c-11.5-8.43-34.21-12.35-47.76-5-13.19 6.76-18.59 19.14-20.8 28.33a64.694 64.694 0 0 0-1.66 18.35l-.24.11a64.718 64.718 0 0 1 1.66-18.52c2.22-9.24 7.65-21.69 20.93-28.49 13.72-7.47 36.81-3.41 48.28 5.21l.28.2h-.06l-.3-.07Z" fill="#26417F"/><path d="M159.83 209.87h.24v-.18l13.19-6.13c.019.081.042.161.07.24l-47.93 22.26-.11-.23 34.53-16.05c.006.03.009.06.01.09Z" fill="#26417F"/><path d="M220.64 142.74h5.02l-5.76 6.7 4.87-.29M236.15 127.39h10.54l-12.1 8.45 10.24-.36" stroke="#FDCB29" stroke-miterlimit="10"/></svg>