<svg viewBox="0 0 400 300" fill="none" xmlns="http://www.w3.org/2000/svg"><path d="M165.286 254.1c-.742.196-1.512.406-2.24.602v-5.684h2.03v-.994h-5.096v.994h2.044v5.964c-.854.21-1.624.406-2.24.546l.266 1.064c1.47-.406 3.472-.966 5.362-1.526l-.126-.966Zm3.262-4.55c.028-.952.042-1.932.042-2.94h-1.036c0 1.022-.014 2.002-.042 2.94h-2.338v1.008h2.296c-.21 3.388-.98 6.216-3.948 7.798.252.182.602.56.742.826 3.192-1.792 4.004-4.914 4.228-8.624h2.8c-.21 4.956-.434 6.832-.826 7.28-.154.168-.322.21-.588.21-.308 0-1.106 0-1.96-.084.182.294.308.728.322 1.022.784.056 1.61.07 2.058.028.49-.056.77-.168 1.078-.546.532-.644.714-2.646.938-8.386.014-.14.014-.532.014-.532h-3.78Zm16.45 2.926c1.106 0 1.428-.448 1.554-2.142-.308-.07-.728-.238-.952-.406-.056 1.386-.154 1.61-.686 1.61h-2.226c-.63 0-.742-.084-.742-.532v-1.414c1.344-.392 2.828-.896 3.934-1.414l-.7-.756c-.798.42-2.044.924-3.234 1.316V246.4h-1.022v4.62c0 1.148.35 1.456 1.68 1.456h2.394Zm-9.366 3.024v-1.288h2.954v1.288h-2.954Zm2.954-3.304v1.204h-2.954v-1.204h2.954Zm1.022-.868h-4.942v7.812h.966v-2.842h2.954v1.652c0 .182-.042.224-.224.224-.196.014-.784.028-1.442 0 .14.252.28.672.336.938.882 0 1.484-.014 1.876-.168.378-.168.476-.462.476-.98v-6.636Zm-1.722-3.64c.322.434.644.938.938 1.442l-2.87.126c.434-.798.882-1.778 1.26-2.632l-1.05-.252a21.955 21.955 0 0 1-1.288 2.926c-.392.014-.742.028-1.064.042l.098.98c1.428-.084 3.444-.182 5.404-.294.154.308.28.588.364.826l.882-.392c-.294-.854-1.092-2.142-1.82-3.108l-.854.336Zm4.844 10.43c-.658 0-.784-.084-.784-.546v-1.624c1.414-.406 3.01-.938 4.088-1.554l-.686-.784c-.798.518-2.128 1.064-3.402 1.47v-2.212h-1.022v4.704c0 1.148.364 1.456 1.694 1.456h2.492c1.162 0 1.47-.49 1.61-2.366a2.78 2.78 0 0 1-.938-.392c-.07 1.568-.168 1.848-.756 1.848h-2.296Zm17.738-6.132h-3.01v-5.334h-1.05v5.334h-4.256v-3.43c1.036-.336 2.002-.7 2.786-1.106l-.784-.854c-1.386.84-3.85 1.61-6.062 2.128.154.21.322.588.378.84a53.257 53.257 0 0 0 2.66-.686v3.108h-3.15v1.008h3.136c-.112 2.002-.686 3.962-3.276 5.418.224.168.588.546.742.784 2.842-1.624 3.444-3.892 3.556-6.202h4.27v6.174h1.05v-6.174h3.01v-1.008Zm7.924-4.382c-.14 4.788-.602 8.652-2.59 11.004.252.14.742.462.924.63 2.002-2.604 2.492-6.482 2.716-11.592l-1.05-.042Zm-1.596-.364v.994h5.53v-.994h-5.53Zm4.606 3.822-.308.938h2.31v-.938h-2.002Zm1.708 0v.224c-.728 3.64-2.758 5.964-5.334 7.154.224.168.602.56.742.798 2.618-1.316 4.774-3.864 5.642-7.952l-.644-.266-.196.042h-.21Zm-3.948-.168-.896.266c1.064 3.542 2.982 6.608 5.74 8.036.168-.266.49-.658.728-.854-2.674-1.246-4.62-4.2-5.572-7.448Zm2.716-3.654c-.336 1.498-.896 3.514-1.33 4.76h1.05c.378-1.204.952-3.192 1.358-4.76h-1.078Zm-9.814 8.372c0-.21.714-.532.714-.532v-.014c1.372-1.386 2.772-3.318 3.92-5.264l-.882-.532c-.994 1.932-2.52 3.934-2.996 4.452-.448.518-.784.882-1.092.938.126.266.28.742.336.952Zm0 0c.308-.224.784-.406 4.508-1.512a4.598 4.598 0 0 1-.056-.896l-4.032 1.12-.504.406.084.882Zm-.084-3.43c0-.21.63-.546.63-.546v-.028c1.022-1.274 2.058-3.08 2.814-4.83l-.98-.462c-.602 1.708-1.652 3.528-1.974 4.004-.322.476-.574.812-.826.868.112.28.28.77.336.994Zm0 0c.238-.112.63-.21 3.024-.518 0-.21.028-.602.084-.868l-2.632.28-.504.322.028.784Zm-.196 5.124.266 1.036a877.126 877.126 0 0 0 4.718-1.82l-.196-.924c-1.764.658-3.584 1.33-4.788 1.708Z" fill="#9BA2AD"/><path d="M192.09 48.05a6.28 6.28 0 1 0 0-12.56 6.28 6.28 0 0 0 0 12.56Z" stroke="#26417F" stroke-width=".25" stroke-miterlimit="10"/><path d="M197.9 39.52c-3.7-.33-3.55-2.63-3.55-2.63" stroke="#26417F" stroke-width=".25" stroke-miterlimit="10"/><path d="M194.45 36s0 4.81-3.93 5.08c-1.92-.79-2.64 2-.56 2.73-.27 1.56-2.39 1.76-3.13 1.43M192.75 61.7a58.935 58.935 0 0 1 1.1 6.68c-3.27 3.19-9.28 1.64-9.28 1.64S180 56.21 192.75 50c4.47-2.7 20.77-6.33 28.73 9.75a18.82 18.82 0 0 1-9.31 6.25c-1.5-2.12-3.67-8.31-3.67-8.31" stroke="#26417F" stroke-width=".25" stroke-miterlimit="10"/><path d="m213.45 65.57 2.7 5.74-10.15 4.9s-5.06-1.79-5.82-2c-.76-.21-1.91.87-.43 1.79a8.28 8.28 0 0 0 2.62.75c.47.09-3.94.56-4.91.78-.97.22-1 2.09.34 1.89a45.07 45.07 0 0 0 5.63-1" stroke="#26417F" stroke-width=".25" stroke-miterlimit="10"/><path d="M197.81 79.42c-1.61 0-1.95 2.36.29 1.92 2.24-.44 7-1.41 7-1.41M199.09 81.18c-1.64.29-1.43 2.13.77 1.76 2.37-.46 4.71-1.12 4.71-1.12" stroke="#26417F" stroke-width=".25" stroke-miterlimit="10"/><path d="M201.2 82.66c-1.54.18-1.45 2.06.69 1.39 2.39-.58 5.07-1.43 5.07-1.43 5.84-2 5.77-2 7.28-2.45 11.38-4.27 12.25-8.77 10.19-12.94a42.045 42.045 0 0 0-3.51-6.74M186.83 70.35l1 6-10.31 3.21s-4.54-2.42-5.23-2.72c-.69-.3-1.93.54-.66 1.63.727.48 1.527.838 2.37 1.06.44.15-3.81 0-4.76 0-.95 0-1.23 1.84.06 1.83 1.829.054 3.659-.01 5.48-.19" stroke="#26417F" stroke-width=".25" stroke-miterlimit="10"/><path d="M169.29 81.41c-1.53-.18-2.18 2 0 1.86 2.18-.14 6.82-.34 6.82-.34" stroke="#26417F" stroke-width=".25" stroke-miterlimit="10"/><path d="M170.25 83.26c-1.6 0-1.66 1.82.47 1.78 2.31-.1 4.63-.39 4.63-.39" stroke="#26417F" stroke-width=".25" stroke-miterlimit="10"/><path d="M172 85c-1.49-.06-1.67 1.74.46 1.42 2.34-.22 5-.64 5-.64 5.82-1.08 5.75-1.08 7.25-1.28l5.89-1.19M217.65 78.9s.14.52.82 3.18c-9.34 5.85-26.38 4.55-26.38 4.55" stroke="#26417F" stroke-width=".25" stroke-miterlimit="10"/><path d="M188.43 70.51s1.83 14.71 3.66 16.12M195 86.75s-9.57 13.23-11.24 19 4.5 36.89 4.5 36.89l14.81-5s-5.2-27.27-5.09-29.34c.21-3.71 3.28-17.3 5.77-21.92" stroke="#26417F" stroke-width=".25" stroke-miterlimit="10"/><path d="m198.46 112.83 8.23 24 16-7s-6.83-16.91-8.31-21.22c1.74-7.3 6.38-17.38 3.72-26.39" stroke="#26417F" stroke-width=".25" stroke-miterlimit="10"/><path d="m210.53 135.12 1 2.32-4.23 5.9s-4.35 2.29-3.55 3.83l.88 2 20.64-9.25-3.22-7.16-10.52 4.72M221.06 130.4l1.03 2.32" stroke="#26417F" stroke-width=".25" stroke-miterlimit="10"/><path d="m191.09 141.86.79 2.41-4.83 5.42s-4.57 1.82-3.93 3.44l.66 2 21.5-7-2.44-7.46-11 3.58M202.06 138.28l.78 2.41M137.04 201.12l-12.91 5.41M142.4 206.51l-17.26 7.39M145.79 212.2l-12.6 5.21M182.79 155.86l-33-1.7s-3.29.34-2 3.47c1.29 3.13 9.21 16.45 9.21 16.45" stroke="#26417F" stroke-width=".25" stroke-miterlimit="10"/><path d="M147.94 182.05s17.86 33.36 18.86 33.65c8-.27 98.16-33.58 88.12-68.39-18.87-35.12-96.8 22.49-106.98 34.74Z" stroke="#26417F" stroke-width=".25" stroke-miterlimit="10"/><path d="M206.1 200.59 190 229.43s-2 2.61-4-.12-9-16.58-9-16.58M151.37 188.42l-7.68.2a3.357 3.357 0 0 0-2.837 1.695 3.356 3.356 0 0 0-.013 3.305l11.82 21.6a3.337 3.337 0 0 0 2.761 1.744 3.329 3.329 0 0 0 2.929-1.444l4.41-6.34M213.04 177.23a8.63 8.63 0 1 0 0-17.26 8.63 8.63 0 0 0 0 17.26ZM186.63 191.95a8.63 8.63 0 1 0 0-17.26 8.63 8.63 0 0 0 0 17.26ZM227.63 138.95l18.64 33.96M142.4 206.51l-17.26 7.39M145.79 212.2l-12.6 5.21" stroke="#26417F" stroke-width=".25" stroke-miterlimit="10"/><path d="M215.43 160.44a8.51 8.51 0 1 1-4.763 16.34 8.51 8.51 0 0 1 4.763-16.34ZM195.14 183.31a8.633 8.633 0 0 1-.35 2.4 8.509 8.509 0 0 1-11.276 5.543 8.513 8.513 0 0 1-1.369-15.162 8.512 8.512 0 0 1 4.475-1.271 8.586 8.586 0 0 1 2.4.34 8.536 8.536 0 0 1 4.411 3.06 8.538 8.538 0 0 1 1.709 5.09Z" fill="#fff"/><path d="M158.25 215.42a3.236 3.236 0 0 1-4.373.889 3.255 3.255 0 0 1-1.117-1.179L141 193.53a3.23 3.23 0 0 1 1.174-4.322 3.232 3.232 0 0 1 1.566-.458l7.58-.21c3.23 6 7.95 14.65 11.33 20.6l-4.4 6.28Z" fill="#61D3BA"/><path d="M227.43 136.78a41.178 41.178 0 0 1 10.26-.38c7.87.8 13.63 4.49 17.11 10.94 1.93 6.72.21 13.84-5.12 21.19a53.586 53.586 0 0 1-3.39 4.17l-18.55-33.8-.31-2.12Z" fill="#FBC623"/><path d="M176.88 212.8c-5.15 1.77-8.77 2.72-10.06 2.78-.93-.65-11.67-20.32-18.74-33.52a73.384 73.384 0 0 1 8.75-8.08c.037.055.07.112.1.17l.21-.13-.12-.2A239.312 239.312 0 0 1 182.27 156h.51v-.25h-.15l2.08-1.26c12.2-7.3 28.44-15.52 42.71-17.68l.31 2.12-.22.12 18.6 33.87c-10.82 12-28.73 22.12-42.59 28.81a249.49 249.49 0 0 1-26.42 11l-.22.11v-.04Zm44.56-41.73a8.742 8.742 0 0 0-4.347-10.199 8.74 8.74 0 1 0 4.347 10.199ZM195 185.78a8.747 8.747 0 0 0-12.605-10.121 8.75 8.75 0 0 0 1.745 16.071c.803.23 1.635.347 2.47.35a8.738 8.738 0 0 0 8.39-6.3Z" fill="#FBC623"/><path d="m246.29 172.7.08.15-.21.12v-.08a1.45 1.45 0 0 0 .13-.19Z" fill="#26417F"/><path d="M246.29 172.7a1.707 1.707 0 0 1-.17.19L227.52 139l.22-.12 18.55 33.82ZM206.21 200.66l-.39.2.18-.33.21.13ZM221.2 171a8.504 8.504 0 0 0-4.224-9.923A8.5 8.5 0 1 0 221.2 171Zm-5.7-10.8a8.758 8.758 0 0 1 1.797 16.081 8.764 8.764 0 0 1-9.694-.815 8.764 8.764 0 0 1-2.963-9.266 8.769 8.769 0 0 1 10.86-6Z" fill="#26417F"/><path d="M185.9 229.39c-1.83-2.51-8-14.55-8.92-16.37l.24-.09c.95 1.87 7.07 13.83 8.88 16.31a2.392 2.392 0 0 0 1.84 1.19 2.89 2.89 0 0 0 1.94-1.08l15.9-28.48.39-.2-16.08 28.82a3.137 3.137 0 0 1-.952.816 3.14 3.14 0 0 1-1.198.374 2.624 2.624 0 0 1-1.178-.395 2.627 2.627 0 0 1-.862-.895ZM182.79 155.73v.27h-.51l.37-.23.14-.04ZM182.64 155.72l-.37.23h-.43l.37-.23h.43Z" fill="#26417F"/><path d="M177.11 212.72a249.49 249.49 0 0 0 26.42-11c13.86-6.69 31.77-16.85 42.59-28.81v.08l.21-.12-.08-.15a53.128 53.128 0 0 0 3.39-4.17c5.33-7.35 7.05-14.47 5.12-21.19-3.48-6.45-9.24-10.14-17.11-10.94a41.134 41.134 0 0 0-10.26.38c-14.27 2.16-30.51 10.38-42.71 17.68l-2.08 1.26h-.43c.79-.49 1.59-1 2.39-1.45 15.28-9.16 36.91-19.73 53.11-18.09 8 .8 13.79 4.53 17.32 11.09 2 6.81.23 14-5.15 21.43-9.53 13.13-28.51 24.45-43.67 32l-.22-.12-.18.33-2.17 1.06a248.897 248.897 0 0 1-26.42 11l-.07-.27Z" fill="#26417F"/><path d="M184.17 191.73a8.792 8.792 0 0 1-2.573-15.65 8.794 8.794 0 0 1 11.863 1.681 8.795 8.795 0 0 1-.833 11.952 8.792 8.792 0 0 1-5.987 2.367 9.098 9.098 0 0 1-2.47-.35Zm-5.7-10.8a8.502 8.502 0 1 0 16.32 4.78 8.55 8.55 0 0 0 .35-2.4 8.505 8.505 0 0 0-7.307-8.389 8.508 8.508 0 0 0-9.363 6.009ZM177.11 212.72l.11.21-.22.07c0-.12-.09-.19-.1-.22l.21-.06Z" fill="#26417F"/><path d="m177.11 212.72-.23.08.22-.11.01.03ZM162.85 209.21l-.11.16-.14-.23.05-.07.2.14ZM156.89 173.61a237.679 237.679 0 0 1 25-17.68h.43A239.324 239.324 0 0 0 157 173.82c0-.06-.06-.13-.11-.21ZM157.14 174l-.21.13a1.718 1.718 0 0 0-.1-.17l.19-.15.12.19Z" fill="#26417F"/><path d="m157 173.82-.19.15-.13-.2.19-.16c.07.08.13.15.13.21ZM151.36 188.29v.25h-.09c0-.08-.08-.16-.13-.24l.22-.01Z" fill="#26417F"/><path d="M166.82 215.58c1.29-.06 4.91-1 10.06-2.78 0 0 .05.1.1.22-5.24 1.8-8.91 2.77-10.18 2.81-.3-.09-1.88-2.71-4-6.46l.11-.16-.2-.14-.05.07c-3.38-5.95-8.1-14.63-11.33-20.6h.09v-.25h-.22l-3.32-6.19v-.08l.06-.06a74.497 74.497 0 0 1 8.86-8.2l.13.2a73.384 73.384 0 0 0-8.75 8.08c6.97 13.22 17.71 32.89 18.64 33.54ZM147.89 157.58c1.11 2.78 7.65 13.76 9 16l-.19.16c-1.31-2.2-7.92-13.29-9-16.09a2.628 2.628 0 0 1 0-2.42 3.076 3.076 0 0 1 2.1-1.23l32.41 1.66-.37.23-32-1.64a2.9 2.9 0 0 0-1.94 1.1 2.402 2.402 0 0 0-.01 2.23ZM145.73 212.09l.1.23-12.59 5.21-.1-.23 12.59-5.21Z" fill="#26417F"/><path d="M158.45 215.56a3.447 3.447 0 0 1-2.85 1.49h-.19a3.486 3.486 0 0 1-2.87-1.81l-11.81-21.59a3.467 3.467 0 0 1 1.291-4.68 3.467 3.467 0 0 1 1.709-.47l7.45-.2c.05.08.09.16.13.24l-7.58.21a3.234 3.234 0 0 0-2.709 1.622 3.227 3.227 0 0 0-.031 3.158l11.81 21.6a3.233 3.233 0 0 0 2.664 1.668 3.239 3.239 0 0 0 2.826-1.378l4.35-6.28.14.23-4.33 6.19ZM136.99 201.01l.1.23-12.91 5.41-.1-.23 12.91-5.41ZM142.34 206.39l.1.23-17.26 7.4-.09-.23 17.25-7.4ZM222.2 132.67l3.27 7.28-.12.05-20.75 9.3-.31-.69.24-.08.2.44 20.41-9.15-3.14-6.94-10.39 4.66-4.24 5.91a12.819 12.819 0 0 0-2.86 2l-.09-.27a13.888 13.888 0 0 1 2.8-2l4.17-5.82-.93-2.06.23-.1.9 2 10.31-4.62v.12l.3-.03ZM224.54 67.18a6.501 6.501 0 0 1 .49 5.47c-.91 2.3-3.37 4.37-7.5 6.29-1 .46-2.07.91-3.25 1.36-1.45.43-1.45.43-6.57 2.2l-.72.25s-2.7.85-5.07 1.43c-.274.09-.561.138-.85.14a1.13 1.13 0 0 1-.85-.3.694.694 0 0 1-.15-.74.853.853 0 0 1 .17-.28l.61-.13a.945.945 0 0 0-.55.49.46.46 0 0 0 .1.49c.25.26.79.29 1.45.09 2.37-.58 5-1.42 5.06-1.43l.71-.25c5.13-1.77 5.13-1.77 6.58-2.2 6-2.26 9.5-4.72 10.6-7.5a6.294 6.294 0 0 0-.49-5.28 43.053 43.053 0 0 0-3.43-6.61l.17-.2a42.404 42.404 0 0 1 3.49 6.71Z" fill="#26417F"/><path d="m222 132.88 3.11 6.94-20.38 9.18-.2-.44.79-.26h.12l-.9-2.75a12.819 12.819 0 0 1 2.86-2l4.24-5.91 10.36-4.76Z" fill="#FBC623"/><path d="M224.31 67.28a6.309 6.309 0 0 1 .49 5.28c-1.1 2.78-4.57 5.24-10.6 7.5-1.45.43-1.45.43-6.58 2.2l-.71.25s-2.69.85-5.06 1.43c-.66.2-1.2.17-1.45-.09a.464.464 0 0 1-.1-.49.933.933 0 0 1 .55-.49l.29-.06c1.83-.41 3.37-.84 3.39-.85l-.07-.24s-1.53.44-3.34.84h-.07a2.455 2.455 0 0 0-.34.08l-.92.18c-1.05.18-1.62-.18-1.69-.59-.07-.41.23-.77.91-.92h.06c2.44-.44 6-1.24 6-1.25l-.06-.24s-3.56.81-6 1.25l-1 .16c-.62.13-1.08 0-1.3-.25a.726.726 0 0 1-.05-.77 1.204 1.204 0 0 1 .88-.64h.21a43.238 43.238 0 0 0 5.66-1.05l-.06-.24a44.942 44.942 0 0 1-5.61 1h-.16a.687.687 0 0 1-.57-.26.999.999 0 0 1-.1-1 .652.652 0 0 1 .54-.42c.42-.1 1.51-.25 2.56-.39 2.47-.33 2.47-.34 2.47-.5a.137.137 0 0 0-.038-.096.14.14 0 0 0-.092-.044h-.26a7.07 7.07 0 0 1-2.32-.68c-.54-.34-.76-.74-.61-1.1a.882.882 0 0 1 .94-.46c.75.2 5.76 2 5.81 2l10.3-5-2.7-5.74a20.003 20.003 0 0 0 7.27-5 43.202 43.202 0 0 1 3.53 6.69Z" fill="#FFDFD4"/><path d="M222.83 129.86v.11l-.12.05-1.46.64-.1-.23 1.35-.59c-.6-1.48-6.86-17-8.26-21.11.4-1.66.95-3.47 1.52-5.37 2-6.53 4.22-13.93 2.25-20.81l.22-.13c2 7-.24 14.43-2.23 21-.57 1.89-1.11 3.67-1.51 5.32 1.51 4.26 8.27 20.95 8.34 21.12Z" fill="#26417F"/><path d="m222.55 129.84-1.35.59v-.07l-.23.1v.07l-14.2 6.18-7.91-23.06a49.404 49.404 0 0 1-.73-5.35c.21-3.81 3.27-17.22 5.74-21.83 4.79-.51 10.14-1.63 14.18-4 2 6.88-.27 14.28-2.25 20.81-.57 1.9-1.12 3.71-1.52 5.37 1.41 4.15 7.72 19.71 8.27 21.19Z" fill="#E0E2E3"/><path d="m222.15 132.55.05.12-.22.1-.05-.12.22-.1Z" fill="#26417F"/><path d="m222.15 132.55-.22.1-.86-1.9.23-.09.85 1.89Z" fill="#26417F"/><path d="m221.93 132.65-10.31 4.62-.9-2.01 10.35-4.51.86 1.9Z" fill="#FFDFD4"/><path d="M221.59 59.68v.13a6.47 6.47 0 0 1-.53.66l-.2.15a.35.35 0 0 1 .06.1 20.004 20.004 0 0 1-7.27 5l-.05-.11-.22.1v.1c-.38.16-.78.3-1.19.44h-.08l-.06-.08c-1.49-2.1-3.6-8.08-3.69-8.34l.24-.08c0 .06 2.13 6.06 3.6 8.2a19 19 0 0 0 9.12-6.17c-2.89-5.81-7.13-9.56-12.58-11.15-6.59-1.93-13.27-.09-15.94 1.52-12 5.89-8.45 18.78-8.14 19.82.66.16 6.05 1.29 9-1.58a59.39 59.39 0 0 0-1.09-6.6h.25a59.57 59.57 0 0 1 1.1 6.69v.06a8.12 8.12 0 0 1-5.38 2h-1.57v-.15h-.25v.09a12.985 12.985 0 0 1-2.18-.32h-.07v-.06c0-.14-4.42-14 8.24-20.19 2.69-1.63 9.46-3.49 16.13-1.54 5.52 1.63 9.82 5.4 12.75 11.31ZM221.2 130.43l.1.23-.23.09-.1-.22.23-.1Z" fill="#26417F"/><path d="m221.17 130.36.03.07-.23.1-.03-.07.23-.1Z" fill="#26417F"/><path d="m221.07 130.75-10.35 4.51-.08-.18-.23.1.08.18-3.87 1.69-.05-.13-7.45-21.75c-.09-.53-.18-1-.26-1.52l7.91 23.06 14.2-6.18.1.22ZM221 60.42l-.17.2a.378.378 0 0 0-.06-.1l.23-.1Z" fill="#26417F"/><path d="M221.33 59.72a18.995 18.995 0 0 1-9.12 6.17c-1.47-2.14-3.58-8.14-3.6-8.2l-.24.08c.09.26 2.2 6.24 3.69 8.34l.06.08h.08c.41-.14.81-.28 1.19-.44l2.61 5.5-10 4.83c-.56-.2-5.06-1.79-5.78-2a1.13 1.13 0 0 0-1.24.6c-.1.23-.23.83.71 1.41.658.34 1.368.566 2.1.67L200 77c-1.06.15-2.16.29-2.58.39a.915.915 0 0 0-.72.57 1.298 1.298 0 0 0 .13 1.23c.076.106.18.19.3.24-.29.131-.524.362-.66.65a.934.934 0 0 0 .07 1 1.176 1.176 0 0 0 1 .41c.182-.002.363-.022.54-.06h.1a.878.878 0 0 0-.31.81c.07.46.54.85 1.41.85a4.13 4.13 0 0 0 .57-.05l.36-.07a.853.853 0 0 0-.17.28.692.692 0 0 0 .15.74 1.136 1.136 0 0 0 .85.3c.289-.002.576-.05.85-.14 2.37-.58 5-1.42 5.07-1.43l.72-.25c5.12-1.77 5.12-1.77 6.57-2.2 1.18-.45 2.26-.9 3.25-1.36l.8 3.09c-9 5.54-25.16 4.55-26.19 4.48-1.76-1.45-3.57-15.86-3.59-16a8.12 8.12 0 0 0 5.38-2v-.06a59.344 59.344 0 0 0-1.1-6.69h-.25a59.39 59.39 0 0 1 1.09 6.6c-3 2.87-8.38 1.74-9 1.58-.31-1-3.88-13.93 8.14-19.82 2.67-1.61 9.35-3.45 15.94-1.52 5.48 1.59 9.72 5.34 12.61 11.15Z" fill="#61D3BA"/><path d="M218.59 82.06v.08h-.07l-.27.16a.339.339 0 0 0 0-.09l-.24.07v.15c-4 2.36-9.39 3.48-14.18 4l-.22-.12-.1.19a74.477 74.477 0 0 1-7.48.37h-1l-.21-.15-.12.17c-1.66 0-2.68-.09-2.73-.09v-.12l.08-.11c1 .07 17.21 1.06 26.19-4.48l-.8-3.09.24-.07s.23.46.91 3.13Z" fill="#26417F"/><path d="M218.25 82.26c.005.03.005.06 0 .09l-.22.13v-.15l.22-.07ZM213.61 65.63l2.7 5.74-10.3 5c-.05 0-5.06-1.79-5.81-2a.877.877 0 0 0-.94.46c-.15.36.07.76.61 1.1a7.087 7.087 0 0 0 2.32.68h.26a.14.14 0 0 1 .13.14c0 .16 0 .17-2.47.5-1.05.14-2.14.29-2.56.39a.647.647 0 0 0-.54.42.996.996 0 0 0 .1 1 .694.694 0 0 0 .57.26 1.365 1.365 0 0 0-.47.14.705.705 0 0 1-.3-.24 1.304 1.304 0 0 1-.13-1.23.918.918 0 0 1 .72-.57c.42-.1 1.52-.24 2.58-.39l1.76-.24a6.618 6.618 0 0 1-2.1-.67c-.94-.58-.81-1.18-.71-1.41a1.133 1.133 0 0 1 1.24-.6c.72.19 5.22 1.78 5.78 2l10-4.83-2.59-5.53a.819.819 0 0 0 .15-.12Z" fill="#26417F"/><path d="m213.56 65.52.05.11a.853.853 0 0 1-.22.09v-.1l.17-.1ZM210.64 135.08l.08.18-.23.1-.08-.18.23-.1Z" fill="#26417F"/><path d="m204.54 145.49.9 2.75h-.12l-.79.26-.1-.23.69-.22-.78-2.38.2-.18Z" fill="#FBC623"/><path d="m205.05 79.81.06.24s-3.56.81-6 1.25l-.05-.24c2.43-.44 5.94-1.24 5.99-1.25ZM204.53 81.7l.07.24s-1.56.44-3.39.85v-.25c1.79-.4 3.3-.83 3.32-.84ZM204.45 145.22l.09.27-.2.21-.09-.27.2-.21ZM204.43 148.3l.1.23-.24.08-.1-.23.24-.08Z" fill="#26417F"/><path d="m203 140.65 1.49 4.57-.2.21-1.49-4.58-10.82 3.53-4.85 5.43c-1.24.49-4.35 2-3.86 3.28l.63 1.93 20.33-6.64.1.23-20.59 6.72-.71-2.16c-.65-1.66 3.56-3.41 4-3.58l4.76-5.35-.79-2.34.23-.07.75 2.28 10.73-3.5v.12l.29-.08Z" fill="#26417F"/><path d="m204.43 148.3-.24.08-.52-1.15c-.29-.56 0-1.2.58-1.8l.09.27c-.43.5-.66 1-.44 1.42l.53 1.18Z" fill="#26417F"/><path d="m202.76 140.85 1.49 4.58c-.55.6-.87 1.24-.58 1.8l.52 1.15-20.33 6.62-.63-1.93c-.49-1.24 2.62-2.79 3.86-3.28l4.85-5.43 10.82-3.51Z" fill="#FBC623"/><path d="M203.89 86.43c-.1.01-.2.01-.3 0l.1-.19.2.19ZM203.57 86.5c.1.01.2.01.3 0-2.47 4.61-5.53 18-5.74 21.83.146 1.795.389 3.581.73 5.35l-.29-.86h-.1a38.58 38.58 0 0 1-.59-4.53c.22-3.79 3.23-17.01 5.69-21.79ZM203.41 78.25l.06.24a43.3 43.3 0 0 1-5.66 1.05v-.24a44.954 44.954 0 0 0 5.6-1.05Z" fill="#26417F"/><path d="M203.22 137.61v.11l-1.12.38-11.1 3.79-2.78.94v-.14c-.25-1.27-6.15-31.2-4.5-36.95 1.56-5.38 10-17.31 11.14-18.89h.31c-.52.71-9.6 13.38-11.21 19-1.61 5.62 4 34.41 4.48 36.69l14.56-4.98c-.3-1.58-3-15.74-4.32-23.82l.49 1.43c1.42 8.64 4.01 22.25 4.05 22.44ZM202.918 140.549l-.237.079.041.123.237-.079-.041-.123Z" fill="#26417F"/><path d="m203 137.56-14.57 4.94c-.45-2.28-6.06-31.2-4.48-36.69 1.58-5.49 10.69-18.24 11.21-19h1a74.418 74.418 0 0 0 7.48-.37c-2.46 4.78-5.47 18-5.69 21.79a38.58 38.58 0 0 0 .59 4.53l-.14.05.3.87c1.3 8.14 3.95 22.32 4.3 23.88Z" fill="#E0E2E3"/><path d="m202.17 138.24.75 2.29-.24.08-.75-2.29.24-.08Z" fill="#26417F"/><path d="m201.93 138.32.75 2.29-10.73 3.5-.75-2.28-.23.07v-.01l11.15-3.79.05.14-.24.08Z" fill="#FFDFD4"/><path d="M201.19 82.54v.25a1.143 1.143 0 0 0-.29.06l-.61.13c.135-.163.311-.288.51-.36l.34-.08h.05Z" fill="#26417F"/><path d="m201.18 82.8-.29.06c.093-.033.191-.053.29-.06ZM201.12 82.55l-.34.08a2.46 2.46 0 0 1 .34-.08ZM200.75 82.64a1.19 1.19 0 0 0-.51.36l-.36.07a4.13 4.13 0 0 1-.57.05c-.87 0-1.34-.39-1.41-.85a.88.88 0 0 1 .31-.81l.84-.15c-.68.15-1 .57-.91.92.09.35.64.77 1.69.59l.92-.18ZM199.12 115.17l-.49-1.43c-.06-.32-.11-.63-.16-.92h.1l.29.86c.08.45.14.96.26 1.49Z" fill="#26417F"/><path d="m199.06 81.06.05.24h-.06l-.84.15a1.57 1.57 0 0 1 .85-.39ZM198.63 113.74l-.3-.87.14-.05c.05.29.1.6.16.92Z" fill="#26417F"/><path d="m198.07 81.22 1-.16a1.572 1.572 0 0 0-.85.4h-.1a2.792 2.792 0 0 1-.54.06 1.17 1.17 0 0 1-1-.41.926.926 0 0 1-.07-1c.136-.288.37-.519.66-.65a.93.93 0 0 0 .44.11 1.212 1.212 0 0 0-.88.64.732.732 0 0 0 .05.77c.22.28.67.37 1.29.24ZM198.46 41.16a6.409 6.409 0 0 1-5.75 7h-.63a6.418 6.418 0 0 1-6.37-5.78v-.64a6.4 6.4 0 0 1 5.78-6.35h.63a6.42 6.42 0 0 1 6.34 5.77Zm-5.78 6.74a6.16 6.16 0 0 0 5.53-6.72 5.703 5.703 0 0 0-.36-1.54v-.25h-.17a6.1 6.1 0 0 0-3.18-3.22v-.19h-.25a.534.534 0 0 1 0 .08 6.192 6.192 0 0 0-2.82-.39 6.161 6.161 0 0 0-5.43 6.71 5.995 5.995 0 0 0 1 2.73l-.1.23c.115.048.236.081.36.1a6.13 6.13 0 0 0 5.42 2.46Z" fill="#26417F"/><path d="M198.21 41.18a6.15 6.15 0 0 1-11.08 4.24c.163.016.327.016.49 0a3.093 3.093 0 0 0 1.47-.35 1.823 1.823 0 0 0 1-1.32v-.1h-.1a1.602 1.602 0 0 1-1.15-1.21 1.213 1.213 0 0 1 .031-.649 1.21 1.21 0 0 1 .359-.541 1.18 1.18 0 0 1 1.23-.09h.05a4.282 4.282 0 0 0 3.82-3.64c.24.74 1 1.88 3.51 2.11.196.497.32 1.018.37 1.55Z" fill="#FFDFD4"/><path d="M197.91 39.39v.25a1.545 1.545 0 0 0-.11-.27l.11.02ZM197.8 79.3v.24h-.21a.932.932 0 0 1-.44-.11c.147-.075.307-.122.47-.14h.16l.02.01ZM197.74 39.37c.045.086.082.177.11.27-2.5-.23-3.27-1.37-3.51-2.11.055-.204.098-.41.13-.62 0 .09-.08 2.09 3.27 2.46ZM195.13 86.83h-.31l.12-.17.19.17Z" fill="#26417F"/><path d="M194.56 36.15a6.096 6.096 0 0 1 3.18 3.22c-3.35-.35-3.27-2.38-3.26-2.46.043-.252.07-.505.08-.76Z" fill="#13286A"/><path d="M194.32 36h.25v.19l-.25-.11a.357.357 0 0 0 0-.08Z" fill="#26417F"/><path d="M194.56 36.15a6.467 6.467 0 0 1-.09.76h-.24c.001.218.038.434.11.64a4.28 4.28 0 0 1-3.82 3.64h-.05a1.182 1.182 0 0 0-1.23.09 1.22 1.22 0 0 0-.39 1.19 1.599 1.599 0 0 0 1.15 1.18h.1v.1a1.824 1.824 0 0 1-1 1.32 3.093 3.093 0 0 1-1.47.35 2.571 2.571 0 0 1-.49 0c-.079-.097-.15-.2-.21-.31a2.8 2.8 0 0 0 2.05-.22 1.56 1.56 0 0 0 .85-1 1.8 1.8 0 0 1-1.22-1.37 1.478 1.478 0 0 1 .48-1.42 1.396 1.396 0 0 1 1.45-.14c3.43-.26 3.76-4.24 3.78-4.88l.24.07Z" fill="#26417F"/><path d="M194.23 36.89h.24a5.47 5.47 0 0 1-.13.62 2.014 2.014 0 0 1-.11-.62Z" fill="#26417F"/><path d="M194.31 36c0 .64-.35 4.62-3.78 4.88a1.398 1.398 0 0 0-1.45.14 1.487 1.487 0 0 0-.48 1.42 1.8 1.8 0 0 0 1.22 1.37 1.562 1.562 0 0 1-.85 1 2.8 2.8 0 0 1-2.05.22 6.007 6.007 0 0 1-1-2.73 6.143 6.143 0 0 1 2.43-5.502 6.149 6.149 0 0 1 5.96-.798Z" fill="#13286A"/><path d="m192.16 86.53-.08.11v-.13l.08.02Z" fill="#26417F"/><path d="M192.14 86.51v.13l-.07.09a7.577 7.577 0 0 1-1.42-3.32h.07v-.24h-.09a122.877 122.877 0 0 1-2.22-12.65h.25c-.09.13 1.72 14.54 3.48 15.99Z" fill="#26417F"/><path d="M190.61 83.16v.24h-.07a1.858 1.858 0 0 1-.07-.23l.14-.01Z" fill="#26417F"/><path d="M190.52 83.18c.019.078.042.155.07.23l-5.82 1.18c-1.43.2-1.43.2-6.5 1.15l-.75.14s-2.69.42-5 .63c-.159.014-.32.014-.48 0a1.288 1.288 0 0 1-1.11-.43.675.675 0 0 1 0-.73c.051-.09.115-.17.19-.24h.68a.874.874 0 0 0-.65.4.444.444 0 0 0 0 .47c.2.28.71.39 1.36.29 2.33-.21 5-.63 5-.64l.76-.14c5.07-.94 5.07-.94 6.5-1.14l5.75-1.17Z" fill="#26417F"/><path d="m190.52 83.18-5.79 1.17c-1.43.2-1.43.2-6.5 1.14l-.76.14s-2.67.43-5 .64c-.65.1-1.16 0-1.36-.29a.435.435 0 0 1 0-.47.866.866 0 0 1 .65-.4h.24c1.79-.13 3.31-.32 3.33-.32v-.25s-1.52.19-3.29.32h-.32c-.32 0-.65 0-1 .06h-.06c-1 0-1.45-.41-1.45-.8 0-.39.33-.7 1-.73 2.37-.07 5.82-.33 5.86-.33v-.25s-3.48.26-5.85.32h-1c-.62 0-1-.12-1.19-.42a.662.662 0 0 1 .07-.72 1.106 1.106 0 0 1 1.06-.47h1.19c1.77 0 4.25-.22 4.38-.23v-.25s-2.57.24-4.37.24h-1.08a.73.73 0 0 1-.63-.33.94.94 0 0 1 .05-.93.607.607 0 0 1 .54-.33h2.48c2.39 0 2.39 0 2.42-.12.03-.12 0-.12-.11-.17l-.23-.07a6.786 6.786 0 0 1-2.11-1c-.46-.4-.61-.8-.42-1.12a.819.819 0 0 1 1-.3c.67.29 5.17 2.69 5.22 2.71h.05l10.35-3.22h.11l-1-5.94h1.57-.25a122.271 122.271 0 0 0 2.2 12.72Z" fill="#FFDFD4"/><path d="m187 70.48 1 5.94h-.11l-10.39 3.26h-.05s-4.55-2.42-5.22-2.71a.82.82 0 0 0-1 .3c-.19.32 0 .72.42 1.12.64.453 1.354.791 2.11 1l.23.07c.12 0 .12.14.11.17-.01.03 0 .16-2.42.12h-2.48a.613.613 0 0 0-.54.33.937.937 0 0 0-.05.93.724.724 0 0 0 .63.33 1.279 1.279 0 0 0-.6.06.805.805 0 0 1-.25-.27 1.199 1.199 0 0 1 .05-1.18.856.856 0 0 1 .74-.45h4.17a5.984 5.984 0 0 1-1.87-.92c-.81-.69-.59-1.24-.47-1.44a1.066 1.066 0 0 1 1.27-.4c.65.29 4.69 2.43 5.19 2.7l10.16-3.16-1-5.79.37-.01ZM186.92 45.11c.06.11.13.213.21.31a1.534 1.534 0 0 1-.36-.1l.1-.23.05.02ZM187 70.33v.15h-.26v-.09l.26-.06ZM176.09 82.81v.25s-3.49.26-5.86.33v-.25c2.38-.07 5.82-.33 5.86-.33ZM175.33 84.53v.25s-1.54.19-3.33.32v-.25c1.81-.13 3.31-.32 3.33-.32Z" fill="#26417F"/><path d="M174.75 81.1v.25c-.13 0-2.61.23-4.38.23h-1.13v-.25h1.08c1.86.01 4.41-.23 4.43-.23ZM172 84.85v.25h-.91c.179-.153.397-.253.63-.29h.28v.04Z" fill="#26417F"/><path d="M170.72 84.92c.32 0 .65 0 1-.06-.232.037-.45.137-.63.29h-.4c-1.16 0-1.69-.52-1.7-1a.845.845 0 0 1 .41-.73h.85c-.68 0-1 .39-1 .73 0 .34.46.8 1.45.8l.02-.03ZM170.24 83.14v.25h-.88c.26-.175.568-.263.88-.25Z" fill="#26417F"/><path d="M170.24 83.13a1.472 1.472 0 0 0-.87.26h-.23c-.84 0-1.16-.34-1.28-.55a.92.92 0 0 1 .08-1c.174-.25.428-.434.72-.52.161.116.352.182.55.19a1.11 1.11 0 0 0-1.06.47.66.66 0 0 0-.07.72c.17.3.57.45 1.19.42l.97.01Z" fill="#26417F"/><path d="M169.3 81.29v.25h-.06a1.001 1.001 0 0 1-.55-.19c.193-.067.398-.088.6-.06h.01Z" fill="#26417F"/><path d="M311.78 86.87s-32.26 19-34.31.41c3.13-11.22 25.69-6.87 17.15 12.1-9 12.55-28.16 14.49-35.85 9.55" stroke="#FBC623" stroke-width="3" stroke-miterlimit="10"/><path d="m299.8 143.08-1.01 10.13-10.45-3.06-.95-7.5 12.41.43Z" fill="#4F87FD"/><path d="m291.65 179.83-3.55 5.24-10.75-8.16 4.45-6.66 9.85 9.58Z" fill="#61D3BA"/><path d="m129.54 144.38 4.33 8.53s9.32-6.29 11.17-7.63c-1.84-4.37-2.89-6.28-2.89-6.28s-7 3.15-12.61 5.38Z" stroke="#61D3BA" stroke-miterlimit="10"/><path d="m121.05 77.26-2.26 9.29S130 87.84 132.24 88c1.45-4.51 1.89-6.64 1.89-6.64s-7.36-2.15-13.08-4.1Z" fill="#FBC623"/></svg>